G75*
%MOIN*%
%OFA0B0*%
%FSLAX25Y25*%
%IPPOS*%
%LPD*%
%AMOC8*
5,1,8,0,0,1.08239X$1,22.5*
%
%ADD10C,0.06500*%
%ADD11C,0.07400*%
%ADD12C,0.17000*%
%ADD13OC8,0.07400*%
%ADD14C,0.05600*%
%ADD15C,0.01600*%
%ADD16R,0.04362X0.04362*%
%ADD17C,0.01000*%
%ADD18C,0.00800*%
D10*
X0588333Y0031800D03*
X0598333Y0031800D03*
X0628333Y0016800D03*
X0638333Y0016800D03*
D11*
X0653333Y0031800D03*
X0613333Y0031800D03*
X0628333Y0051800D03*
X0638333Y0051800D03*
X0593333Y0051800D03*
X0613333Y0071800D03*
X0653333Y0071800D03*
X0638333Y0091800D03*
X0628333Y0091800D03*
X0593333Y0091800D03*
X0588333Y0111800D03*
X0613333Y0111800D03*
X0588333Y0121800D03*
X0588333Y0131800D03*
X0588333Y0141800D03*
X0588333Y0151800D03*
X0588333Y0161800D03*
X0588333Y0171800D03*
X0588333Y0181800D03*
X0758333Y0181800D03*
X0758333Y0171800D03*
X0758333Y0161800D03*
X0758333Y0151800D03*
X0758333Y0141800D03*
X0758333Y0131800D03*
X0653333Y0111800D03*
X0638333Y0136800D03*
X0628333Y0136800D03*
D12*
X0746207Y0080304D03*
X0734396Y0061800D03*
X0758018Y0061800D03*
D13*
X0703333Y0036800D03*
X0693333Y0036800D03*
X0683333Y0036800D03*
X0683333Y0026800D03*
X0693333Y0026800D03*
X0703333Y0026800D03*
D14*
X0705533Y0061800D02*
X0711133Y0061800D01*
X0681133Y0061800D02*
X0675533Y0061800D01*
X0675533Y0071800D02*
X0681133Y0071800D01*
X0705533Y0071800D02*
X0711133Y0071800D01*
X0711133Y0081800D02*
X0705533Y0081800D01*
X0681133Y0081800D02*
X0675533Y0081800D01*
X0675533Y0091800D02*
X0681133Y0091800D01*
X0705533Y0091800D02*
X0711133Y0091800D01*
X0711133Y0101800D02*
X0705533Y0101800D01*
X0681133Y0101800D02*
X0675533Y0101800D01*
X0675533Y0111800D02*
X0681133Y0111800D01*
X0705533Y0111800D02*
X0711133Y0111800D01*
X0711133Y0121800D02*
X0705533Y0121800D01*
X0681133Y0121800D02*
X0675533Y0121800D01*
X0675533Y0131800D02*
X0681133Y0131800D01*
X0705533Y0131800D02*
X0711133Y0131800D01*
X0711133Y0141800D02*
X0705533Y0141800D01*
X0681133Y0141800D02*
X0675533Y0141800D01*
X0675533Y0151800D02*
X0681133Y0151800D01*
X0705533Y0151800D02*
X0711133Y0151800D01*
X0711133Y0161800D02*
X0705533Y0161800D01*
X0681133Y0161800D02*
X0675533Y0161800D01*
X0675533Y0171800D02*
X0681133Y0171800D01*
X0705533Y0171800D02*
X0711133Y0171800D01*
X0711133Y0181800D02*
X0705533Y0181800D01*
X0681133Y0181800D02*
X0675533Y0181800D01*
X0675533Y0191800D02*
X0681133Y0191800D01*
X0705533Y0191800D02*
X0711133Y0191800D01*
D15*
X0583333Y0106800D02*
X0583333Y0061800D01*
X0593333Y0051800D01*
X0603333Y0051800D01*
X0638333Y0016800D01*
X0668333Y0026800D02*
X0668333Y0081800D01*
X0678333Y0091800D01*
X0678333Y0081800D02*
X0693333Y0066800D01*
X0693333Y0036800D01*
X0703333Y0036800D02*
X0733018Y0036800D01*
X0758018Y0061800D01*
X0746207Y0073611D01*
X0746207Y0080304D01*
X0734396Y0061800D02*
X0734396Y0105737D01*
X0708333Y0131800D01*
X0688333Y0111800D01*
X0678333Y0111800D01*
X0613333Y0111800D02*
X0613333Y0156800D01*
X0648333Y0156800D01*
X0653333Y0151800D01*
X0653333Y0131800D01*
X0588333Y0111800D02*
X0583333Y0106800D01*
X0613333Y0156800D02*
X0588333Y0181800D01*
X0708333Y0171800D02*
X0758333Y0171800D01*
X0588333Y0031800D02*
X0588333Y0006800D01*
X0713333Y0006800D01*
X0713333Y0026800D01*
X0703333Y0026800D01*
X0683333Y0026800D02*
X0668333Y0026800D01*
D16*
X0653333Y0131800D03*
D17*
X0677733Y0101800D02*
X0678333Y0101800D01*
X0677733Y0101800D02*
X0677733Y0100000D01*
X0660633Y0082900D01*
X0660633Y0026200D01*
X0665133Y0021700D01*
X0688533Y0021700D01*
X0693033Y0026200D01*
X0693333Y0026800D01*
D18*
X0620133Y0092400D02*
X0593733Y0092400D01*
X0593333Y0091800D01*
X0620133Y0092400D02*
X0656933Y0129200D01*
X0656933Y0149200D01*
X0673733Y0166000D01*
X0682533Y0166000D01*
X0708333Y0191800D01*
M02*
