%
M48
M72
T01C0.02362
T02C0.02756
T03C0.03200
T04C0.03543
T05C0.04000
T06C0.11800
%
T01
X653333Y131800
T02
X588333Y31800
X598333Y31800
X628333Y16800
X638333Y16800
T03
X638333Y51800
X628333Y51800
X678333Y61800
X708333Y61800
X708333Y71800
X678333Y71800
X678333Y81800
X708333Y81800
X708333Y91800
X678333Y91800
X678333Y101800
X678333Y111800
X708333Y111800
X708333Y101800
X708333Y121800
X678333Y121800
X678333Y131800
X708333Y131800
X708333Y141800
X678333Y141800
X678333Y151800
X708333Y151800
X708333Y161800
X678333Y161800
X678333Y171800
X708333Y171800
X708333Y181800
X678333Y181800
X678333Y191800
X708333Y191800
X638333Y136800
X628333Y136800
X628333Y91800
X638333Y91800
T04
X593333Y91800
X613333Y111800
X653333Y111800
X653333Y71800
X613333Y71800
X593333Y51800
X613333Y31800
X653333Y31800
T05
X683333Y26800
X693333Y26800
X703333Y26800
X703333Y36800
X693333Y36800
X683333Y36800
X588333Y111800
X588333Y121800
X588333Y131800
X588333Y141800
X588333Y151800
X588333Y161800
X588333Y171800
X588333Y181800
X758333Y181800
X758333Y171800
X758333Y161800
X758333Y151800
X758333Y141800
X758333Y131800
T06
X746207Y80304
X734396Y61800
X758018Y61800
M30
