%
M48
M72
T01C0.0236
T02C0.0276
T03C0.0320
T04C0.0354
T05C0.0400
T06C0.1180
%
T01
X65333Y13180
T02
X58833Y3180
X59833Y3180
X62833Y1680
X63833Y1680
T03
X63833Y5180
X62833Y5180
X67833Y6180
X70833Y6180
X70833Y7180
X67833Y7180
X67833Y8180
X70833Y8180
X70833Y9180
X67833Y9180
X67833Y10180
X67833Y11180
X70833Y11180
X70833Y10180
X70833Y12180
X67833Y12180
X67833Y13180
X70833Y13180
X70833Y14180
X67833Y14180
X67833Y15180
X70833Y15180
X70833Y16180
X67833Y16180
X67833Y17180
X70833Y17180
X70833Y18180
X67833Y18180
X67833Y19180
X70833Y19180
X63833Y13680
X62833Y13680
X62833Y9180
X63833Y9180
T04
X59333Y9180
X61333Y11180
X65333Y11180
X65333Y7180
X61333Y7180
X59333Y5180
X61333Y3180
X65333Y3180
T05
X68333Y2680
X69333Y2680
X70333Y2680
X70333Y3680
X69333Y3680
X68333Y3680
X58833Y11180
X58833Y12180
X58833Y13180
X58833Y14180
X58833Y15180
X58833Y16180
X58833Y17180
X58833Y18180
X75833Y18180
X75833Y17180
X75833Y16180
X75833Y15180
X75833Y14180
X75833Y13180
T06
X74621Y8030
X75802Y6180
X73440Y6180
M30
