G75*
%MOIN*%
%OFA0B0*%
%FSLAX25Y25*%
%IPPOS*%
%LPD*%
%AMOC8*
5,1,8,0,0,1.08239X$1,22.5*
%
%ADD10C,0.00300*%
%ADD11C,0.00500*%
%ADD12C,0.00600*%
%ADD13C,0.01600*%
%ADD14C,0.00800*%
%ADD15C,0.00100*%
D10*
X0588483Y0022567D02*
X0589101Y0021950D01*
X0590335Y0021950D01*
X0590952Y0022567D01*
X0590952Y0025036D01*
X0588483Y0022567D01*
X0588483Y0025036D01*
X0589101Y0025653D01*
X0590335Y0025653D01*
X0590952Y0025036D01*
X0592166Y0022567D02*
X0592784Y0022567D01*
X0592784Y0021950D01*
X0592166Y0021950D01*
X0592166Y0022567D01*
X0594008Y0021950D02*
X0596477Y0021950D01*
X0595242Y0021950D02*
X0595242Y0025653D01*
X0594008Y0024419D01*
X0597691Y0024419D02*
X0597691Y0022567D01*
X0598308Y0021950D01*
X0600160Y0021950D01*
X0600160Y0024419D01*
X0601374Y0023802D02*
X0602609Y0023802D01*
X0603843Y0025653D02*
X0601374Y0025653D01*
X0601374Y0021950D01*
X0628483Y0032567D02*
X0629101Y0031950D01*
X0630335Y0031950D01*
X0630952Y0032567D01*
X0630952Y0033184D01*
X0630335Y0033802D01*
X0629718Y0033802D01*
X0630335Y0033802D02*
X0630952Y0034419D01*
X0630952Y0035036D01*
X0630335Y0035653D01*
X0629101Y0035653D01*
X0628483Y0035036D01*
X0632166Y0035036D02*
X0632784Y0035653D01*
X0634018Y0035653D01*
X0634635Y0035036D01*
X0634635Y0034419D01*
X0634018Y0033802D01*
X0634635Y0033184D01*
X0634635Y0032567D01*
X0634018Y0031950D01*
X0632784Y0031950D01*
X0632166Y0032567D01*
X0633401Y0033802D02*
X0634018Y0033802D01*
X0635850Y0035036D02*
X0635850Y0032567D01*
X0638318Y0035036D01*
X0638318Y0032567D01*
X0637701Y0031950D01*
X0636467Y0031950D01*
X0635850Y0032567D01*
X0635850Y0035036D02*
X0636467Y0035653D01*
X0637701Y0035653D01*
X0638318Y0035036D01*
X0641374Y0010653D02*
X0643843Y0010653D01*
X0642609Y0008802D02*
X0641374Y0008802D01*
X0640160Y0009419D02*
X0640160Y0006950D01*
X0638308Y0006950D01*
X0637691Y0007567D01*
X0637691Y0009419D01*
X0635242Y0010653D02*
X0635242Y0006950D01*
X0634008Y0006950D02*
X0636477Y0006950D01*
X0634008Y0009419D02*
X0635242Y0010653D01*
X0630952Y0010036D02*
X0628483Y0007567D01*
X0629101Y0006950D01*
X0630335Y0006950D01*
X0630952Y0007567D01*
X0630952Y0010036D01*
X0630335Y0010653D01*
X0629101Y0010653D01*
X0628483Y0010036D01*
X0628483Y0007567D01*
X0632166Y0007567D02*
X0632784Y0007567D01*
X0632784Y0006950D01*
X0632166Y0006950D01*
X0632166Y0007567D01*
X0641374Y0006950D02*
X0641374Y0010653D01*
X0748483Y0037434D02*
X0748967Y0036950D01*
X0749935Y0036950D01*
X0750418Y0037434D01*
X0750418Y0037917D01*
X0749935Y0038401D01*
X0749451Y0038401D01*
X0749935Y0038401D02*
X0750418Y0038885D01*
X0750418Y0039369D01*
X0749935Y0039852D01*
X0748967Y0039852D01*
X0748483Y0039369D01*
X0751430Y0037434D02*
X0751914Y0037434D01*
X0751914Y0036950D01*
X0751430Y0036950D01*
X0751430Y0037434D01*
X0752903Y0037434D02*
X0753387Y0036950D01*
X0754354Y0036950D01*
X0754838Y0037434D01*
X0754838Y0037917D01*
X0754354Y0038401D01*
X0753871Y0038401D01*
X0754354Y0038401D02*
X0754838Y0038885D01*
X0754838Y0039369D01*
X0754354Y0039852D01*
X0753387Y0039852D01*
X0752903Y0039369D01*
X0755850Y0038401D02*
X0757785Y0038401D01*
X0758796Y0038401D02*
X0759764Y0038885D01*
X0760247Y0038885D01*
X0760731Y0038401D01*
X0760731Y0037434D01*
X0760247Y0036950D01*
X0759280Y0036950D01*
X0758796Y0037434D01*
X0758796Y0038401D02*
X0758796Y0039852D01*
X0760731Y0039852D01*
X0761743Y0039852D02*
X0761743Y0037917D01*
X0762710Y0036950D01*
X0763678Y0037917D01*
X0763678Y0039852D01*
X0756817Y0039369D02*
X0756817Y0037434D01*
X0638318Y0072567D02*
X0637701Y0071950D01*
X0636467Y0071950D01*
X0635850Y0072567D01*
X0638318Y0075036D01*
X0638318Y0072567D01*
X0635850Y0072567D02*
X0635850Y0075036D01*
X0636467Y0075653D01*
X0637701Y0075653D01*
X0638318Y0075036D01*
X0634635Y0075036D02*
X0634018Y0075653D01*
X0632784Y0075653D01*
X0632166Y0075036D01*
X0630952Y0075036D02*
X0630952Y0074419D01*
X0630335Y0073802D01*
X0630952Y0073184D01*
X0630952Y0072567D01*
X0630335Y0071950D01*
X0629101Y0071950D01*
X0628483Y0072567D01*
X0629718Y0073802D02*
X0630335Y0073802D01*
X0630952Y0075036D02*
X0630335Y0075653D01*
X0629101Y0075653D01*
X0628483Y0075036D01*
X0632166Y0072567D02*
X0632784Y0071950D01*
X0634018Y0071950D01*
X0634635Y0072567D01*
X0634635Y0073184D01*
X0634018Y0073802D01*
X0633401Y0073802D01*
X0634018Y0073802D02*
X0634635Y0074419D01*
X0634635Y0075036D01*
X0593183Y0072485D02*
X0591949Y0070633D01*
X0590715Y0072485D01*
X0589480Y0070633D02*
X0593183Y0070633D01*
X0593183Y0069419D02*
X0593183Y0066950D01*
X0593183Y0068184D02*
X0589480Y0068184D01*
X0590715Y0066950D01*
X0594451Y0111950D02*
X0595418Y0112917D01*
X0595418Y0114852D01*
X0596430Y0114369D02*
X0596430Y0112434D01*
X0596914Y0111950D01*
X0597881Y0111950D01*
X0598365Y0112434D01*
X0599376Y0112434D02*
X0599860Y0111950D01*
X0600828Y0111950D01*
X0601311Y0112434D01*
X0599376Y0112434D02*
X0599376Y0114369D01*
X0599860Y0114852D01*
X0600828Y0114852D01*
X0601311Y0114369D01*
X0598365Y0114369D02*
X0597881Y0114852D01*
X0596914Y0114852D01*
X0596430Y0114369D01*
X0593483Y0114852D02*
X0593483Y0112917D01*
X0594451Y0111950D01*
X0595418Y0121950D02*
X0595418Y0123885D01*
X0594451Y0124852D01*
X0593483Y0123885D01*
X0593483Y0121950D01*
X0593483Y0123401D02*
X0595418Y0123401D01*
X0596430Y0123401D02*
X0597397Y0123885D01*
X0597881Y0123885D01*
X0598365Y0123401D01*
X0598365Y0122434D01*
X0597881Y0121950D01*
X0596914Y0121950D01*
X0596430Y0122434D01*
X0596430Y0123401D02*
X0596430Y0124852D01*
X0598365Y0124852D01*
X0597881Y0131950D02*
X0597881Y0134852D01*
X0596430Y0133401D01*
X0598365Y0133401D01*
X0595418Y0133401D02*
X0593483Y0133401D01*
X0593483Y0133885D02*
X0594451Y0134852D01*
X0595418Y0133885D01*
X0595418Y0131950D01*
X0593483Y0131950D02*
X0593483Y0133885D01*
X0593483Y0141950D02*
X0593483Y0143885D01*
X0594451Y0144852D01*
X0595418Y0143885D01*
X0595418Y0141950D01*
X0596430Y0142434D02*
X0596914Y0141950D01*
X0597881Y0141950D01*
X0598365Y0142434D01*
X0598365Y0142917D01*
X0597881Y0143401D01*
X0597397Y0143401D01*
X0597881Y0143401D02*
X0598365Y0143885D01*
X0598365Y0144369D01*
X0597881Y0144852D01*
X0596914Y0144852D01*
X0596430Y0144369D01*
X0595418Y0143401D02*
X0593483Y0143401D01*
X0593483Y0151950D02*
X0593483Y0153885D01*
X0594451Y0154852D01*
X0595418Y0153885D01*
X0595418Y0151950D01*
X0596430Y0151950D02*
X0598365Y0153885D01*
X0598365Y0154369D01*
X0597881Y0154852D01*
X0596914Y0154852D01*
X0596430Y0154369D01*
X0595418Y0153401D02*
X0593483Y0153401D01*
X0596430Y0151950D02*
X0598365Y0151950D01*
X0598365Y0161950D02*
X0596430Y0161950D01*
X0597397Y0161950D02*
X0597397Y0164852D01*
X0596430Y0163885D01*
X0595418Y0163885D02*
X0595418Y0161950D01*
X0595418Y0163401D02*
X0593483Y0163401D01*
X0593483Y0163885D02*
X0594451Y0164852D01*
X0595418Y0163885D01*
X0593483Y0163885D02*
X0593483Y0161950D01*
X0593483Y0171950D02*
X0593483Y0173885D01*
X0594451Y0174852D01*
X0595418Y0173885D01*
X0595418Y0171950D01*
X0596430Y0172434D02*
X0598365Y0174369D01*
X0598365Y0172434D01*
X0597881Y0171950D01*
X0596914Y0171950D01*
X0596430Y0172434D01*
X0596430Y0174369D01*
X0596914Y0174852D01*
X0597881Y0174852D01*
X0598365Y0174369D01*
X0595418Y0173401D02*
X0593483Y0173401D01*
X0590828Y0186950D02*
X0591311Y0187434D01*
X0591311Y0189369D01*
X0590828Y0189852D01*
X0589376Y0189852D01*
X0589376Y0186950D01*
X0590828Y0186950D01*
X0588365Y0186950D02*
X0588365Y0189852D01*
X0586430Y0189852D02*
X0588365Y0186950D01*
X0586430Y0186950D02*
X0586430Y0189852D01*
X0585418Y0189369D02*
X0584935Y0189852D01*
X0583967Y0189852D01*
X0583483Y0189369D01*
X0583483Y0187434D01*
X0583967Y0186950D01*
X0584935Y0186950D01*
X0585418Y0187434D01*
X0585418Y0188401D01*
X0584451Y0188401D01*
X0743483Y0184852D02*
X0743483Y0181950D01*
X0744935Y0181950D01*
X0745418Y0182434D01*
X0745418Y0184369D01*
X0744935Y0184852D01*
X0743483Y0184852D01*
X0746430Y0184852D02*
X0748365Y0184852D01*
X0747397Y0184852D02*
X0747397Y0181950D01*
X0749376Y0181950D02*
X0749376Y0184852D01*
X0750828Y0184852D01*
X0751311Y0184369D01*
X0751311Y0183401D01*
X0750828Y0182917D01*
X0749376Y0182917D01*
X0750344Y0182917D02*
X0751311Y0181950D01*
X0748365Y0174852D02*
X0746430Y0171950D01*
X0748365Y0171950D02*
X0746430Y0174852D01*
X0745418Y0174852D02*
X0743483Y0174852D01*
X0744451Y0174852D02*
X0744451Y0171950D01*
X0744935Y0164852D02*
X0745418Y0164369D01*
X0745418Y0163401D01*
X0744935Y0162917D01*
X0743483Y0162917D01*
X0743483Y0161950D02*
X0743483Y0164852D01*
X0744935Y0164852D01*
X0746430Y0164852D02*
X0748365Y0161950D01*
X0746430Y0161950D02*
X0748365Y0164852D01*
X0745418Y0161950D02*
X0744451Y0162917D01*
X0745418Y0154852D02*
X0745418Y0152917D01*
X0744451Y0151950D01*
X0743483Y0152917D01*
X0743483Y0154852D01*
X0746430Y0154369D02*
X0746430Y0152434D01*
X0746914Y0151950D01*
X0747881Y0151950D01*
X0748365Y0152434D01*
X0749376Y0152434D02*
X0749860Y0151950D01*
X0750828Y0151950D01*
X0751311Y0152434D01*
X0749376Y0152434D02*
X0749376Y0154369D01*
X0749860Y0154852D01*
X0750828Y0154852D01*
X0751311Y0154369D01*
X0748365Y0154369D02*
X0747881Y0154852D01*
X0746914Y0154852D01*
X0746430Y0154369D01*
X0746430Y0144852D02*
X0748365Y0144852D01*
X0747397Y0144852D02*
X0747397Y0141950D01*
X0745418Y0142434D02*
X0744935Y0141950D01*
X0743967Y0141950D01*
X0743483Y0142434D01*
X0743483Y0144369D01*
X0743967Y0144852D01*
X0744935Y0144852D01*
X0745418Y0144369D01*
X0749376Y0144369D02*
X0749860Y0144852D01*
X0750828Y0144852D01*
X0751311Y0144369D01*
X0750828Y0143401D02*
X0751311Y0142917D01*
X0751311Y0142434D01*
X0750828Y0141950D01*
X0749860Y0141950D01*
X0749376Y0142434D01*
X0749860Y0143401D02*
X0750828Y0143401D01*
X0749860Y0143401D02*
X0749376Y0143885D01*
X0749376Y0144369D01*
X0754101Y0125653D02*
X0753483Y0125036D01*
X0753483Y0122567D01*
X0754101Y0121950D01*
X0755335Y0121950D01*
X0755952Y0122567D01*
X0755952Y0123802D01*
X0754718Y0123802D01*
X0755952Y0125036D02*
X0755335Y0125653D01*
X0754101Y0125653D01*
X0757166Y0125653D02*
X0759635Y0121950D01*
X0759635Y0125653D01*
X0760850Y0125653D02*
X0762701Y0125653D01*
X0763318Y0125036D01*
X0763318Y0122567D01*
X0762701Y0121950D01*
X0760850Y0121950D01*
X0760850Y0125653D01*
X0757166Y0125653D02*
X0757166Y0121950D01*
X0638318Y0115036D02*
X0635850Y0112567D01*
X0636467Y0111950D01*
X0637701Y0111950D01*
X0638318Y0112567D01*
X0638318Y0115036D01*
X0637701Y0115653D01*
X0636467Y0115653D01*
X0635850Y0115036D01*
X0635850Y0112567D01*
X0634635Y0112567D02*
X0634018Y0111950D01*
X0632784Y0111950D01*
X0632166Y0112567D01*
X0630952Y0112567D02*
X0630335Y0111950D01*
X0629101Y0111950D01*
X0628483Y0112567D01*
X0629718Y0113802D02*
X0630335Y0113802D01*
X0630952Y0113184D01*
X0630952Y0112567D01*
X0630335Y0113802D02*
X0630952Y0114419D01*
X0630952Y0115036D01*
X0630335Y0115653D01*
X0629101Y0115653D01*
X0628483Y0115036D01*
X0632166Y0115036D02*
X0632784Y0115653D01*
X0634018Y0115653D01*
X0634635Y0115036D01*
X0634635Y0114419D01*
X0634018Y0113802D01*
X0634635Y0113184D01*
X0634635Y0112567D01*
X0634018Y0113802D02*
X0633401Y0113802D01*
D11*
X0691978Y0113275D02*
X0694013Y0111239D01*
X0691978Y0109204D01*
X0698083Y0109204D01*
X0691978Y0107197D02*
X0691978Y0103127D01*
X0691978Y0105162D02*
X0698083Y0105162D01*
X0698083Y0101120D02*
X0694013Y0101120D01*
X0691978Y0099085D01*
X0694013Y0097050D01*
X0698083Y0097050D01*
X0695031Y0097050D02*
X0695031Y0101120D01*
X0691978Y0113275D02*
X0698083Y0113275D01*
X0698083Y0115282D02*
X0698083Y0119352D01*
X0697066Y0121359D02*
X0698083Y0122376D01*
X0698083Y0124411D01*
X0697066Y0125429D01*
X0695031Y0125429D01*
X0695031Y0123394D01*
X0692996Y0121359D02*
X0697066Y0121359D01*
X0692996Y0121359D02*
X0691978Y0122376D01*
X0691978Y0124411D01*
X0692996Y0125429D01*
X0694013Y0127436D02*
X0691978Y0129471D01*
X0694013Y0131506D01*
X0698083Y0131506D01*
X0697066Y0133513D02*
X0698083Y0134531D01*
X0698083Y0136566D01*
X0697066Y0137583D01*
X0696048Y0137583D01*
X0695031Y0136566D01*
X0695031Y0135548D01*
X0695031Y0136566D02*
X0694013Y0137583D01*
X0692996Y0137583D01*
X0691978Y0136566D01*
X0691978Y0134531D01*
X0692996Y0133513D01*
X0695031Y0131506D02*
X0695031Y0127436D01*
X0694013Y0127436D02*
X0698083Y0127436D01*
X0691978Y0119352D02*
X0691978Y0115282D01*
X0698083Y0115282D01*
X0695031Y0115282D02*
X0695031Y0117317D01*
X0721978Y0137050D02*
X0728083Y0137050D01*
X0728083Y0141120D01*
X0727066Y0143127D02*
X0728083Y0144145D01*
X0728083Y0146180D01*
X0727066Y0147197D01*
X0725031Y0147197D01*
X0724013Y0146180D01*
X0724013Y0144145D01*
X0725031Y0143127D01*
X0727066Y0143127D01*
X0727066Y0149204D02*
X0728083Y0150222D01*
X0728083Y0153275D01*
X0724013Y0153275D01*
X0724013Y0155282D02*
X0724013Y0158334D01*
X0725031Y0159352D01*
X0728083Y0159352D01*
X0727066Y0161359D02*
X0725031Y0161359D01*
X0724013Y0162376D01*
X0724013Y0165429D01*
X0724013Y0167436D02*
X0727066Y0167436D01*
X0728083Y0168453D01*
X0728083Y0171506D01*
X0729101Y0171506D02*
X0730118Y0170489D01*
X0730118Y0169471D01*
X0729101Y0171506D02*
X0724013Y0171506D01*
X0721978Y0165429D02*
X0728083Y0165429D01*
X0728083Y0162376D01*
X0727066Y0161359D01*
X0728083Y0155282D02*
X0724013Y0155282D01*
X0724013Y0149204D02*
X0727066Y0149204D01*
X0698083Y0148720D02*
X0698083Y0146685D01*
X0697066Y0145668D01*
X0696048Y0145668D01*
X0695031Y0146685D01*
X0695031Y0148720D01*
X0696048Y0149738D01*
X0697066Y0149738D01*
X0698083Y0148720D01*
X0695031Y0148720D02*
X0694013Y0149738D01*
X0692996Y0149738D01*
X0691978Y0148720D01*
X0691978Y0146685D01*
X0692996Y0145668D01*
X0694013Y0145668D01*
X0695031Y0146685D01*
X0694013Y0143660D02*
X0692996Y0143660D01*
X0691978Y0142643D01*
X0691978Y0140608D01*
X0692996Y0139590D01*
X0694013Y0143660D02*
X0698083Y0139590D01*
X0698083Y0143660D01*
D12*
X0741763Y0128857D02*
X0741763Y0126722D01*
X0742831Y0125654D01*
X0744966Y0125654D01*
X0746033Y0126722D01*
X0746033Y0128857D01*
X0744966Y0129925D01*
X0742831Y0129925D01*
X0741763Y0128857D01*
X0742831Y0123479D02*
X0746033Y0123479D01*
X0742831Y0123479D02*
X0741763Y0122412D01*
X0741763Y0119209D01*
X0746033Y0119209D01*
X0746033Y0117047D02*
X0746033Y0114912D01*
X0746033Y0115979D02*
X0741763Y0115979D01*
X0741763Y0114912D01*
X0741763Y0112737D02*
X0746033Y0112737D01*
X0746033Y0109534D01*
X0744966Y0108466D01*
X0741763Y0108466D01*
X0741763Y0106291D02*
X0741763Y0103088D01*
X0742831Y0102021D01*
X0744966Y0102021D01*
X0746033Y0103088D01*
X0746033Y0106291D01*
X0739628Y0106291D01*
X0741763Y0099852D02*
X0741763Y0098785D01*
X0743898Y0096650D01*
X0746033Y0096650D02*
X0741763Y0096650D01*
X0741763Y0094474D02*
X0746033Y0094474D01*
X0742831Y0094474D02*
X0742831Y0090204D01*
X0741763Y0090204D02*
X0739628Y0092339D01*
X0741763Y0094474D01*
X0735533Y0093407D02*
X0735533Y0091272D01*
X0734466Y0090204D01*
X0732331Y0090204D01*
X0731263Y0091272D01*
X0731263Y0093407D01*
X0732331Y0094474D01*
X0733398Y0094474D01*
X0733398Y0090204D01*
X0732331Y0088029D02*
X0735533Y0088029D01*
X0732331Y0088029D02*
X0731263Y0086961D01*
X0731263Y0083759D01*
X0735533Y0083759D01*
X0734466Y0081583D02*
X0732331Y0081583D01*
X0731263Y0080516D01*
X0731263Y0078381D01*
X0732331Y0077313D01*
X0734466Y0077313D01*
X0735533Y0078381D01*
X0735533Y0080516D01*
X0734466Y0081583D01*
X0725033Y0079442D02*
X0725033Y0077306D01*
X0723966Y0076239D01*
X0721831Y0076239D01*
X0720763Y0077306D01*
X0720763Y0079442D01*
X0721831Y0080509D01*
X0722898Y0080509D01*
X0722898Y0076239D01*
X0720763Y0074070D02*
X0720763Y0073003D01*
X0722898Y0070868D01*
X0725033Y0070868D02*
X0720763Y0070868D01*
X0721831Y0068692D02*
X0725033Y0068692D01*
X0725033Y0065490D01*
X0723966Y0064422D01*
X0722898Y0065490D01*
X0722898Y0068692D01*
X0721831Y0068692D02*
X0720763Y0067625D01*
X0720763Y0065490D01*
X0720763Y0062247D02*
X0721831Y0061179D01*
X0721831Y0057977D01*
X0725033Y0057977D02*
X0718628Y0057977D01*
X0718628Y0061179D01*
X0719695Y0062247D01*
X0720763Y0062247D01*
X0721831Y0061179D02*
X0722898Y0062247D01*
X0723966Y0062247D01*
X0725033Y0061179D01*
X0725033Y0057977D01*
X0729128Y0070868D02*
X0729128Y0074070D01*
X0730195Y0075138D01*
X0731263Y0075138D01*
X0732331Y0074070D01*
X0732331Y0070868D01*
X0735533Y0070868D02*
X0735533Y0074070D01*
X0734466Y0075138D01*
X0733398Y0075138D01*
X0732331Y0074070D01*
X0735533Y0070868D02*
X0729128Y0070868D01*
X0741763Y0090204D02*
X0746033Y0090204D01*
X0735533Y0096650D02*
X0735533Y0099852D01*
X0734466Y0100920D01*
X0733398Y0099852D01*
X0733398Y0097717D01*
X0732331Y0096650D01*
X0731263Y0097717D01*
X0731263Y0100920D01*
X0738560Y0115979D02*
X0739628Y0115979D01*
X0623333Y0136800D02*
X0623336Y0137045D01*
X0623345Y0137291D01*
X0623360Y0137536D01*
X0623381Y0137780D01*
X0623408Y0138024D01*
X0623441Y0138267D01*
X0623480Y0138510D01*
X0623525Y0138751D01*
X0623576Y0138991D01*
X0623633Y0139230D01*
X0623695Y0139467D01*
X0623764Y0139703D01*
X0623838Y0139937D01*
X0623918Y0140169D01*
X0624003Y0140399D01*
X0624094Y0140627D01*
X0624191Y0140852D01*
X0624293Y0141076D01*
X0624401Y0141296D01*
X0624514Y0141514D01*
X0624632Y0141729D01*
X0624756Y0141941D01*
X0624884Y0142150D01*
X0625018Y0142356D01*
X0625157Y0142558D01*
X0625301Y0142757D01*
X0625450Y0142952D01*
X0625603Y0143144D01*
X0625761Y0143332D01*
X0625923Y0143516D01*
X0626091Y0143695D01*
X0626262Y0143871D01*
X0626438Y0144042D01*
X0626617Y0144210D01*
X0626801Y0144372D01*
X0626989Y0144530D01*
X0627181Y0144683D01*
X0627376Y0144832D01*
X0627575Y0144976D01*
X0627777Y0145115D01*
X0627983Y0145249D01*
X0628192Y0145377D01*
X0628404Y0145501D01*
X0628619Y0145619D01*
X0628837Y0145732D01*
X0629057Y0145840D01*
X0629281Y0145942D01*
X0629506Y0146039D01*
X0629734Y0146130D01*
X0629964Y0146215D01*
X0630196Y0146295D01*
X0630430Y0146369D01*
X0630666Y0146438D01*
X0630903Y0146500D01*
X0631142Y0146557D01*
X0631382Y0146608D01*
X0631623Y0146653D01*
X0631866Y0146692D01*
X0632109Y0146725D01*
X0632353Y0146752D01*
X0632597Y0146773D01*
X0632842Y0146788D01*
X0633088Y0146797D01*
X0633333Y0146800D01*
X0633578Y0146797D01*
X0633824Y0146788D01*
X0634069Y0146773D01*
X0634313Y0146752D01*
X0634557Y0146725D01*
X0634800Y0146692D01*
X0635043Y0146653D01*
X0635284Y0146608D01*
X0635524Y0146557D01*
X0635763Y0146500D01*
X0636000Y0146438D01*
X0636236Y0146369D01*
X0636470Y0146295D01*
X0636702Y0146215D01*
X0636932Y0146130D01*
X0637160Y0146039D01*
X0637385Y0145942D01*
X0637609Y0145840D01*
X0637829Y0145732D01*
X0638047Y0145619D01*
X0638262Y0145501D01*
X0638474Y0145377D01*
X0638683Y0145249D01*
X0638889Y0145115D01*
X0639091Y0144976D01*
X0639290Y0144832D01*
X0639485Y0144683D01*
X0639677Y0144530D01*
X0639865Y0144372D01*
X0640049Y0144210D01*
X0640228Y0144042D01*
X0640404Y0143871D01*
X0640575Y0143695D01*
X0640743Y0143516D01*
X0640905Y0143332D01*
X0641063Y0143144D01*
X0641216Y0142952D01*
X0641365Y0142757D01*
X0641509Y0142558D01*
X0641648Y0142356D01*
X0641782Y0142150D01*
X0641910Y0141941D01*
X0642034Y0141729D01*
X0642152Y0141514D01*
X0642265Y0141296D01*
X0642373Y0141076D01*
X0642475Y0140852D01*
X0642572Y0140627D01*
X0642663Y0140399D01*
X0642748Y0140169D01*
X0642828Y0139937D01*
X0642902Y0139703D01*
X0642971Y0139467D01*
X0643033Y0139230D01*
X0643090Y0138991D01*
X0643141Y0138751D01*
X0643186Y0138510D01*
X0643225Y0138267D01*
X0643258Y0138024D01*
X0643285Y0137780D01*
X0643306Y0137536D01*
X0643321Y0137291D01*
X0643330Y0137045D01*
X0643333Y0136800D01*
X0643330Y0136555D01*
X0643321Y0136309D01*
X0643306Y0136064D01*
X0643285Y0135820D01*
X0643258Y0135576D01*
X0643225Y0135333D01*
X0643186Y0135090D01*
X0643141Y0134849D01*
X0643090Y0134609D01*
X0643033Y0134370D01*
X0642971Y0134133D01*
X0642902Y0133897D01*
X0642828Y0133663D01*
X0642748Y0133431D01*
X0642663Y0133201D01*
X0642572Y0132973D01*
X0642475Y0132748D01*
X0642373Y0132524D01*
X0642265Y0132304D01*
X0642152Y0132086D01*
X0642034Y0131871D01*
X0641910Y0131659D01*
X0641782Y0131450D01*
X0641648Y0131244D01*
X0641509Y0131042D01*
X0641365Y0130843D01*
X0641216Y0130648D01*
X0641063Y0130456D01*
X0640905Y0130268D01*
X0640743Y0130084D01*
X0640575Y0129905D01*
X0640404Y0129729D01*
X0640228Y0129558D01*
X0640049Y0129390D01*
X0639865Y0129228D01*
X0639677Y0129070D01*
X0639485Y0128917D01*
X0639290Y0128768D01*
X0639091Y0128624D01*
X0638889Y0128485D01*
X0638683Y0128351D01*
X0638474Y0128223D01*
X0638262Y0128099D01*
X0638047Y0127981D01*
X0637829Y0127868D01*
X0637609Y0127760D01*
X0637385Y0127658D01*
X0637160Y0127561D01*
X0636932Y0127470D01*
X0636702Y0127385D01*
X0636470Y0127305D01*
X0636236Y0127231D01*
X0636000Y0127162D01*
X0635763Y0127100D01*
X0635524Y0127043D01*
X0635284Y0126992D01*
X0635043Y0126947D01*
X0634800Y0126908D01*
X0634557Y0126875D01*
X0634313Y0126848D01*
X0634069Y0126827D01*
X0633824Y0126812D01*
X0633578Y0126803D01*
X0633333Y0126800D01*
X0633088Y0126803D01*
X0632842Y0126812D01*
X0632597Y0126827D01*
X0632353Y0126848D01*
X0632109Y0126875D01*
X0631866Y0126908D01*
X0631623Y0126947D01*
X0631382Y0126992D01*
X0631142Y0127043D01*
X0630903Y0127100D01*
X0630666Y0127162D01*
X0630430Y0127231D01*
X0630196Y0127305D01*
X0629964Y0127385D01*
X0629734Y0127470D01*
X0629506Y0127561D01*
X0629281Y0127658D01*
X0629057Y0127760D01*
X0628837Y0127868D01*
X0628619Y0127981D01*
X0628404Y0128099D01*
X0628192Y0128223D01*
X0627983Y0128351D01*
X0627777Y0128485D01*
X0627575Y0128624D01*
X0627376Y0128768D01*
X0627181Y0128917D01*
X0626989Y0129070D01*
X0626801Y0129228D01*
X0626617Y0129390D01*
X0626438Y0129558D01*
X0626262Y0129729D01*
X0626091Y0129905D01*
X0625923Y0130084D01*
X0625761Y0130268D01*
X0625603Y0130456D01*
X0625450Y0130648D01*
X0625301Y0130843D01*
X0625157Y0131042D01*
X0625018Y0131244D01*
X0624884Y0131450D01*
X0624756Y0131659D01*
X0624632Y0131871D01*
X0624514Y0132086D01*
X0624401Y0132304D01*
X0624293Y0132524D01*
X0624191Y0132748D01*
X0624094Y0132973D01*
X0624003Y0133201D01*
X0623918Y0133431D01*
X0623838Y0133663D01*
X0623764Y0133897D01*
X0623695Y0134133D01*
X0623633Y0134370D01*
X0623576Y0134609D01*
X0623525Y0134849D01*
X0623480Y0135090D01*
X0623441Y0135333D01*
X0623408Y0135576D01*
X0623381Y0135820D01*
X0623360Y0136064D01*
X0623345Y0136309D01*
X0623336Y0136555D01*
X0623333Y0136800D01*
X0623333Y0091800D02*
X0623336Y0092045D01*
X0623345Y0092291D01*
X0623360Y0092536D01*
X0623381Y0092780D01*
X0623408Y0093024D01*
X0623441Y0093267D01*
X0623480Y0093510D01*
X0623525Y0093751D01*
X0623576Y0093991D01*
X0623633Y0094230D01*
X0623695Y0094467D01*
X0623764Y0094703D01*
X0623838Y0094937D01*
X0623918Y0095169D01*
X0624003Y0095399D01*
X0624094Y0095627D01*
X0624191Y0095852D01*
X0624293Y0096076D01*
X0624401Y0096296D01*
X0624514Y0096514D01*
X0624632Y0096729D01*
X0624756Y0096941D01*
X0624884Y0097150D01*
X0625018Y0097356D01*
X0625157Y0097558D01*
X0625301Y0097757D01*
X0625450Y0097952D01*
X0625603Y0098144D01*
X0625761Y0098332D01*
X0625923Y0098516D01*
X0626091Y0098695D01*
X0626262Y0098871D01*
X0626438Y0099042D01*
X0626617Y0099210D01*
X0626801Y0099372D01*
X0626989Y0099530D01*
X0627181Y0099683D01*
X0627376Y0099832D01*
X0627575Y0099976D01*
X0627777Y0100115D01*
X0627983Y0100249D01*
X0628192Y0100377D01*
X0628404Y0100501D01*
X0628619Y0100619D01*
X0628837Y0100732D01*
X0629057Y0100840D01*
X0629281Y0100942D01*
X0629506Y0101039D01*
X0629734Y0101130D01*
X0629964Y0101215D01*
X0630196Y0101295D01*
X0630430Y0101369D01*
X0630666Y0101438D01*
X0630903Y0101500D01*
X0631142Y0101557D01*
X0631382Y0101608D01*
X0631623Y0101653D01*
X0631866Y0101692D01*
X0632109Y0101725D01*
X0632353Y0101752D01*
X0632597Y0101773D01*
X0632842Y0101788D01*
X0633088Y0101797D01*
X0633333Y0101800D01*
X0633578Y0101797D01*
X0633824Y0101788D01*
X0634069Y0101773D01*
X0634313Y0101752D01*
X0634557Y0101725D01*
X0634800Y0101692D01*
X0635043Y0101653D01*
X0635284Y0101608D01*
X0635524Y0101557D01*
X0635763Y0101500D01*
X0636000Y0101438D01*
X0636236Y0101369D01*
X0636470Y0101295D01*
X0636702Y0101215D01*
X0636932Y0101130D01*
X0637160Y0101039D01*
X0637385Y0100942D01*
X0637609Y0100840D01*
X0637829Y0100732D01*
X0638047Y0100619D01*
X0638262Y0100501D01*
X0638474Y0100377D01*
X0638683Y0100249D01*
X0638889Y0100115D01*
X0639091Y0099976D01*
X0639290Y0099832D01*
X0639485Y0099683D01*
X0639677Y0099530D01*
X0639865Y0099372D01*
X0640049Y0099210D01*
X0640228Y0099042D01*
X0640404Y0098871D01*
X0640575Y0098695D01*
X0640743Y0098516D01*
X0640905Y0098332D01*
X0641063Y0098144D01*
X0641216Y0097952D01*
X0641365Y0097757D01*
X0641509Y0097558D01*
X0641648Y0097356D01*
X0641782Y0097150D01*
X0641910Y0096941D01*
X0642034Y0096729D01*
X0642152Y0096514D01*
X0642265Y0096296D01*
X0642373Y0096076D01*
X0642475Y0095852D01*
X0642572Y0095627D01*
X0642663Y0095399D01*
X0642748Y0095169D01*
X0642828Y0094937D01*
X0642902Y0094703D01*
X0642971Y0094467D01*
X0643033Y0094230D01*
X0643090Y0093991D01*
X0643141Y0093751D01*
X0643186Y0093510D01*
X0643225Y0093267D01*
X0643258Y0093024D01*
X0643285Y0092780D01*
X0643306Y0092536D01*
X0643321Y0092291D01*
X0643330Y0092045D01*
X0643333Y0091800D01*
X0643330Y0091555D01*
X0643321Y0091309D01*
X0643306Y0091064D01*
X0643285Y0090820D01*
X0643258Y0090576D01*
X0643225Y0090333D01*
X0643186Y0090090D01*
X0643141Y0089849D01*
X0643090Y0089609D01*
X0643033Y0089370D01*
X0642971Y0089133D01*
X0642902Y0088897D01*
X0642828Y0088663D01*
X0642748Y0088431D01*
X0642663Y0088201D01*
X0642572Y0087973D01*
X0642475Y0087748D01*
X0642373Y0087524D01*
X0642265Y0087304D01*
X0642152Y0087086D01*
X0642034Y0086871D01*
X0641910Y0086659D01*
X0641782Y0086450D01*
X0641648Y0086244D01*
X0641509Y0086042D01*
X0641365Y0085843D01*
X0641216Y0085648D01*
X0641063Y0085456D01*
X0640905Y0085268D01*
X0640743Y0085084D01*
X0640575Y0084905D01*
X0640404Y0084729D01*
X0640228Y0084558D01*
X0640049Y0084390D01*
X0639865Y0084228D01*
X0639677Y0084070D01*
X0639485Y0083917D01*
X0639290Y0083768D01*
X0639091Y0083624D01*
X0638889Y0083485D01*
X0638683Y0083351D01*
X0638474Y0083223D01*
X0638262Y0083099D01*
X0638047Y0082981D01*
X0637829Y0082868D01*
X0637609Y0082760D01*
X0637385Y0082658D01*
X0637160Y0082561D01*
X0636932Y0082470D01*
X0636702Y0082385D01*
X0636470Y0082305D01*
X0636236Y0082231D01*
X0636000Y0082162D01*
X0635763Y0082100D01*
X0635524Y0082043D01*
X0635284Y0081992D01*
X0635043Y0081947D01*
X0634800Y0081908D01*
X0634557Y0081875D01*
X0634313Y0081848D01*
X0634069Y0081827D01*
X0633824Y0081812D01*
X0633578Y0081803D01*
X0633333Y0081800D01*
X0633088Y0081803D01*
X0632842Y0081812D01*
X0632597Y0081827D01*
X0632353Y0081848D01*
X0632109Y0081875D01*
X0631866Y0081908D01*
X0631623Y0081947D01*
X0631382Y0081992D01*
X0631142Y0082043D01*
X0630903Y0082100D01*
X0630666Y0082162D01*
X0630430Y0082231D01*
X0630196Y0082305D01*
X0629964Y0082385D01*
X0629734Y0082470D01*
X0629506Y0082561D01*
X0629281Y0082658D01*
X0629057Y0082760D01*
X0628837Y0082868D01*
X0628619Y0082981D01*
X0628404Y0083099D01*
X0628192Y0083223D01*
X0627983Y0083351D01*
X0627777Y0083485D01*
X0627575Y0083624D01*
X0627376Y0083768D01*
X0627181Y0083917D01*
X0626989Y0084070D01*
X0626801Y0084228D01*
X0626617Y0084390D01*
X0626438Y0084558D01*
X0626262Y0084729D01*
X0626091Y0084905D01*
X0625923Y0085084D01*
X0625761Y0085268D01*
X0625603Y0085456D01*
X0625450Y0085648D01*
X0625301Y0085843D01*
X0625157Y0086042D01*
X0625018Y0086244D01*
X0624884Y0086450D01*
X0624756Y0086659D01*
X0624632Y0086871D01*
X0624514Y0087086D01*
X0624401Y0087304D01*
X0624293Y0087524D01*
X0624191Y0087748D01*
X0624094Y0087973D01*
X0624003Y0088201D01*
X0623918Y0088431D01*
X0623838Y0088663D01*
X0623764Y0088897D01*
X0623695Y0089133D01*
X0623633Y0089370D01*
X0623576Y0089609D01*
X0623525Y0089849D01*
X0623480Y0090090D01*
X0623441Y0090333D01*
X0623408Y0090576D01*
X0623381Y0090820D01*
X0623360Y0091064D01*
X0623345Y0091309D01*
X0623336Y0091555D01*
X0623333Y0091800D01*
X0623333Y0051800D02*
X0623336Y0052045D01*
X0623345Y0052291D01*
X0623360Y0052536D01*
X0623381Y0052780D01*
X0623408Y0053024D01*
X0623441Y0053267D01*
X0623480Y0053510D01*
X0623525Y0053751D01*
X0623576Y0053991D01*
X0623633Y0054230D01*
X0623695Y0054467D01*
X0623764Y0054703D01*
X0623838Y0054937D01*
X0623918Y0055169D01*
X0624003Y0055399D01*
X0624094Y0055627D01*
X0624191Y0055852D01*
X0624293Y0056076D01*
X0624401Y0056296D01*
X0624514Y0056514D01*
X0624632Y0056729D01*
X0624756Y0056941D01*
X0624884Y0057150D01*
X0625018Y0057356D01*
X0625157Y0057558D01*
X0625301Y0057757D01*
X0625450Y0057952D01*
X0625603Y0058144D01*
X0625761Y0058332D01*
X0625923Y0058516D01*
X0626091Y0058695D01*
X0626262Y0058871D01*
X0626438Y0059042D01*
X0626617Y0059210D01*
X0626801Y0059372D01*
X0626989Y0059530D01*
X0627181Y0059683D01*
X0627376Y0059832D01*
X0627575Y0059976D01*
X0627777Y0060115D01*
X0627983Y0060249D01*
X0628192Y0060377D01*
X0628404Y0060501D01*
X0628619Y0060619D01*
X0628837Y0060732D01*
X0629057Y0060840D01*
X0629281Y0060942D01*
X0629506Y0061039D01*
X0629734Y0061130D01*
X0629964Y0061215D01*
X0630196Y0061295D01*
X0630430Y0061369D01*
X0630666Y0061438D01*
X0630903Y0061500D01*
X0631142Y0061557D01*
X0631382Y0061608D01*
X0631623Y0061653D01*
X0631866Y0061692D01*
X0632109Y0061725D01*
X0632353Y0061752D01*
X0632597Y0061773D01*
X0632842Y0061788D01*
X0633088Y0061797D01*
X0633333Y0061800D01*
X0633578Y0061797D01*
X0633824Y0061788D01*
X0634069Y0061773D01*
X0634313Y0061752D01*
X0634557Y0061725D01*
X0634800Y0061692D01*
X0635043Y0061653D01*
X0635284Y0061608D01*
X0635524Y0061557D01*
X0635763Y0061500D01*
X0636000Y0061438D01*
X0636236Y0061369D01*
X0636470Y0061295D01*
X0636702Y0061215D01*
X0636932Y0061130D01*
X0637160Y0061039D01*
X0637385Y0060942D01*
X0637609Y0060840D01*
X0637829Y0060732D01*
X0638047Y0060619D01*
X0638262Y0060501D01*
X0638474Y0060377D01*
X0638683Y0060249D01*
X0638889Y0060115D01*
X0639091Y0059976D01*
X0639290Y0059832D01*
X0639485Y0059683D01*
X0639677Y0059530D01*
X0639865Y0059372D01*
X0640049Y0059210D01*
X0640228Y0059042D01*
X0640404Y0058871D01*
X0640575Y0058695D01*
X0640743Y0058516D01*
X0640905Y0058332D01*
X0641063Y0058144D01*
X0641216Y0057952D01*
X0641365Y0057757D01*
X0641509Y0057558D01*
X0641648Y0057356D01*
X0641782Y0057150D01*
X0641910Y0056941D01*
X0642034Y0056729D01*
X0642152Y0056514D01*
X0642265Y0056296D01*
X0642373Y0056076D01*
X0642475Y0055852D01*
X0642572Y0055627D01*
X0642663Y0055399D01*
X0642748Y0055169D01*
X0642828Y0054937D01*
X0642902Y0054703D01*
X0642971Y0054467D01*
X0643033Y0054230D01*
X0643090Y0053991D01*
X0643141Y0053751D01*
X0643186Y0053510D01*
X0643225Y0053267D01*
X0643258Y0053024D01*
X0643285Y0052780D01*
X0643306Y0052536D01*
X0643321Y0052291D01*
X0643330Y0052045D01*
X0643333Y0051800D01*
X0643330Y0051555D01*
X0643321Y0051309D01*
X0643306Y0051064D01*
X0643285Y0050820D01*
X0643258Y0050576D01*
X0643225Y0050333D01*
X0643186Y0050090D01*
X0643141Y0049849D01*
X0643090Y0049609D01*
X0643033Y0049370D01*
X0642971Y0049133D01*
X0642902Y0048897D01*
X0642828Y0048663D01*
X0642748Y0048431D01*
X0642663Y0048201D01*
X0642572Y0047973D01*
X0642475Y0047748D01*
X0642373Y0047524D01*
X0642265Y0047304D01*
X0642152Y0047086D01*
X0642034Y0046871D01*
X0641910Y0046659D01*
X0641782Y0046450D01*
X0641648Y0046244D01*
X0641509Y0046042D01*
X0641365Y0045843D01*
X0641216Y0045648D01*
X0641063Y0045456D01*
X0640905Y0045268D01*
X0640743Y0045084D01*
X0640575Y0044905D01*
X0640404Y0044729D01*
X0640228Y0044558D01*
X0640049Y0044390D01*
X0639865Y0044228D01*
X0639677Y0044070D01*
X0639485Y0043917D01*
X0639290Y0043768D01*
X0639091Y0043624D01*
X0638889Y0043485D01*
X0638683Y0043351D01*
X0638474Y0043223D01*
X0638262Y0043099D01*
X0638047Y0042981D01*
X0637829Y0042868D01*
X0637609Y0042760D01*
X0637385Y0042658D01*
X0637160Y0042561D01*
X0636932Y0042470D01*
X0636702Y0042385D01*
X0636470Y0042305D01*
X0636236Y0042231D01*
X0636000Y0042162D01*
X0635763Y0042100D01*
X0635524Y0042043D01*
X0635284Y0041992D01*
X0635043Y0041947D01*
X0634800Y0041908D01*
X0634557Y0041875D01*
X0634313Y0041848D01*
X0634069Y0041827D01*
X0633824Y0041812D01*
X0633578Y0041803D01*
X0633333Y0041800D01*
X0633088Y0041803D01*
X0632842Y0041812D01*
X0632597Y0041827D01*
X0632353Y0041848D01*
X0632109Y0041875D01*
X0631866Y0041908D01*
X0631623Y0041947D01*
X0631382Y0041992D01*
X0631142Y0042043D01*
X0630903Y0042100D01*
X0630666Y0042162D01*
X0630430Y0042231D01*
X0630196Y0042305D01*
X0629964Y0042385D01*
X0629734Y0042470D01*
X0629506Y0042561D01*
X0629281Y0042658D01*
X0629057Y0042760D01*
X0628837Y0042868D01*
X0628619Y0042981D01*
X0628404Y0043099D01*
X0628192Y0043223D01*
X0627983Y0043351D01*
X0627777Y0043485D01*
X0627575Y0043624D01*
X0627376Y0043768D01*
X0627181Y0043917D01*
X0626989Y0044070D01*
X0626801Y0044228D01*
X0626617Y0044390D01*
X0626438Y0044558D01*
X0626262Y0044729D01*
X0626091Y0044905D01*
X0625923Y0045084D01*
X0625761Y0045268D01*
X0625603Y0045456D01*
X0625450Y0045648D01*
X0625301Y0045843D01*
X0625157Y0046042D01*
X0625018Y0046244D01*
X0624884Y0046450D01*
X0624756Y0046659D01*
X0624632Y0046871D01*
X0624514Y0047086D01*
X0624401Y0047304D01*
X0624293Y0047524D01*
X0624191Y0047748D01*
X0624094Y0047973D01*
X0624003Y0048201D01*
X0623918Y0048431D01*
X0623838Y0048663D01*
X0623764Y0048897D01*
X0623695Y0049133D01*
X0623633Y0049370D01*
X0623576Y0049609D01*
X0623525Y0049849D01*
X0623480Y0050090D01*
X0623441Y0050333D01*
X0623408Y0050576D01*
X0623381Y0050820D01*
X0623360Y0051064D01*
X0623345Y0051309D01*
X0623336Y0051555D01*
X0623333Y0051800D01*
D13*
X0718333Y0131800D02*
X0718333Y0176800D01*
X0733333Y0176800D01*
X0733333Y0131800D01*
X0718333Y0131800D01*
D14*
X0585833Y0106800D02*
X0583333Y0109300D01*
X0583333Y0114300D01*
X0585833Y0116800D01*
X0583333Y0119300D01*
X0583333Y0124300D01*
X0585833Y0126800D01*
X0583333Y0129300D01*
X0583333Y0134300D01*
X0585833Y0136800D01*
X0583333Y0139300D01*
X0583333Y0144300D01*
X0585833Y0146800D01*
X0583333Y0149300D01*
X0583333Y0154300D01*
X0585833Y0156800D01*
X0583333Y0159300D01*
X0583333Y0164300D01*
X0585833Y0166800D01*
X0583333Y0169300D01*
X0583333Y0174300D01*
X0585833Y0176800D01*
X0583333Y0179300D01*
X0583333Y0184300D01*
X0585833Y0186800D01*
X0590833Y0186800D01*
X0593333Y0184300D01*
X0593333Y0179300D01*
X0590833Y0176800D01*
X0593333Y0174300D01*
X0593333Y0169300D01*
X0590833Y0166800D01*
X0593333Y0164300D01*
X0593333Y0159300D01*
X0590833Y0156800D01*
X0593333Y0154300D01*
X0593333Y0149300D01*
X0590833Y0146800D01*
X0593333Y0144300D01*
X0593333Y0139300D01*
X0590833Y0136800D01*
X0593333Y0134300D01*
X0593333Y0129300D01*
X0590833Y0126800D01*
X0593333Y0124300D01*
X0593333Y0119300D01*
X0590833Y0116800D01*
X0593333Y0114300D01*
X0593333Y0109300D01*
X0590833Y0106800D01*
X0585833Y0106800D01*
X0620932Y0107076D02*
X0620932Y0116524D01*
X0645735Y0116524D01*
X0645735Y0107076D01*
X0620932Y0107076D01*
X0643333Y0099300D02*
X0643333Y0084300D01*
X0645735Y0076524D02*
X0620932Y0076524D01*
X0620932Y0067076D01*
X0645735Y0067076D01*
X0645735Y0076524D01*
X0598058Y0084202D02*
X0598058Y0059398D01*
X0588609Y0059398D01*
X0588609Y0084202D01*
X0598058Y0084202D01*
X0643333Y0059300D02*
X0643333Y0044300D01*
X0645735Y0036524D02*
X0620932Y0036524D01*
X0620932Y0027076D01*
X0645735Y0027076D01*
X0645735Y0036524D01*
X0678333Y0039300D02*
X0680833Y0041800D01*
X0685833Y0041800D01*
X0688333Y0039300D01*
X0688333Y0024300D01*
X0690833Y0021800D01*
X0695833Y0021800D01*
X0698333Y0024300D01*
X0698333Y0039300D01*
X0700833Y0041800D01*
X0705833Y0041800D01*
X0708333Y0039300D01*
X0708333Y0024300D01*
X0705833Y0021800D01*
X0700833Y0021800D01*
X0698333Y0024300D01*
X0688333Y0024300D02*
X0685833Y0021800D01*
X0680833Y0021800D01*
X0678333Y0024300D01*
X0678333Y0039300D01*
X0688333Y0039300D02*
X0690833Y0041800D01*
X0695833Y0041800D01*
X0698333Y0039300D01*
X0734396Y0044083D02*
X0734396Y0052351D01*
X0734396Y0044083D02*
X0776522Y0044083D01*
X0776522Y0079517D01*
X0755656Y0079517D01*
X0737152Y0079517D02*
X0734396Y0079517D01*
X0734396Y0071249D01*
X0593333Y0034300D02*
X0593333Y0029300D01*
X0633333Y0019300D02*
X0633333Y0014300D01*
X0680833Y0020481D02*
X0685833Y0020481D01*
X0755833Y0126800D02*
X0760833Y0126800D01*
X0763333Y0129300D01*
X0763333Y0134300D01*
X0760833Y0136800D01*
X0763333Y0139300D01*
X0763333Y0144300D01*
X0760833Y0146800D01*
X0763333Y0149300D01*
X0763333Y0154300D01*
X0760833Y0156800D01*
X0763333Y0159300D01*
X0763333Y0164300D01*
X0760833Y0166800D01*
X0763333Y0169300D01*
X0763333Y0174300D01*
X0760833Y0176800D01*
X0763333Y0179300D01*
X0763333Y0184300D01*
X0760833Y0186800D01*
X0755833Y0186800D01*
X0753333Y0184300D01*
X0753333Y0179300D01*
X0755833Y0176800D01*
X0753333Y0174300D01*
X0753333Y0169300D01*
X0755833Y0166800D01*
X0753333Y0164300D01*
X0753333Y0159300D01*
X0755833Y0156800D01*
X0753333Y0154300D01*
X0753333Y0149300D01*
X0755833Y0146800D01*
X0753333Y0144300D01*
X0753333Y0139300D01*
X0755833Y0136800D01*
X0753333Y0134300D01*
X0753333Y0129300D01*
X0755833Y0126800D01*
X0643333Y0129300D02*
X0643333Y0144300D01*
D15*
X0643662Y0144609D02*
X0642942Y0144069D01*
X0642943Y0144070D02*
X0642762Y0144303D01*
X0642576Y0144531D01*
X0642384Y0144755D01*
X0642187Y0144974D01*
X0641985Y0145188D01*
X0641777Y0145397D01*
X0641564Y0145600D01*
X0641347Y0145799D01*
X0641124Y0145992D01*
X0640897Y0146180D01*
X0640666Y0146362D01*
X0640430Y0146539D01*
X0640189Y0146709D01*
X0639945Y0146874D01*
X0639697Y0147032D01*
X0639445Y0147185D01*
X0639189Y0147331D01*
X0638930Y0147471D01*
X0638667Y0147605D01*
X0638402Y0147732D01*
X0638133Y0147853D01*
X0637861Y0147967D01*
X0637587Y0148074D01*
X0637310Y0148175D01*
X0637031Y0148269D01*
X0636749Y0148356D01*
X0636466Y0148436D01*
X0636180Y0148509D01*
X0635893Y0148575D01*
X0635604Y0148634D01*
X0635314Y0148686D01*
X0635023Y0148731D01*
X0634731Y0148769D01*
X0634438Y0148799D01*
X0634144Y0148823D01*
X0633850Y0148839D01*
X0633556Y0148848D01*
X0633261Y0148850D01*
X0632966Y0148844D01*
X0632672Y0148832D01*
X0632378Y0148812D01*
X0632085Y0148785D01*
X0631792Y0148751D01*
X0631500Y0148710D01*
X0631210Y0148661D01*
X0630920Y0148606D01*
X0630633Y0148544D01*
X0630346Y0148474D01*
X0630062Y0148397D01*
X0629779Y0148314D01*
X0629499Y0148224D01*
X0629221Y0148127D01*
X0628945Y0148023D01*
X0628672Y0147912D01*
X0628402Y0147795D01*
X0628134Y0147671D01*
X0627870Y0147541D01*
X0627609Y0147404D01*
X0627352Y0147261D01*
X0627098Y0147111D01*
X0626847Y0146956D01*
X0626601Y0146794D01*
X0626359Y0146627D01*
X0626121Y0146453D01*
X0625887Y0146274D01*
X0625657Y0146089D01*
X0625433Y0145899D01*
X0625212Y0145703D01*
X0624997Y0145502D01*
X0624787Y0145295D01*
X0624582Y0145084D01*
X0624382Y0144867D01*
X0624187Y0144646D01*
X0623998Y0144420D01*
X0623815Y0144190D01*
X0623637Y0143955D01*
X0623465Y0143715D01*
X0623299Y0143472D01*
X0623139Y0143225D01*
X0622985Y0142974D01*
X0622837Y0142719D01*
X0622695Y0142460D01*
X0622560Y0142199D01*
X0622431Y0141934D01*
X0622309Y0141666D01*
X0622193Y0141395D01*
X0622084Y0141121D01*
X0621982Y0140845D01*
X0621887Y0140566D01*
X0621798Y0140285D01*
X0621716Y0140002D01*
X0621641Y0139717D01*
X0621574Y0139430D01*
X0621513Y0139142D01*
X0621459Y0138852D01*
X0621412Y0138561D01*
X0621373Y0138269D01*
X0621341Y0137977D01*
X0621315Y0137683D01*
X0621297Y0137389D01*
X0621287Y0137095D01*
X0621283Y0136800D01*
X0621287Y0136505D01*
X0621297Y0136211D01*
X0621315Y0135917D01*
X0621341Y0135623D01*
X0621373Y0135331D01*
X0621412Y0135039D01*
X0621459Y0134748D01*
X0621513Y0134458D01*
X0621574Y0134170D01*
X0621641Y0133883D01*
X0621716Y0133598D01*
X0621798Y0133315D01*
X0621887Y0133034D01*
X0621982Y0132755D01*
X0622084Y0132479D01*
X0622193Y0132205D01*
X0622309Y0131934D01*
X0622431Y0131666D01*
X0622560Y0131401D01*
X0622695Y0131140D01*
X0622837Y0130881D01*
X0622985Y0130626D01*
X0623139Y0130375D01*
X0623299Y0130128D01*
X0623465Y0129885D01*
X0623637Y0129645D01*
X0623815Y0129410D01*
X0623998Y0129180D01*
X0624187Y0128954D01*
X0624382Y0128733D01*
X0624582Y0128516D01*
X0624787Y0128305D01*
X0624997Y0128098D01*
X0625212Y0127897D01*
X0625433Y0127701D01*
X0625657Y0127511D01*
X0625887Y0127326D01*
X0626121Y0127147D01*
X0626359Y0126973D01*
X0626601Y0126806D01*
X0626847Y0126644D01*
X0627098Y0126489D01*
X0627352Y0126339D01*
X0627609Y0126196D01*
X0627870Y0126059D01*
X0628134Y0125929D01*
X0628402Y0125805D01*
X0628672Y0125688D01*
X0628945Y0125577D01*
X0629221Y0125473D01*
X0629499Y0125376D01*
X0629779Y0125286D01*
X0630062Y0125203D01*
X0630346Y0125126D01*
X0630633Y0125056D01*
X0630920Y0124994D01*
X0631210Y0124939D01*
X0631500Y0124890D01*
X0631792Y0124849D01*
X0632085Y0124815D01*
X0632378Y0124788D01*
X0632672Y0124768D01*
X0632966Y0124756D01*
X0633261Y0124750D01*
X0633556Y0124752D01*
X0633850Y0124761D01*
X0634144Y0124777D01*
X0634438Y0124801D01*
X0634731Y0124831D01*
X0635023Y0124869D01*
X0635314Y0124914D01*
X0635604Y0124966D01*
X0635893Y0125025D01*
X0636180Y0125091D01*
X0636466Y0125164D01*
X0636749Y0125244D01*
X0637031Y0125331D01*
X0637310Y0125425D01*
X0637587Y0125526D01*
X0637861Y0125633D01*
X0638133Y0125747D01*
X0638402Y0125868D01*
X0638667Y0125995D01*
X0638930Y0126129D01*
X0639189Y0126269D01*
X0639445Y0126415D01*
X0639697Y0126568D01*
X0639945Y0126726D01*
X0640189Y0126891D01*
X0640430Y0127061D01*
X0640666Y0127238D01*
X0640897Y0127420D01*
X0641124Y0127608D01*
X0641347Y0127801D01*
X0641564Y0128000D01*
X0641777Y0128203D01*
X0641985Y0128412D01*
X0642187Y0128626D01*
X0642384Y0128845D01*
X0642576Y0129069D01*
X0642762Y0129297D01*
X0642943Y0129530D01*
X0643662Y0128991D01*
X0643663Y0128990D01*
X0643469Y0128740D01*
X0643269Y0128494D01*
X0643063Y0128254D01*
X0642851Y0128019D01*
X0642633Y0127789D01*
X0642410Y0127564D01*
X0642182Y0127345D01*
X0641948Y0127131D01*
X0641709Y0126923D01*
X0641465Y0126721D01*
X0641216Y0126526D01*
X0640962Y0126336D01*
X0640704Y0126153D01*
X0640442Y0125976D01*
X0640175Y0125805D01*
X0639904Y0125641D01*
X0639629Y0125484D01*
X0639351Y0125333D01*
X0639068Y0125189D01*
X0638783Y0125053D01*
X0638494Y0124923D01*
X0638202Y0124800D01*
X0637907Y0124685D01*
X0637610Y0124577D01*
X0637309Y0124476D01*
X0637007Y0124382D01*
X0636702Y0124296D01*
X0636395Y0124217D01*
X0636087Y0124146D01*
X0635777Y0124083D01*
X0635465Y0124027D01*
X0635152Y0123978D01*
X0634838Y0123938D01*
X0634523Y0123905D01*
X0634207Y0123880D01*
X0633891Y0123862D01*
X0633575Y0123852D01*
X0633258Y0123850D01*
X0632941Y0123856D01*
X0632625Y0123869D01*
X0632309Y0123891D01*
X0631994Y0123919D01*
X0631679Y0123956D01*
X0631366Y0124000D01*
X0631053Y0124052D01*
X0630742Y0124112D01*
X0630433Y0124179D01*
X0630125Y0124254D01*
X0629819Y0124336D01*
X0629516Y0124425D01*
X0629214Y0124522D01*
X0628915Y0124627D01*
X0628619Y0124739D01*
X0628325Y0124857D01*
X0628035Y0124983D01*
X0627748Y0125116D01*
X0627463Y0125257D01*
X0627183Y0125404D01*
X0626906Y0125557D01*
X0626633Y0125718D01*
X0626364Y0125885D01*
X0626099Y0126059D01*
X0625839Y0126239D01*
X0625583Y0126425D01*
X0625332Y0126618D01*
X0625085Y0126816D01*
X0624843Y0127021D01*
X0624607Y0127231D01*
X0624375Y0127448D01*
X0624150Y0127670D01*
X0623929Y0127897D01*
X0623714Y0128129D01*
X0623505Y0128367D01*
X0623302Y0128610D01*
X0623104Y0128858D01*
X0622913Y0129110D01*
X0622728Y0129367D01*
X0622550Y0129629D01*
X0622378Y0129895D01*
X0622212Y0130164D01*
X0622053Y0130438D01*
X0621901Y0130716D01*
X0621756Y0130997D01*
X0621617Y0131282D01*
X0621486Y0131570D01*
X0621362Y0131862D01*
X0621244Y0132156D01*
X0621134Y0132453D01*
X0621032Y0132752D01*
X0620937Y0133054D01*
X0620849Y0133358D01*
X0620768Y0133665D01*
X0620695Y0133973D01*
X0620630Y0134283D01*
X0620572Y0134594D01*
X0620522Y0134907D01*
X0620480Y0135221D01*
X0620445Y0135535D01*
X0620418Y0135851D01*
X0620398Y0136167D01*
X0620387Y0136483D01*
X0620383Y0136800D01*
X0620387Y0137117D01*
X0620398Y0137433D01*
X0620418Y0137749D01*
X0620445Y0138065D01*
X0620480Y0138379D01*
X0620522Y0138693D01*
X0620572Y0139006D01*
X0620630Y0139317D01*
X0620695Y0139627D01*
X0620768Y0139935D01*
X0620849Y0140242D01*
X0620937Y0140546D01*
X0621032Y0140848D01*
X0621134Y0141147D01*
X0621244Y0141444D01*
X0621362Y0141738D01*
X0621486Y0142030D01*
X0621617Y0142318D01*
X0621756Y0142603D01*
X0621901Y0142884D01*
X0622053Y0143162D01*
X0622212Y0143436D01*
X0622378Y0143705D01*
X0622550Y0143971D01*
X0622728Y0144233D01*
X0622913Y0144490D01*
X0623104Y0144742D01*
X0623302Y0144990D01*
X0623505Y0145233D01*
X0623714Y0145471D01*
X0623929Y0145703D01*
X0624150Y0145930D01*
X0624375Y0146152D01*
X0624607Y0146369D01*
X0624843Y0146579D01*
X0625085Y0146784D01*
X0625332Y0146982D01*
X0625583Y0147175D01*
X0625839Y0147361D01*
X0626099Y0147541D01*
X0626364Y0147715D01*
X0626633Y0147882D01*
X0626906Y0148043D01*
X0627183Y0148196D01*
X0627463Y0148343D01*
X0627748Y0148484D01*
X0628035Y0148617D01*
X0628325Y0148743D01*
X0628619Y0148861D01*
X0628915Y0148973D01*
X0629214Y0149078D01*
X0629516Y0149175D01*
X0629819Y0149264D01*
X0630125Y0149346D01*
X0630433Y0149421D01*
X0630742Y0149488D01*
X0631053Y0149548D01*
X0631366Y0149600D01*
X0631679Y0149644D01*
X0631994Y0149681D01*
X0632309Y0149709D01*
X0632625Y0149731D01*
X0632941Y0149744D01*
X0633258Y0149750D01*
X0633575Y0149748D01*
X0633891Y0149738D01*
X0634207Y0149720D01*
X0634523Y0149695D01*
X0634838Y0149662D01*
X0635152Y0149622D01*
X0635465Y0149573D01*
X0635777Y0149517D01*
X0636087Y0149454D01*
X0636395Y0149383D01*
X0636702Y0149304D01*
X0637007Y0149218D01*
X0637309Y0149124D01*
X0637610Y0149023D01*
X0637907Y0148915D01*
X0638202Y0148800D01*
X0638494Y0148677D01*
X0638783Y0148547D01*
X0639068Y0148411D01*
X0639351Y0148267D01*
X0639629Y0148116D01*
X0639904Y0147959D01*
X0640175Y0147795D01*
X0640442Y0147624D01*
X0640704Y0147447D01*
X0640962Y0147264D01*
X0641216Y0147074D01*
X0641465Y0146879D01*
X0641709Y0146677D01*
X0641948Y0146469D01*
X0642182Y0146255D01*
X0642410Y0146036D01*
X0642633Y0145811D01*
X0642851Y0145581D01*
X0643063Y0145346D01*
X0643269Y0145106D01*
X0643469Y0144860D01*
X0643663Y0144610D01*
X0643588Y0144554D01*
X0643395Y0144802D01*
X0643196Y0145046D01*
X0642992Y0145284D01*
X0642782Y0145518D01*
X0642566Y0145746D01*
X0642344Y0145969D01*
X0642117Y0146187D01*
X0641885Y0146399D01*
X0641648Y0146605D01*
X0641406Y0146806D01*
X0641158Y0147000D01*
X0640907Y0147188D01*
X0640650Y0147370D01*
X0640390Y0147546D01*
X0640125Y0147715D01*
X0639856Y0147878D01*
X0639583Y0148034D01*
X0639307Y0148184D01*
X0639027Y0148326D01*
X0638743Y0148462D01*
X0638456Y0148591D01*
X0638166Y0148713D01*
X0637874Y0148827D01*
X0637578Y0148935D01*
X0637280Y0149035D01*
X0636980Y0149128D01*
X0636677Y0149213D01*
X0636373Y0149291D01*
X0636067Y0149362D01*
X0635759Y0149425D01*
X0635449Y0149481D01*
X0635139Y0149529D01*
X0634827Y0149569D01*
X0634514Y0149602D01*
X0634201Y0149627D01*
X0633887Y0149644D01*
X0633573Y0149654D01*
X0633258Y0149656D01*
X0632944Y0149650D01*
X0632630Y0149637D01*
X0632316Y0149616D01*
X0632003Y0149587D01*
X0631691Y0149551D01*
X0631380Y0149507D01*
X0631070Y0149455D01*
X0630761Y0149396D01*
X0630454Y0149329D01*
X0630148Y0149255D01*
X0629845Y0149174D01*
X0629543Y0149085D01*
X0629244Y0148988D01*
X0628947Y0148885D01*
X0628653Y0148774D01*
X0628362Y0148656D01*
X0628073Y0148531D01*
X0627788Y0148399D01*
X0627506Y0148260D01*
X0627228Y0148114D01*
X0626953Y0147961D01*
X0626682Y0147802D01*
X0626415Y0147636D01*
X0626152Y0147463D01*
X0625893Y0147285D01*
X0625639Y0147100D01*
X0625390Y0146908D01*
X0625145Y0146711D01*
X0624905Y0146508D01*
X0624670Y0146299D01*
X0624440Y0146084D01*
X0624216Y0145864D01*
X0623997Y0145639D01*
X0623784Y0145408D01*
X0623576Y0145172D01*
X0623374Y0144930D01*
X0623179Y0144685D01*
X0622989Y0144434D01*
X0622805Y0144179D01*
X0622628Y0143919D01*
X0622457Y0143655D01*
X0622293Y0143387D01*
X0622135Y0143115D01*
X0621984Y0142840D01*
X0621840Y0142560D01*
X0621702Y0142278D01*
X0621572Y0141992D01*
X0621448Y0141703D01*
X0621332Y0141410D01*
X0621223Y0141116D01*
X0621121Y0140818D01*
X0621027Y0140519D01*
X0620939Y0140216D01*
X0620859Y0139912D01*
X0620787Y0139607D01*
X0620722Y0139299D01*
X0620665Y0138990D01*
X0620615Y0138679D01*
X0620573Y0138368D01*
X0620538Y0138055D01*
X0620512Y0137742D01*
X0620492Y0137428D01*
X0620481Y0137114D01*
X0620477Y0136800D01*
X0620481Y0136486D01*
X0620492Y0136172D01*
X0620512Y0135858D01*
X0620538Y0135545D01*
X0620573Y0135232D01*
X0620615Y0134921D01*
X0620665Y0134610D01*
X0620722Y0134301D01*
X0620787Y0133993D01*
X0620859Y0133688D01*
X0620939Y0133384D01*
X0621027Y0133081D01*
X0621121Y0132782D01*
X0621223Y0132484D01*
X0621332Y0132190D01*
X0621448Y0131897D01*
X0621572Y0131608D01*
X0621702Y0131322D01*
X0621840Y0131040D01*
X0621984Y0130760D01*
X0622135Y0130485D01*
X0622293Y0130213D01*
X0622457Y0129945D01*
X0622628Y0129681D01*
X0622805Y0129421D01*
X0622989Y0129166D01*
X0623179Y0128915D01*
X0623374Y0128670D01*
X0623576Y0128428D01*
X0623784Y0128192D01*
X0623997Y0127961D01*
X0624216Y0127736D01*
X0624440Y0127516D01*
X0624670Y0127301D01*
X0624905Y0127092D01*
X0625145Y0126889D01*
X0625390Y0126692D01*
X0625639Y0126500D01*
X0625893Y0126315D01*
X0626152Y0126137D01*
X0626415Y0125964D01*
X0626682Y0125798D01*
X0626953Y0125639D01*
X0627228Y0125486D01*
X0627506Y0125340D01*
X0627788Y0125201D01*
X0628073Y0125069D01*
X0628362Y0124944D01*
X0628653Y0124826D01*
X0628947Y0124715D01*
X0629244Y0124612D01*
X0629543Y0124515D01*
X0629845Y0124426D01*
X0630148Y0124345D01*
X0630454Y0124271D01*
X0630761Y0124204D01*
X0631070Y0124145D01*
X0631380Y0124093D01*
X0631691Y0124049D01*
X0632003Y0124013D01*
X0632316Y0123984D01*
X0632630Y0123963D01*
X0632944Y0123950D01*
X0633258Y0123944D01*
X0633573Y0123946D01*
X0633887Y0123956D01*
X0634201Y0123973D01*
X0634514Y0123998D01*
X0634827Y0124031D01*
X0635139Y0124071D01*
X0635449Y0124119D01*
X0635759Y0124175D01*
X0636067Y0124238D01*
X0636373Y0124309D01*
X0636677Y0124387D01*
X0636980Y0124472D01*
X0637280Y0124565D01*
X0637578Y0124665D01*
X0637874Y0124773D01*
X0638166Y0124887D01*
X0638456Y0125009D01*
X0638743Y0125138D01*
X0639027Y0125274D01*
X0639307Y0125416D01*
X0639583Y0125566D01*
X0639856Y0125722D01*
X0640125Y0125885D01*
X0640390Y0126054D01*
X0640650Y0126230D01*
X0640907Y0126412D01*
X0641158Y0126600D01*
X0641406Y0126794D01*
X0641648Y0126995D01*
X0641885Y0127201D01*
X0642117Y0127413D01*
X0642344Y0127631D01*
X0642566Y0127854D01*
X0642782Y0128082D01*
X0642992Y0128316D01*
X0643196Y0128554D01*
X0643395Y0128798D01*
X0643588Y0129046D01*
X0643513Y0129103D01*
X0643321Y0128856D01*
X0643124Y0128614D01*
X0642921Y0128377D01*
X0642712Y0128146D01*
X0642498Y0127919D01*
X0642278Y0127697D01*
X0642053Y0127481D01*
X0641822Y0127271D01*
X0641587Y0127066D01*
X0641346Y0126867D01*
X0641101Y0126674D01*
X0640851Y0126488D01*
X0640597Y0126307D01*
X0640338Y0126132D01*
X0640075Y0125964D01*
X0639808Y0125803D01*
X0639537Y0125648D01*
X0639263Y0125499D01*
X0638985Y0125358D01*
X0638703Y0125223D01*
X0638419Y0125095D01*
X0638131Y0124974D01*
X0637840Y0124860D01*
X0637547Y0124754D01*
X0637251Y0124654D01*
X0636953Y0124562D01*
X0636653Y0124477D01*
X0636350Y0124400D01*
X0636046Y0124330D01*
X0635741Y0124267D01*
X0635434Y0124212D01*
X0635125Y0124164D01*
X0634816Y0124124D01*
X0634505Y0124092D01*
X0634194Y0124067D01*
X0633883Y0124050D01*
X0633571Y0124040D01*
X0633259Y0124038D01*
X0632947Y0124044D01*
X0632635Y0124057D01*
X0632324Y0124078D01*
X0632013Y0124106D01*
X0631703Y0124143D01*
X0631394Y0124186D01*
X0631086Y0124237D01*
X0630779Y0124296D01*
X0630475Y0124362D01*
X0630171Y0124436D01*
X0629870Y0124517D01*
X0629571Y0124605D01*
X0629274Y0124701D01*
X0628979Y0124804D01*
X0628687Y0124914D01*
X0628398Y0125031D01*
X0628111Y0125155D01*
X0627828Y0125286D01*
X0627548Y0125424D01*
X0627272Y0125569D01*
X0626999Y0125721D01*
X0626730Y0125879D01*
X0626465Y0126044D01*
X0626204Y0126215D01*
X0625948Y0126392D01*
X0625695Y0126576D01*
X0625448Y0126766D01*
X0625205Y0126961D01*
X0624966Y0127163D01*
X0624733Y0127371D01*
X0624505Y0127584D01*
X0624283Y0127802D01*
X0624065Y0128026D01*
X0623854Y0128255D01*
X0623648Y0128490D01*
X0623447Y0128729D01*
X0623253Y0128973D01*
X0623065Y0129222D01*
X0622882Y0129475D01*
X0622706Y0129733D01*
X0622537Y0129995D01*
X0622374Y0130261D01*
X0622217Y0130531D01*
X0622067Y0130805D01*
X0621924Y0131082D01*
X0621787Y0131362D01*
X0621658Y0131646D01*
X0621535Y0131933D01*
X0621420Y0132223D01*
X0621312Y0132516D01*
X0621210Y0132811D01*
X0621116Y0133109D01*
X0621030Y0133409D01*
X0620951Y0133710D01*
X0620879Y0134014D01*
X0620814Y0134319D01*
X0620757Y0134626D01*
X0620708Y0134934D01*
X0620666Y0135244D01*
X0620632Y0135554D01*
X0620605Y0135865D01*
X0620586Y0136176D01*
X0620575Y0136488D01*
X0620571Y0136800D01*
X0620575Y0137112D01*
X0620586Y0137424D01*
X0620605Y0137735D01*
X0620632Y0138046D01*
X0620666Y0138356D01*
X0620708Y0138666D01*
X0620757Y0138974D01*
X0620814Y0139281D01*
X0620879Y0139586D01*
X0620951Y0139890D01*
X0621030Y0140191D01*
X0621116Y0140491D01*
X0621210Y0140789D01*
X0621312Y0141084D01*
X0621420Y0141377D01*
X0621535Y0141667D01*
X0621658Y0141954D01*
X0621787Y0142238D01*
X0621924Y0142518D01*
X0622067Y0142795D01*
X0622217Y0143069D01*
X0622374Y0143339D01*
X0622537Y0143605D01*
X0622706Y0143867D01*
X0622882Y0144125D01*
X0623065Y0144378D01*
X0623253Y0144627D01*
X0623447Y0144871D01*
X0623648Y0145110D01*
X0623854Y0145345D01*
X0624065Y0145574D01*
X0624283Y0145798D01*
X0624505Y0146016D01*
X0624733Y0146229D01*
X0624966Y0146437D01*
X0625205Y0146639D01*
X0625448Y0146834D01*
X0625695Y0147024D01*
X0625948Y0147208D01*
X0626204Y0147385D01*
X0626465Y0147556D01*
X0626730Y0147721D01*
X0626999Y0147879D01*
X0627272Y0148031D01*
X0627548Y0148176D01*
X0627828Y0148314D01*
X0628111Y0148445D01*
X0628398Y0148569D01*
X0628687Y0148686D01*
X0628979Y0148796D01*
X0629274Y0148899D01*
X0629571Y0148995D01*
X0629870Y0149083D01*
X0630171Y0149164D01*
X0630475Y0149238D01*
X0630779Y0149304D01*
X0631086Y0149363D01*
X0631394Y0149414D01*
X0631703Y0149457D01*
X0632013Y0149494D01*
X0632324Y0149522D01*
X0632635Y0149543D01*
X0632947Y0149556D01*
X0633259Y0149562D01*
X0633571Y0149560D01*
X0633883Y0149550D01*
X0634194Y0149533D01*
X0634505Y0149508D01*
X0634816Y0149476D01*
X0635125Y0149436D01*
X0635434Y0149388D01*
X0635741Y0149333D01*
X0636046Y0149270D01*
X0636350Y0149200D01*
X0636653Y0149123D01*
X0636953Y0149038D01*
X0637251Y0148946D01*
X0637547Y0148846D01*
X0637840Y0148740D01*
X0638131Y0148626D01*
X0638419Y0148505D01*
X0638703Y0148377D01*
X0638985Y0148242D01*
X0639263Y0148101D01*
X0639537Y0147952D01*
X0639808Y0147797D01*
X0640075Y0147636D01*
X0640338Y0147468D01*
X0640597Y0147293D01*
X0640851Y0147112D01*
X0641101Y0146926D01*
X0641346Y0146733D01*
X0641587Y0146534D01*
X0641822Y0146329D01*
X0642053Y0146119D01*
X0642278Y0145903D01*
X0642498Y0145681D01*
X0642712Y0145454D01*
X0642921Y0145223D01*
X0643124Y0144986D01*
X0643321Y0144744D01*
X0643513Y0144497D01*
X0643437Y0144441D01*
X0643247Y0144686D01*
X0643052Y0144926D01*
X0642850Y0145161D01*
X0642643Y0145391D01*
X0642430Y0145616D01*
X0642212Y0145836D01*
X0641988Y0146050D01*
X0641759Y0146259D01*
X0641526Y0146462D01*
X0641287Y0146660D01*
X0641044Y0146851D01*
X0640795Y0147037D01*
X0640543Y0147216D01*
X0640286Y0147389D01*
X0640025Y0147556D01*
X0639760Y0147717D01*
X0639491Y0147870D01*
X0639219Y0148018D01*
X0638943Y0148158D01*
X0638663Y0148292D01*
X0638381Y0148419D01*
X0638095Y0148539D01*
X0637807Y0148652D01*
X0637516Y0148758D01*
X0637222Y0148856D01*
X0636926Y0148948D01*
X0636628Y0149032D01*
X0636328Y0149109D01*
X0636026Y0149178D01*
X0635723Y0149241D01*
X0635418Y0149295D01*
X0635112Y0149343D01*
X0634804Y0149382D01*
X0634496Y0149414D01*
X0634188Y0149439D01*
X0633878Y0149456D01*
X0633569Y0149466D01*
X0633259Y0149468D01*
X0632949Y0149462D01*
X0632640Y0149449D01*
X0632331Y0149428D01*
X0632022Y0149400D01*
X0631715Y0149364D01*
X0631408Y0149321D01*
X0631102Y0149270D01*
X0630798Y0149212D01*
X0630495Y0149146D01*
X0630194Y0149073D01*
X0629895Y0148993D01*
X0629598Y0148905D01*
X0629303Y0148810D01*
X0629011Y0148708D01*
X0628721Y0148599D01*
X0628434Y0148482D01*
X0628150Y0148359D01*
X0627869Y0148229D01*
X0627591Y0148092D01*
X0627317Y0147948D01*
X0627046Y0147798D01*
X0626779Y0147641D01*
X0626516Y0147477D01*
X0626257Y0147307D01*
X0626002Y0147131D01*
X0625751Y0146949D01*
X0625506Y0146760D01*
X0625264Y0146566D01*
X0625028Y0146366D01*
X0624797Y0146160D01*
X0624570Y0145948D01*
X0624349Y0145731D01*
X0624134Y0145509D01*
X0623923Y0145282D01*
X0623719Y0145049D01*
X0623520Y0144811D01*
X0623327Y0144569D01*
X0623140Y0144322D01*
X0622959Y0144071D01*
X0622785Y0143815D01*
X0622616Y0143555D01*
X0622454Y0143291D01*
X0622299Y0143023D01*
X0622150Y0142751D01*
X0622008Y0142476D01*
X0621872Y0142197D01*
X0621744Y0141916D01*
X0621622Y0141631D01*
X0621508Y0141343D01*
X0621400Y0141052D01*
X0621300Y0140759D01*
X0621206Y0140464D01*
X0621120Y0140166D01*
X0621042Y0139867D01*
X0620971Y0139565D01*
X0620907Y0139262D01*
X0620850Y0138958D01*
X0620801Y0138652D01*
X0620760Y0138345D01*
X0620726Y0138037D01*
X0620699Y0137728D01*
X0620680Y0137419D01*
X0620669Y0137110D01*
X0620665Y0136800D01*
X0620669Y0136490D01*
X0620680Y0136181D01*
X0620699Y0135872D01*
X0620726Y0135563D01*
X0620760Y0135255D01*
X0620801Y0134948D01*
X0620850Y0134642D01*
X0620907Y0134338D01*
X0620971Y0134035D01*
X0621042Y0133733D01*
X0621120Y0133434D01*
X0621206Y0133136D01*
X0621300Y0132841D01*
X0621400Y0132548D01*
X0621508Y0132257D01*
X0621622Y0131969D01*
X0621744Y0131684D01*
X0621872Y0131403D01*
X0622008Y0131124D01*
X0622150Y0130849D01*
X0622299Y0130577D01*
X0622454Y0130309D01*
X0622616Y0130045D01*
X0622785Y0129785D01*
X0622959Y0129529D01*
X0623140Y0129278D01*
X0623327Y0129031D01*
X0623520Y0128789D01*
X0623719Y0128551D01*
X0623923Y0128318D01*
X0624134Y0128091D01*
X0624349Y0127869D01*
X0624570Y0127652D01*
X0624797Y0127440D01*
X0625028Y0127234D01*
X0625264Y0127034D01*
X0625506Y0126840D01*
X0625751Y0126651D01*
X0626002Y0126469D01*
X0626257Y0126293D01*
X0626516Y0126123D01*
X0626779Y0125959D01*
X0627046Y0125802D01*
X0627317Y0125652D01*
X0627591Y0125508D01*
X0627869Y0125371D01*
X0628150Y0125241D01*
X0628434Y0125118D01*
X0628721Y0125001D01*
X0629011Y0124892D01*
X0629303Y0124790D01*
X0629598Y0124695D01*
X0629895Y0124607D01*
X0630194Y0124527D01*
X0630495Y0124454D01*
X0630798Y0124388D01*
X0631102Y0124330D01*
X0631408Y0124279D01*
X0631715Y0124236D01*
X0632022Y0124200D01*
X0632331Y0124172D01*
X0632640Y0124151D01*
X0632949Y0124138D01*
X0633259Y0124132D01*
X0633569Y0124134D01*
X0633878Y0124144D01*
X0634188Y0124161D01*
X0634496Y0124186D01*
X0634804Y0124218D01*
X0635112Y0124257D01*
X0635418Y0124305D01*
X0635723Y0124359D01*
X0636026Y0124422D01*
X0636328Y0124491D01*
X0636628Y0124568D01*
X0636926Y0124652D01*
X0637222Y0124744D01*
X0637516Y0124842D01*
X0637807Y0124948D01*
X0638095Y0125061D01*
X0638381Y0125181D01*
X0638663Y0125308D01*
X0638943Y0125442D01*
X0639219Y0125582D01*
X0639491Y0125730D01*
X0639760Y0125883D01*
X0640025Y0126044D01*
X0640286Y0126211D01*
X0640543Y0126384D01*
X0640795Y0126563D01*
X0641044Y0126749D01*
X0641287Y0126940D01*
X0641526Y0127138D01*
X0641759Y0127341D01*
X0641988Y0127550D01*
X0642212Y0127764D01*
X0642430Y0127984D01*
X0642643Y0128209D01*
X0642850Y0128439D01*
X0643052Y0128674D01*
X0643247Y0128914D01*
X0643437Y0129159D01*
X0643362Y0129216D01*
X0643174Y0128973D01*
X0642979Y0128734D01*
X0642779Y0128501D01*
X0642574Y0128273D01*
X0642362Y0128049D01*
X0642146Y0127831D01*
X0641924Y0127618D01*
X0641697Y0127411D01*
X0641465Y0127209D01*
X0641228Y0127013D01*
X0640986Y0126823D01*
X0640740Y0126639D01*
X0640489Y0126461D01*
X0640234Y0126289D01*
X0639975Y0126124D01*
X0639712Y0125964D01*
X0639445Y0125812D01*
X0639175Y0125665D01*
X0638901Y0125526D01*
X0638624Y0125393D01*
X0638343Y0125267D01*
X0638060Y0125148D01*
X0637773Y0125036D01*
X0637484Y0124931D01*
X0637193Y0124833D01*
X0636899Y0124742D01*
X0636603Y0124659D01*
X0636306Y0124582D01*
X0636006Y0124513D01*
X0635705Y0124452D01*
X0635402Y0124397D01*
X0635098Y0124351D01*
X0634793Y0124311D01*
X0634488Y0124279D01*
X0634181Y0124255D01*
X0633874Y0124238D01*
X0633567Y0124228D01*
X0633259Y0124226D01*
X0632952Y0124232D01*
X0632645Y0124245D01*
X0632338Y0124265D01*
X0632032Y0124294D01*
X0631726Y0124329D01*
X0631422Y0124372D01*
X0631119Y0124423D01*
X0630817Y0124480D01*
X0630516Y0124546D01*
X0630217Y0124618D01*
X0629921Y0124698D01*
X0629626Y0124785D01*
X0629333Y0124879D01*
X0629043Y0124981D01*
X0628755Y0125089D01*
X0628470Y0125204D01*
X0628188Y0125327D01*
X0627909Y0125456D01*
X0627633Y0125592D01*
X0627361Y0125735D01*
X0627092Y0125884D01*
X0626827Y0126040D01*
X0626566Y0126202D01*
X0626309Y0126371D01*
X0626056Y0126546D01*
X0625808Y0126727D01*
X0625564Y0126914D01*
X0625324Y0127107D01*
X0625090Y0127305D01*
X0624860Y0127510D01*
X0624635Y0127720D01*
X0624416Y0127935D01*
X0624202Y0128156D01*
X0623993Y0128381D01*
X0623790Y0128612D01*
X0623593Y0128848D01*
X0623401Y0129089D01*
X0623216Y0129334D01*
X0623036Y0129583D01*
X0622863Y0129837D01*
X0622696Y0130095D01*
X0622535Y0130357D01*
X0622381Y0130623D01*
X0622233Y0130893D01*
X0622092Y0131166D01*
X0621957Y0131443D01*
X0621830Y0131722D01*
X0621709Y0132005D01*
X0621595Y0132291D01*
X0621489Y0132579D01*
X0621389Y0132870D01*
X0621296Y0133163D01*
X0621211Y0133459D01*
X0621133Y0133756D01*
X0621062Y0134055D01*
X0620999Y0134356D01*
X0620943Y0134658D01*
X0620894Y0134962D01*
X0620853Y0135267D01*
X0620819Y0135572D01*
X0620793Y0135878D01*
X0620774Y0136185D01*
X0620763Y0136493D01*
X0620759Y0136800D01*
X0620763Y0137107D01*
X0620774Y0137415D01*
X0620793Y0137722D01*
X0620819Y0138028D01*
X0620853Y0138333D01*
X0620894Y0138638D01*
X0620943Y0138942D01*
X0620999Y0139244D01*
X0621062Y0139545D01*
X0621133Y0139844D01*
X0621211Y0140141D01*
X0621296Y0140437D01*
X0621389Y0140730D01*
X0621489Y0141021D01*
X0621595Y0141309D01*
X0621709Y0141595D01*
X0621830Y0141878D01*
X0621957Y0142157D01*
X0622092Y0142434D01*
X0622233Y0142707D01*
X0622381Y0142977D01*
X0622535Y0143243D01*
X0622696Y0143505D01*
X0622863Y0143763D01*
X0623036Y0144017D01*
X0623216Y0144266D01*
X0623401Y0144511D01*
X0623593Y0144752D01*
X0623790Y0144988D01*
X0623993Y0145219D01*
X0624202Y0145444D01*
X0624416Y0145665D01*
X0624635Y0145880D01*
X0624860Y0146090D01*
X0625090Y0146295D01*
X0625324Y0146493D01*
X0625564Y0146686D01*
X0625808Y0146873D01*
X0626056Y0147054D01*
X0626309Y0147229D01*
X0626566Y0147398D01*
X0626827Y0147560D01*
X0627092Y0147716D01*
X0627361Y0147865D01*
X0627633Y0148008D01*
X0627909Y0148144D01*
X0628188Y0148273D01*
X0628470Y0148396D01*
X0628755Y0148511D01*
X0629043Y0148619D01*
X0629333Y0148721D01*
X0629626Y0148815D01*
X0629921Y0148902D01*
X0630217Y0148982D01*
X0630516Y0149054D01*
X0630817Y0149120D01*
X0631119Y0149177D01*
X0631422Y0149228D01*
X0631726Y0149271D01*
X0632032Y0149306D01*
X0632338Y0149335D01*
X0632645Y0149355D01*
X0632952Y0149368D01*
X0633259Y0149374D01*
X0633567Y0149372D01*
X0633874Y0149362D01*
X0634181Y0149345D01*
X0634488Y0149321D01*
X0634793Y0149289D01*
X0635098Y0149249D01*
X0635402Y0149203D01*
X0635705Y0149148D01*
X0636006Y0149087D01*
X0636306Y0149018D01*
X0636603Y0148941D01*
X0636899Y0148858D01*
X0637193Y0148767D01*
X0637484Y0148669D01*
X0637773Y0148564D01*
X0638060Y0148452D01*
X0638343Y0148333D01*
X0638624Y0148207D01*
X0638901Y0148074D01*
X0639175Y0147935D01*
X0639445Y0147788D01*
X0639712Y0147636D01*
X0639975Y0147476D01*
X0640234Y0147311D01*
X0640489Y0147139D01*
X0640740Y0146961D01*
X0640986Y0146777D01*
X0641228Y0146587D01*
X0641465Y0146391D01*
X0641697Y0146189D01*
X0641924Y0145982D01*
X0642146Y0145769D01*
X0642362Y0145551D01*
X0642574Y0145327D01*
X0642779Y0145099D01*
X0642979Y0144866D01*
X0643174Y0144627D01*
X0643362Y0144384D01*
X0643287Y0144328D01*
X0643100Y0144569D01*
X0642907Y0144806D01*
X0642708Y0145037D01*
X0642504Y0145264D01*
X0642295Y0145486D01*
X0642080Y0145702D01*
X0641859Y0145913D01*
X0641634Y0146119D01*
X0641404Y0146319D01*
X0641168Y0146514D01*
X0640929Y0146702D01*
X0640684Y0146885D01*
X0640435Y0147062D01*
X0640182Y0147232D01*
X0639925Y0147397D01*
X0639664Y0147555D01*
X0639399Y0147706D01*
X0639131Y0147851D01*
X0638859Y0147990D01*
X0638584Y0148122D01*
X0638305Y0148247D01*
X0638024Y0148365D01*
X0637740Y0148476D01*
X0637453Y0148580D01*
X0637164Y0148678D01*
X0636872Y0148768D01*
X0636579Y0148851D01*
X0636283Y0148926D01*
X0635986Y0148995D01*
X0635687Y0149056D01*
X0635386Y0149110D01*
X0635085Y0149156D01*
X0634782Y0149196D01*
X0634479Y0149227D01*
X0634174Y0149252D01*
X0633870Y0149268D01*
X0633565Y0149278D01*
X0633260Y0149280D01*
X0632955Y0149274D01*
X0632650Y0149261D01*
X0632345Y0149241D01*
X0632041Y0149213D01*
X0631738Y0149178D01*
X0631436Y0149135D01*
X0631135Y0149085D01*
X0630835Y0149028D01*
X0630537Y0148963D01*
X0630241Y0148891D01*
X0629946Y0148812D01*
X0629653Y0148725D01*
X0629363Y0148632D01*
X0629075Y0148531D01*
X0628789Y0148423D01*
X0628506Y0148309D01*
X0628226Y0148187D01*
X0627949Y0148059D01*
X0627676Y0147924D01*
X0627406Y0147783D01*
X0627139Y0147634D01*
X0626876Y0147480D01*
X0626617Y0147319D01*
X0626361Y0147151D01*
X0626110Y0146978D01*
X0625864Y0146798D01*
X0625622Y0146612D01*
X0625384Y0146421D01*
X0625151Y0146224D01*
X0624923Y0146021D01*
X0624700Y0145812D01*
X0624482Y0145599D01*
X0624270Y0145380D01*
X0624063Y0145156D01*
X0623861Y0144926D01*
X0623665Y0144692D01*
X0623475Y0144454D01*
X0623291Y0144210D01*
X0623113Y0143963D01*
X0622941Y0143711D01*
X0622775Y0143454D01*
X0622616Y0143194D01*
X0622462Y0142930D01*
X0622316Y0142663D01*
X0622176Y0142392D01*
X0622042Y0142117D01*
X0621916Y0141840D01*
X0621796Y0141559D01*
X0621683Y0141275D01*
X0621577Y0140989D01*
X0621478Y0140701D01*
X0621386Y0140410D01*
X0621302Y0140116D01*
X0621224Y0139821D01*
X0621154Y0139524D01*
X0621091Y0139226D01*
X0621035Y0138926D01*
X0620987Y0138624D01*
X0620946Y0138322D01*
X0620913Y0138019D01*
X0620887Y0137715D01*
X0620868Y0137410D01*
X0620857Y0137105D01*
X0620853Y0136800D01*
X0620857Y0136495D01*
X0620868Y0136190D01*
X0620887Y0135885D01*
X0620913Y0135581D01*
X0620946Y0135278D01*
X0620987Y0134976D01*
X0621035Y0134674D01*
X0621091Y0134374D01*
X0621154Y0134076D01*
X0621224Y0133779D01*
X0621302Y0133484D01*
X0621386Y0133190D01*
X0621478Y0132899D01*
X0621577Y0132611D01*
X0621683Y0132325D01*
X0621796Y0132041D01*
X0621916Y0131760D01*
X0622042Y0131483D01*
X0622176Y0131208D01*
X0622316Y0130937D01*
X0622462Y0130670D01*
X0622616Y0130406D01*
X0622775Y0130146D01*
X0622941Y0129889D01*
X0623113Y0129637D01*
X0623291Y0129390D01*
X0623475Y0129146D01*
X0623665Y0128908D01*
X0623861Y0128674D01*
X0624063Y0128444D01*
X0624270Y0128220D01*
X0624482Y0128001D01*
X0624700Y0127788D01*
X0624923Y0127579D01*
X0625151Y0127376D01*
X0625384Y0127179D01*
X0625622Y0126988D01*
X0625864Y0126802D01*
X0626110Y0126622D01*
X0626361Y0126449D01*
X0626617Y0126281D01*
X0626876Y0126120D01*
X0627139Y0125966D01*
X0627406Y0125817D01*
X0627676Y0125676D01*
X0627949Y0125541D01*
X0628226Y0125413D01*
X0628506Y0125291D01*
X0628789Y0125177D01*
X0629075Y0125069D01*
X0629363Y0124968D01*
X0629653Y0124875D01*
X0629946Y0124788D01*
X0630241Y0124709D01*
X0630537Y0124637D01*
X0630835Y0124572D01*
X0631135Y0124515D01*
X0631436Y0124465D01*
X0631738Y0124422D01*
X0632041Y0124387D01*
X0632345Y0124359D01*
X0632650Y0124339D01*
X0632955Y0124326D01*
X0633260Y0124320D01*
X0633565Y0124322D01*
X0633870Y0124332D01*
X0634174Y0124348D01*
X0634479Y0124373D01*
X0634782Y0124404D01*
X0635085Y0124444D01*
X0635386Y0124490D01*
X0635687Y0124544D01*
X0635986Y0124605D01*
X0636283Y0124674D01*
X0636579Y0124749D01*
X0636872Y0124832D01*
X0637164Y0124922D01*
X0637453Y0125020D01*
X0637740Y0125124D01*
X0638024Y0125235D01*
X0638305Y0125353D01*
X0638584Y0125478D01*
X0638859Y0125610D01*
X0639131Y0125749D01*
X0639399Y0125894D01*
X0639664Y0126045D01*
X0639925Y0126203D01*
X0640182Y0126368D01*
X0640435Y0126538D01*
X0640684Y0126715D01*
X0640929Y0126898D01*
X0641168Y0127086D01*
X0641404Y0127281D01*
X0641634Y0127481D01*
X0641859Y0127687D01*
X0642080Y0127898D01*
X0642295Y0128114D01*
X0642504Y0128336D01*
X0642708Y0128563D01*
X0642907Y0128794D01*
X0643100Y0129031D01*
X0643287Y0129272D01*
X0643212Y0129328D01*
X0643026Y0129089D01*
X0642835Y0128854D01*
X0642638Y0128625D01*
X0642435Y0128400D01*
X0642227Y0128179D01*
X0642013Y0127965D01*
X0641795Y0127755D01*
X0641571Y0127551D01*
X0641343Y0127352D01*
X0641109Y0127159D01*
X0640871Y0126972D01*
X0640629Y0126791D01*
X0640382Y0126615D01*
X0640131Y0126446D01*
X0639875Y0126283D01*
X0639616Y0126126D01*
X0639353Y0125976D01*
X0639087Y0125832D01*
X0638817Y0125694D01*
X0638544Y0125563D01*
X0638268Y0125439D01*
X0637988Y0125322D01*
X0637706Y0125212D01*
X0637422Y0125108D01*
X0637135Y0125012D01*
X0636845Y0124922D01*
X0636554Y0124840D01*
X0636261Y0124765D01*
X0635965Y0124697D01*
X0635669Y0124636D01*
X0635371Y0124583D01*
X0635071Y0124537D01*
X0634771Y0124498D01*
X0634470Y0124466D01*
X0634168Y0124442D01*
X0633865Y0124425D01*
X0633563Y0124416D01*
X0633260Y0124414D01*
X0632957Y0124420D01*
X0632655Y0124433D01*
X0632352Y0124453D01*
X0632051Y0124481D01*
X0631750Y0124516D01*
X0631450Y0124558D01*
X0631151Y0124608D01*
X0630854Y0124665D01*
X0630558Y0124729D01*
X0630264Y0124800D01*
X0629971Y0124879D01*
X0629681Y0124965D01*
X0629392Y0125058D01*
X0629107Y0125157D01*
X0628823Y0125264D01*
X0628543Y0125378D01*
X0628265Y0125498D01*
X0627990Y0125626D01*
X0627718Y0125760D01*
X0627450Y0125900D01*
X0627185Y0126047D01*
X0626924Y0126201D01*
X0626667Y0126361D01*
X0626414Y0126527D01*
X0626165Y0126699D01*
X0625920Y0126877D01*
X0625679Y0127062D01*
X0625444Y0127252D01*
X0625213Y0127447D01*
X0624986Y0127649D01*
X0624765Y0127855D01*
X0624549Y0128068D01*
X0624338Y0128285D01*
X0624133Y0128507D01*
X0623933Y0128735D01*
X0623738Y0128967D01*
X0623550Y0129204D01*
X0623367Y0129446D01*
X0623190Y0129691D01*
X0623019Y0129942D01*
X0622855Y0130196D01*
X0622696Y0130454D01*
X0622544Y0130716D01*
X0622399Y0130981D01*
X0622260Y0131250D01*
X0622127Y0131523D01*
X0622002Y0131798D01*
X0621883Y0132077D01*
X0621771Y0132358D01*
X0621666Y0132642D01*
X0621567Y0132929D01*
X0621476Y0133218D01*
X0621392Y0133509D01*
X0621315Y0133802D01*
X0621246Y0134096D01*
X0621183Y0134393D01*
X0621128Y0134690D01*
X0621080Y0134989D01*
X0621039Y0135289D01*
X0621006Y0135591D01*
X0620980Y0135892D01*
X0620962Y0136195D01*
X0620951Y0136497D01*
X0620947Y0136800D01*
X0620951Y0137103D01*
X0620962Y0137405D01*
X0620980Y0137708D01*
X0621006Y0138009D01*
X0621039Y0138311D01*
X0621080Y0138611D01*
X0621128Y0138910D01*
X0621183Y0139207D01*
X0621246Y0139504D01*
X0621315Y0139798D01*
X0621392Y0140091D01*
X0621476Y0140382D01*
X0621567Y0140671D01*
X0621666Y0140958D01*
X0621771Y0141242D01*
X0621883Y0141523D01*
X0622002Y0141802D01*
X0622127Y0142077D01*
X0622260Y0142350D01*
X0622399Y0142619D01*
X0622544Y0142884D01*
X0622696Y0143146D01*
X0622855Y0143404D01*
X0623019Y0143658D01*
X0623190Y0143909D01*
X0623367Y0144154D01*
X0623550Y0144396D01*
X0623738Y0144633D01*
X0623933Y0144865D01*
X0624133Y0145093D01*
X0624338Y0145315D01*
X0624549Y0145532D01*
X0624765Y0145745D01*
X0624986Y0145951D01*
X0625213Y0146153D01*
X0625444Y0146348D01*
X0625679Y0146538D01*
X0625920Y0146723D01*
X0626165Y0146901D01*
X0626414Y0147073D01*
X0626667Y0147239D01*
X0626924Y0147399D01*
X0627185Y0147553D01*
X0627450Y0147700D01*
X0627718Y0147840D01*
X0627990Y0147974D01*
X0628265Y0148102D01*
X0628543Y0148222D01*
X0628823Y0148336D01*
X0629107Y0148443D01*
X0629392Y0148542D01*
X0629681Y0148635D01*
X0629971Y0148721D01*
X0630264Y0148800D01*
X0630558Y0148871D01*
X0630854Y0148935D01*
X0631151Y0148992D01*
X0631450Y0149042D01*
X0631750Y0149084D01*
X0632051Y0149119D01*
X0632352Y0149147D01*
X0632655Y0149167D01*
X0632957Y0149180D01*
X0633260Y0149186D01*
X0633563Y0149184D01*
X0633865Y0149175D01*
X0634168Y0149158D01*
X0634470Y0149134D01*
X0634771Y0149102D01*
X0635071Y0149063D01*
X0635371Y0149017D01*
X0635669Y0148964D01*
X0635965Y0148903D01*
X0636261Y0148835D01*
X0636554Y0148760D01*
X0636845Y0148678D01*
X0637135Y0148588D01*
X0637422Y0148492D01*
X0637706Y0148388D01*
X0637988Y0148278D01*
X0638268Y0148161D01*
X0638544Y0148037D01*
X0638817Y0147906D01*
X0639087Y0147768D01*
X0639353Y0147624D01*
X0639616Y0147474D01*
X0639875Y0147317D01*
X0640131Y0147154D01*
X0640382Y0146985D01*
X0640629Y0146809D01*
X0640871Y0146628D01*
X0641109Y0146441D01*
X0641343Y0146248D01*
X0641571Y0146049D01*
X0641795Y0145845D01*
X0642013Y0145635D01*
X0642227Y0145421D01*
X0642435Y0145200D01*
X0642638Y0144975D01*
X0642835Y0144746D01*
X0643026Y0144511D01*
X0643212Y0144272D01*
X0643137Y0144215D01*
X0642952Y0144453D01*
X0642762Y0144685D01*
X0642567Y0144914D01*
X0642366Y0145137D01*
X0642159Y0145355D01*
X0641947Y0145569D01*
X0641730Y0145777D01*
X0641508Y0145979D01*
X0641281Y0146176D01*
X0641050Y0146368D01*
X0640814Y0146554D01*
X0640573Y0146734D01*
X0640328Y0146908D01*
X0640079Y0147076D01*
X0639825Y0147238D01*
X0639568Y0147393D01*
X0639307Y0147542D01*
X0639043Y0147685D01*
X0638775Y0147822D01*
X0638504Y0147951D01*
X0638230Y0148074D01*
X0637953Y0148191D01*
X0637673Y0148300D01*
X0637390Y0148403D01*
X0637106Y0148499D01*
X0636818Y0148587D01*
X0636529Y0148669D01*
X0636238Y0148744D01*
X0635945Y0148811D01*
X0635651Y0148872D01*
X0635355Y0148925D01*
X0635058Y0148970D01*
X0634760Y0149009D01*
X0634461Y0149040D01*
X0634161Y0149064D01*
X0633861Y0149081D01*
X0633561Y0149090D01*
X0633260Y0149092D01*
X0632960Y0149086D01*
X0632659Y0149074D01*
X0632360Y0149053D01*
X0632060Y0149026D01*
X0631762Y0148991D01*
X0631464Y0148949D01*
X0631168Y0148900D01*
X0630873Y0148843D01*
X0630579Y0148779D01*
X0630287Y0148709D01*
X0629997Y0148631D01*
X0629708Y0148545D01*
X0629422Y0148453D01*
X0629138Y0148354D01*
X0628857Y0148248D01*
X0628579Y0148135D01*
X0628303Y0148016D01*
X0628030Y0147889D01*
X0627761Y0147756D01*
X0627495Y0147617D01*
X0627232Y0147471D01*
X0626973Y0147319D01*
X0626717Y0147160D01*
X0626466Y0146995D01*
X0626219Y0146824D01*
X0625976Y0146647D01*
X0625737Y0146464D01*
X0625503Y0146276D01*
X0625274Y0146082D01*
X0625050Y0145882D01*
X0624830Y0145677D01*
X0624616Y0145466D01*
X0624406Y0145250D01*
X0624202Y0145030D01*
X0624004Y0144804D01*
X0623811Y0144573D01*
X0623624Y0144338D01*
X0623442Y0144099D01*
X0623267Y0143855D01*
X0623097Y0143606D01*
X0622934Y0143354D01*
X0622777Y0143098D01*
X0622626Y0142838D01*
X0622482Y0142574D01*
X0622344Y0142307D01*
X0622212Y0142037D01*
X0622088Y0141764D01*
X0621970Y0141487D01*
X0621859Y0141208D01*
X0621754Y0140926D01*
X0621657Y0140642D01*
X0621566Y0140355D01*
X0621483Y0140066D01*
X0621407Y0139776D01*
X0621337Y0139483D01*
X0621275Y0139189D01*
X0621221Y0138894D01*
X0621173Y0138597D01*
X0621133Y0138299D01*
X0621100Y0138000D01*
X0621074Y0137701D01*
X0621056Y0137401D01*
X0621045Y0137101D01*
X0621041Y0136800D01*
X0621045Y0136499D01*
X0621056Y0136199D01*
X0621074Y0135899D01*
X0621100Y0135600D01*
X0621133Y0135301D01*
X0621173Y0135003D01*
X0621221Y0134706D01*
X0621275Y0134411D01*
X0621337Y0134117D01*
X0621407Y0133824D01*
X0621483Y0133534D01*
X0621566Y0133245D01*
X0621657Y0132958D01*
X0621754Y0132674D01*
X0621859Y0132392D01*
X0621970Y0132113D01*
X0622088Y0131836D01*
X0622212Y0131563D01*
X0622344Y0131293D01*
X0622482Y0131026D01*
X0622626Y0130762D01*
X0622777Y0130502D01*
X0622934Y0130246D01*
X0623097Y0129994D01*
X0623267Y0129745D01*
X0623442Y0129501D01*
X0623624Y0129262D01*
X0623811Y0129027D01*
X0624004Y0128796D01*
X0624202Y0128570D01*
X0624406Y0128350D01*
X0624616Y0128134D01*
X0624830Y0127923D01*
X0625050Y0127718D01*
X0625274Y0127518D01*
X0625503Y0127324D01*
X0625737Y0127136D01*
X0625976Y0126953D01*
X0626219Y0126776D01*
X0626466Y0126605D01*
X0626717Y0126440D01*
X0626973Y0126281D01*
X0627232Y0126129D01*
X0627495Y0125983D01*
X0627761Y0125844D01*
X0628030Y0125711D01*
X0628303Y0125584D01*
X0628579Y0125465D01*
X0628857Y0125352D01*
X0629138Y0125246D01*
X0629422Y0125147D01*
X0629708Y0125055D01*
X0629997Y0124969D01*
X0630287Y0124891D01*
X0630579Y0124821D01*
X0630873Y0124757D01*
X0631168Y0124700D01*
X0631464Y0124651D01*
X0631762Y0124609D01*
X0632060Y0124574D01*
X0632360Y0124547D01*
X0632659Y0124526D01*
X0632960Y0124514D01*
X0633260Y0124508D01*
X0633561Y0124510D01*
X0633861Y0124519D01*
X0634161Y0124536D01*
X0634461Y0124560D01*
X0634760Y0124591D01*
X0635058Y0124630D01*
X0635355Y0124675D01*
X0635651Y0124728D01*
X0635945Y0124789D01*
X0636238Y0124856D01*
X0636529Y0124931D01*
X0636818Y0125013D01*
X0637106Y0125101D01*
X0637390Y0125197D01*
X0637673Y0125300D01*
X0637953Y0125409D01*
X0638230Y0125526D01*
X0638504Y0125649D01*
X0638775Y0125778D01*
X0639043Y0125915D01*
X0639307Y0126058D01*
X0639568Y0126207D01*
X0639825Y0126362D01*
X0640079Y0126524D01*
X0640328Y0126692D01*
X0640573Y0126866D01*
X0640814Y0127046D01*
X0641050Y0127232D01*
X0641281Y0127424D01*
X0641508Y0127621D01*
X0641730Y0127823D01*
X0641947Y0128031D01*
X0642159Y0128245D01*
X0642366Y0128463D01*
X0642567Y0128686D01*
X0642762Y0128915D01*
X0642952Y0129147D01*
X0643137Y0129385D01*
X0643061Y0129441D01*
X0642879Y0129206D01*
X0642690Y0128975D01*
X0642496Y0128748D01*
X0642296Y0128526D01*
X0642091Y0128310D01*
X0641881Y0128098D01*
X0641666Y0127892D01*
X0641446Y0127691D01*
X0641220Y0127495D01*
X0640991Y0127305D01*
X0640756Y0127121D01*
X0640517Y0126942D01*
X0640274Y0126769D01*
X0640027Y0126603D01*
X0639775Y0126442D01*
X0639520Y0126288D01*
X0639261Y0126140D01*
X0638999Y0125998D01*
X0638733Y0125863D01*
X0638464Y0125734D01*
X0638192Y0125612D01*
X0637917Y0125496D01*
X0637639Y0125387D01*
X0637359Y0125286D01*
X0637076Y0125191D01*
X0636791Y0125103D01*
X0636504Y0125022D01*
X0636216Y0124947D01*
X0635925Y0124881D01*
X0635633Y0124821D01*
X0635339Y0124768D01*
X0635044Y0124723D01*
X0634749Y0124684D01*
X0634452Y0124653D01*
X0634155Y0124630D01*
X0633857Y0124613D01*
X0633559Y0124604D01*
X0633261Y0124602D01*
X0632962Y0124608D01*
X0632664Y0124620D01*
X0632367Y0124640D01*
X0632070Y0124668D01*
X0631774Y0124702D01*
X0631478Y0124744D01*
X0631184Y0124793D01*
X0630891Y0124849D01*
X0630600Y0124912D01*
X0630310Y0124983D01*
X0630022Y0125060D01*
X0629736Y0125144D01*
X0629452Y0125236D01*
X0629170Y0125334D01*
X0628891Y0125439D01*
X0628615Y0125551D01*
X0628341Y0125670D01*
X0628071Y0125795D01*
X0627803Y0125927D01*
X0627539Y0126066D01*
X0627278Y0126211D01*
X0627021Y0126362D01*
X0626768Y0126519D01*
X0626519Y0126683D01*
X0626273Y0126853D01*
X0626032Y0127028D01*
X0625795Y0127210D01*
X0625563Y0127397D01*
X0625336Y0127589D01*
X0625113Y0127788D01*
X0624895Y0127991D01*
X0624682Y0128200D01*
X0624474Y0128414D01*
X0624272Y0128634D01*
X0624075Y0128857D01*
X0623884Y0129086D01*
X0623698Y0129320D01*
X0623518Y0129557D01*
X0623344Y0129799D01*
X0623176Y0130046D01*
X0623014Y0130296D01*
X0622858Y0130550D01*
X0622708Y0130808D01*
X0622565Y0131070D01*
X0622428Y0131335D01*
X0622297Y0131603D01*
X0622174Y0131874D01*
X0622057Y0132149D01*
X0621946Y0132426D01*
X0621843Y0132706D01*
X0621746Y0132988D01*
X0621656Y0133272D01*
X0621574Y0133559D01*
X0621498Y0133847D01*
X0621429Y0134137D01*
X0621368Y0134429D01*
X0621313Y0134722D01*
X0621266Y0135017D01*
X0621226Y0135312D01*
X0621193Y0135609D01*
X0621168Y0135906D01*
X0621150Y0136204D01*
X0621139Y0136502D01*
X0621135Y0136800D01*
X0621139Y0137098D01*
X0621150Y0137396D01*
X0621168Y0137694D01*
X0621193Y0137991D01*
X0621226Y0138288D01*
X0621266Y0138583D01*
X0621313Y0138878D01*
X0621368Y0139171D01*
X0621429Y0139463D01*
X0621498Y0139753D01*
X0621574Y0140041D01*
X0621656Y0140328D01*
X0621746Y0140612D01*
X0621843Y0140894D01*
X0621946Y0141174D01*
X0622057Y0141451D01*
X0622174Y0141726D01*
X0622297Y0141997D01*
X0622428Y0142265D01*
X0622565Y0142530D01*
X0622708Y0142792D01*
X0622858Y0143050D01*
X0623014Y0143304D01*
X0623176Y0143554D01*
X0623344Y0143801D01*
X0623518Y0144043D01*
X0623698Y0144280D01*
X0623884Y0144514D01*
X0624075Y0144743D01*
X0624272Y0144966D01*
X0624474Y0145186D01*
X0624682Y0145400D01*
X0624895Y0145609D01*
X0625113Y0145812D01*
X0625336Y0146011D01*
X0625563Y0146203D01*
X0625795Y0146390D01*
X0626032Y0146572D01*
X0626273Y0146747D01*
X0626519Y0146917D01*
X0626768Y0147081D01*
X0627021Y0147238D01*
X0627278Y0147389D01*
X0627539Y0147534D01*
X0627803Y0147673D01*
X0628071Y0147805D01*
X0628341Y0147930D01*
X0628615Y0148049D01*
X0628891Y0148161D01*
X0629170Y0148266D01*
X0629452Y0148364D01*
X0629736Y0148456D01*
X0630022Y0148540D01*
X0630310Y0148617D01*
X0630600Y0148688D01*
X0630891Y0148751D01*
X0631184Y0148807D01*
X0631478Y0148856D01*
X0631774Y0148898D01*
X0632070Y0148932D01*
X0632367Y0148960D01*
X0632664Y0148980D01*
X0632962Y0148992D01*
X0633261Y0148998D01*
X0633559Y0148996D01*
X0633857Y0148987D01*
X0634155Y0148970D01*
X0634452Y0148947D01*
X0634749Y0148916D01*
X0635044Y0148877D01*
X0635339Y0148832D01*
X0635633Y0148779D01*
X0635925Y0148719D01*
X0636216Y0148653D01*
X0636504Y0148578D01*
X0636791Y0148497D01*
X0637076Y0148409D01*
X0637359Y0148314D01*
X0637639Y0148213D01*
X0637917Y0148104D01*
X0638192Y0147988D01*
X0638464Y0147866D01*
X0638733Y0147737D01*
X0638999Y0147602D01*
X0639261Y0147460D01*
X0639520Y0147312D01*
X0639775Y0147158D01*
X0640027Y0146997D01*
X0640274Y0146831D01*
X0640517Y0146658D01*
X0640756Y0146479D01*
X0640991Y0146295D01*
X0641220Y0146105D01*
X0641446Y0145909D01*
X0641666Y0145708D01*
X0641881Y0145502D01*
X0642091Y0145290D01*
X0642296Y0145074D01*
X0642496Y0144852D01*
X0642690Y0144625D01*
X0642879Y0144394D01*
X0643061Y0144159D01*
X0642986Y0144102D01*
X0642805Y0144336D01*
X0642618Y0144565D01*
X0642425Y0144790D01*
X0642227Y0145010D01*
X0642024Y0145225D01*
X0641815Y0145435D01*
X0641601Y0145640D01*
X0641383Y0145839D01*
X0641159Y0146033D01*
X0640931Y0146222D01*
X0640699Y0146405D01*
X0640462Y0146582D01*
X0640220Y0146753D01*
X0639975Y0146919D01*
X0639726Y0147078D01*
X0639472Y0147231D01*
X0639216Y0147378D01*
X0638955Y0147519D01*
X0638691Y0147653D01*
X0638424Y0147781D01*
X0638154Y0147902D01*
X0637882Y0148017D01*
X0637606Y0148125D01*
X0637328Y0148226D01*
X0637047Y0148320D01*
X0636765Y0148407D01*
X0636480Y0148488D01*
X0636193Y0148561D01*
X0635905Y0148628D01*
X0635615Y0148687D01*
X0635323Y0148739D01*
X0635031Y0148784D01*
X0634737Y0148822D01*
X0634443Y0148853D01*
X0634148Y0148877D01*
X0633853Y0148893D01*
X0633557Y0148902D01*
X0633261Y0148904D01*
X0632965Y0148898D01*
X0632669Y0148886D01*
X0632374Y0148866D01*
X0632079Y0148839D01*
X0631785Y0148805D01*
X0631492Y0148763D01*
X0631200Y0148715D01*
X0630910Y0148659D01*
X0630621Y0148596D01*
X0630333Y0148526D01*
X0630047Y0148449D01*
X0629763Y0148366D01*
X0629482Y0148275D01*
X0629202Y0148177D01*
X0628925Y0148073D01*
X0628651Y0147962D01*
X0628380Y0147844D01*
X0628111Y0147720D01*
X0627846Y0147589D01*
X0627584Y0147451D01*
X0627325Y0147308D01*
X0627070Y0147158D01*
X0626818Y0147001D01*
X0626571Y0146839D01*
X0626328Y0146671D01*
X0626088Y0146496D01*
X0625853Y0146316D01*
X0625623Y0146131D01*
X0625397Y0145939D01*
X0625176Y0145743D01*
X0624960Y0145541D01*
X0624749Y0145333D01*
X0624543Y0145121D01*
X0624342Y0144903D01*
X0624146Y0144681D01*
X0623956Y0144454D01*
X0623772Y0144223D01*
X0623594Y0143987D01*
X0623421Y0143747D01*
X0623254Y0143502D01*
X0623093Y0143254D01*
X0622938Y0143001D01*
X0622790Y0142745D01*
X0622648Y0142486D01*
X0622512Y0142223D01*
X0622382Y0141957D01*
X0622260Y0141688D01*
X0622143Y0141415D01*
X0622034Y0141140D01*
X0621931Y0140863D01*
X0621835Y0140583D01*
X0621746Y0140301D01*
X0621664Y0140016D01*
X0621589Y0139730D01*
X0621521Y0139442D01*
X0621460Y0139153D01*
X0621406Y0138862D01*
X0621359Y0138569D01*
X0621319Y0138276D01*
X0621287Y0137982D01*
X0621262Y0137687D01*
X0621243Y0137392D01*
X0621233Y0137096D01*
X0621229Y0136800D01*
X0621233Y0136504D01*
X0621243Y0136208D01*
X0621262Y0135913D01*
X0621287Y0135618D01*
X0621319Y0135324D01*
X0621359Y0135031D01*
X0621406Y0134738D01*
X0621460Y0134447D01*
X0621521Y0134158D01*
X0621589Y0133870D01*
X0621664Y0133584D01*
X0621746Y0133299D01*
X0621835Y0133017D01*
X0621931Y0132737D01*
X0622034Y0132460D01*
X0622143Y0132185D01*
X0622260Y0131912D01*
X0622382Y0131643D01*
X0622512Y0131377D01*
X0622648Y0131114D01*
X0622790Y0130855D01*
X0622938Y0130599D01*
X0623093Y0130346D01*
X0623254Y0130098D01*
X0623421Y0129853D01*
X0623594Y0129613D01*
X0623772Y0129377D01*
X0623956Y0129146D01*
X0624146Y0128919D01*
X0624342Y0128697D01*
X0624543Y0128479D01*
X0624749Y0128267D01*
X0624960Y0128059D01*
X0625176Y0127857D01*
X0625397Y0127661D01*
X0625623Y0127469D01*
X0625853Y0127284D01*
X0626088Y0127104D01*
X0626328Y0126929D01*
X0626571Y0126761D01*
X0626818Y0126599D01*
X0627070Y0126442D01*
X0627325Y0126292D01*
X0627584Y0126149D01*
X0627846Y0126011D01*
X0628111Y0125880D01*
X0628380Y0125756D01*
X0628651Y0125638D01*
X0628925Y0125527D01*
X0629202Y0125423D01*
X0629482Y0125325D01*
X0629763Y0125234D01*
X0630047Y0125151D01*
X0630333Y0125074D01*
X0630621Y0125004D01*
X0630910Y0124941D01*
X0631200Y0124885D01*
X0631492Y0124837D01*
X0631785Y0124795D01*
X0632079Y0124761D01*
X0632374Y0124734D01*
X0632669Y0124714D01*
X0632965Y0124702D01*
X0633261Y0124696D01*
X0633557Y0124698D01*
X0633853Y0124707D01*
X0634148Y0124723D01*
X0634443Y0124747D01*
X0634737Y0124778D01*
X0635031Y0124816D01*
X0635323Y0124861D01*
X0635615Y0124913D01*
X0635905Y0124972D01*
X0636193Y0125039D01*
X0636480Y0125112D01*
X0636765Y0125193D01*
X0637047Y0125280D01*
X0637328Y0125374D01*
X0637606Y0125475D01*
X0637882Y0125583D01*
X0638154Y0125698D01*
X0638424Y0125819D01*
X0638691Y0125947D01*
X0638955Y0126081D01*
X0639216Y0126222D01*
X0639472Y0126369D01*
X0639726Y0126522D01*
X0639975Y0126681D01*
X0640220Y0126847D01*
X0640462Y0127018D01*
X0640699Y0127195D01*
X0640931Y0127378D01*
X0641159Y0127567D01*
X0641383Y0127761D01*
X0641601Y0127960D01*
X0641815Y0128165D01*
X0642024Y0128375D01*
X0642227Y0128590D01*
X0642425Y0128810D01*
X0642618Y0129035D01*
X0642805Y0129264D01*
X0642986Y0129498D01*
X0643662Y0099609D02*
X0642942Y0099069D01*
X0642943Y0099070D02*
X0642762Y0099303D01*
X0642576Y0099531D01*
X0642384Y0099755D01*
X0642187Y0099974D01*
X0641985Y0100188D01*
X0641777Y0100397D01*
X0641564Y0100600D01*
X0641347Y0100799D01*
X0641124Y0100992D01*
X0640897Y0101180D01*
X0640666Y0101362D01*
X0640430Y0101539D01*
X0640189Y0101709D01*
X0639945Y0101874D01*
X0639697Y0102032D01*
X0639445Y0102185D01*
X0639189Y0102331D01*
X0638930Y0102471D01*
X0638667Y0102605D01*
X0638402Y0102732D01*
X0638133Y0102853D01*
X0637861Y0102967D01*
X0637587Y0103074D01*
X0637310Y0103175D01*
X0637031Y0103269D01*
X0636749Y0103356D01*
X0636466Y0103436D01*
X0636180Y0103509D01*
X0635893Y0103575D01*
X0635604Y0103634D01*
X0635314Y0103686D01*
X0635023Y0103731D01*
X0634731Y0103769D01*
X0634438Y0103799D01*
X0634144Y0103823D01*
X0633850Y0103839D01*
X0633556Y0103848D01*
X0633261Y0103850D01*
X0632966Y0103844D01*
X0632672Y0103832D01*
X0632378Y0103812D01*
X0632085Y0103785D01*
X0631792Y0103751D01*
X0631500Y0103710D01*
X0631210Y0103661D01*
X0630920Y0103606D01*
X0630633Y0103544D01*
X0630346Y0103474D01*
X0630062Y0103397D01*
X0629779Y0103314D01*
X0629499Y0103224D01*
X0629221Y0103127D01*
X0628945Y0103023D01*
X0628672Y0102912D01*
X0628402Y0102795D01*
X0628134Y0102671D01*
X0627870Y0102541D01*
X0627609Y0102404D01*
X0627352Y0102261D01*
X0627098Y0102111D01*
X0626847Y0101956D01*
X0626601Y0101794D01*
X0626359Y0101627D01*
X0626121Y0101453D01*
X0625887Y0101274D01*
X0625657Y0101089D01*
X0625433Y0100899D01*
X0625212Y0100703D01*
X0624997Y0100502D01*
X0624787Y0100295D01*
X0624582Y0100084D01*
X0624382Y0099867D01*
X0624187Y0099646D01*
X0623998Y0099420D01*
X0623815Y0099190D01*
X0623637Y0098955D01*
X0623465Y0098715D01*
X0623299Y0098472D01*
X0623139Y0098225D01*
X0622985Y0097974D01*
X0622837Y0097719D01*
X0622695Y0097460D01*
X0622560Y0097199D01*
X0622431Y0096934D01*
X0622309Y0096666D01*
X0622193Y0096395D01*
X0622084Y0096121D01*
X0621982Y0095845D01*
X0621887Y0095566D01*
X0621798Y0095285D01*
X0621716Y0095002D01*
X0621641Y0094717D01*
X0621574Y0094430D01*
X0621513Y0094142D01*
X0621459Y0093852D01*
X0621412Y0093561D01*
X0621373Y0093269D01*
X0621341Y0092977D01*
X0621315Y0092683D01*
X0621297Y0092389D01*
X0621287Y0092095D01*
X0621283Y0091800D01*
X0621287Y0091505D01*
X0621297Y0091211D01*
X0621315Y0090917D01*
X0621341Y0090623D01*
X0621373Y0090331D01*
X0621412Y0090039D01*
X0621459Y0089748D01*
X0621513Y0089458D01*
X0621574Y0089170D01*
X0621641Y0088883D01*
X0621716Y0088598D01*
X0621798Y0088315D01*
X0621887Y0088034D01*
X0621982Y0087755D01*
X0622084Y0087479D01*
X0622193Y0087205D01*
X0622309Y0086934D01*
X0622431Y0086666D01*
X0622560Y0086401D01*
X0622695Y0086140D01*
X0622837Y0085881D01*
X0622985Y0085626D01*
X0623139Y0085375D01*
X0623299Y0085128D01*
X0623465Y0084885D01*
X0623637Y0084645D01*
X0623815Y0084410D01*
X0623998Y0084180D01*
X0624187Y0083954D01*
X0624382Y0083733D01*
X0624582Y0083516D01*
X0624787Y0083305D01*
X0624997Y0083098D01*
X0625212Y0082897D01*
X0625433Y0082701D01*
X0625657Y0082511D01*
X0625887Y0082326D01*
X0626121Y0082147D01*
X0626359Y0081973D01*
X0626601Y0081806D01*
X0626847Y0081644D01*
X0627098Y0081489D01*
X0627352Y0081339D01*
X0627609Y0081196D01*
X0627870Y0081059D01*
X0628134Y0080929D01*
X0628402Y0080805D01*
X0628672Y0080688D01*
X0628945Y0080577D01*
X0629221Y0080473D01*
X0629499Y0080376D01*
X0629779Y0080286D01*
X0630062Y0080203D01*
X0630346Y0080126D01*
X0630633Y0080056D01*
X0630920Y0079994D01*
X0631210Y0079939D01*
X0631500Y0079890D01*
X0631792Y0079849D01*
X0632085Y0079815D01*
X0632378Y0079788D01*
X0632672Y0079768D01*
X0632966Y0079756D01*
X0633261Y0079750D01*
X0633556Y0079752D01*
X0633850Y0079761D01*
X0634144Y0079777D01*
X0634438Y0079801D01*
X0634731Y0079831D01*
X0635023Y0079869D01*
X0635314Y0079914D01*
X0635604Y0079966D01*
X0635893Y0080025D01*
X0636180Y0080091D01*
X0636466Y0080164D01*
X0636749Y0080244D01*
X0637031Y0080331D01*
X0637310Y0080425D01*
X0637587Y0080526D01*
X0637861Y0080633D01*
X0638133Y0080747D01*
X0638402Y0080868D01*
X0638667Y0080995D01*
X0638930Y0081129D01*
X0639189Y0081269D01*
X0639445Y0081415D01*
X0639697Y0081568D01*
X0639945Y0081726D01*
X0640189Y0081891D01*
X0640430Y0082061D01*
X0640666Y0082238D01*
X0640897Y0082420D01*
X0641124Y0082608D01*
X0641347Y0082801D01*
X0641564Y0083000D01*
X0641777Y0083203D01*
X0641985Y0083412D01*
X0642187Y0083626D01*
X0642384Y0083845D01*
X0642576Y0084069D01*
X0642762Y0084297D01*
X0642943Y0084530D01*
X0643662Y0083991D01*
X0643663Y0083990D01*
X0643469Y0083740D01*
X0643269Y0083494D01*
X0643063Y0083254D01*
X0642851Y0083019D01*
X0642633Y0082789D01*
X0642410Y0082564D01*
X0642182Y0082345D01*
X0641948Y0082131D01*
X0641709Y0081923D01*
X0641465Y0081721D01*
X0641216Y0081526D01*
X0640962Y0081336D01*
X0640704Y0081153D01*
X0640442Y0080976D01*
X0640175Y0080805D01*
X0639904Y0080641D01*
X0639629Y0080484D01*
X0639351Y0080333D01*
X0639068Y0080189D01*
X0638783Y0080053D01*
X0638494Y0079923D01*
X0638202Y0079800D01*
X0637907Y0079685D01*
X0637610Y0079577D01*
X0637309Y0079476D01*
X0637007Y0079382D01*
X0636702Y0079296D01*
X0636395Y0079217D01*
X0636087Y0079146D01*
X0635777Y0079083D01*
X0635465Y0079027D01*
X0635152Y0078978D01*
X0634838Y0078938D01*
X0634523Y0078905D01*
X0634207Y0078880D01*
X0633891Y0078862D01*
X0633575Y0078852D01*
X0633258Y0078850D01*
X0632941Y0078856D01*
X0632625Y0078869D01*
X0632309Y0078891D01*
X0631994Y0078919D01*
X0631679Y0078956D01*
X0631366Y0079000D01*
X0631053Y0079052D01*
X0630742Y0079112D01*
X0630433Y0079179D01*
X0630125Y0079254D01*
X0629819Y0079336D01*
X0629516Y0079425D01*
X0629214Y0079522D01*
X0628915Y0079627D01*
X0628619Y0079739D01*
X0628325Y0079857D01*
X0628035Y0079983D01*
X0627748Y0080116D01*
X0627463Y0080257D01*
X0627183Y0080404D01*
X0626906Y0080557D01*
X0626633Y0080718D01*
X0626364Y0080885D01*
X0626099Y0081059D01*
X0625839Y0081239D01*
X0625583Y0081425D01*
X0625332Y0081618D01*
X0625085Y0081816D01*
X0624843Y0082021D01*
X0624607Y0082231D01*
X0624375Y0082448D01*
X0624150Y0082670D01*
X0623929Y0082897D01*
X0623714Y0083129D01*
X0623505Y0083367D01*
X0623302Y0083610D01*
X0623104Y0083858D01*
X0622913Y0084110D01*
X0622728Y0084367D01*
X0622550Y0084629D01*
X0622378Y0084895D01*
X0622212Y0085164D01*
X0622053Y0085438D01*
X0621901Y0085716D01*
X0621756Y0085997D01*
X0621617Y0086282D01*
X0621486Y0086570D01*
X0621362Y0086862D01*
X0621244Y0087156D01*
X0621134Y0087453D01*
X0621032Y0087752D01*
X0620937Y0088054D01*
X0620849Y0088358D01*
X0620768Y0088665D01*
X0620695Y0088973D01*
X0620630Y0089283D01*
X0620572Y0089594D01*
X0620522Y0089907D01*
X0620480Y0090221D01*
X0620445Y0090535D01*
X0620418Y0090851D01*
X0620398Y0091167D01*
X0620387Y0091483D01*
X0620383Y0091800D01*
X0620387Y0092117D01*
X0620398Y0092433D01*
X0620418Y0092749D01*
X0620445Y0093065D01*
X0620480Y0093379D01*
X0620522Y0093693D01*
X0620572Y0094006D01*
X0620630Y0094317D01*
X0620695Y0094627D01*
X0620768Y0094935D01*
X0620849Y0095242D01*
X0620937Y0095546D01*
X0621032Y0095848D01*
X0621134Y0096147D01*
X0621244Y0096444D01*
X0621362Y0096738D01*
X0621486Y0097030D01*
X0621617Y0097318D01*
X0621756Y0097603D01*
X0621901Y0097884D01*
X0622053Y0098162D01*
X0622212Y0098436D01*
X0622378Y0098705D01*
X0622550Y0098971D01*
X0622728Y0099233D01*
X0622913Y0099490D01*
X0623104Y0099742D01*
X0623302Y0099990D01*
X0623505Y0100233D01*
X0623714Y0100471D01*
X0623929Y0100703D01*
X0624150Y0100930D01*
X0624375Y0101152D01*
X0624607Y0101369D01*
X0624843Y0101579D01*
X0625085Y0101784D01*
X0625332Y0101982D01*
X0625583Y0102175D01*
X0625839Y0102361D01*
X0626099Y0102541D01*
X0626364Y0102715D01*
X0626633Y0102882D01*
X0626906Y0103043D01*
X0627183Y0103196D01*
X0627463Y0103343D01*
X0627748Y0103484D01*
X0628035Y0103617D01*
X0628325Y0103743D01*
X0628619Y0103861D01*
X0628915Y0103973D01*
X0629214Y0104078D01*
X0629516Y0104175D01*
X0629819Y0104264D01*
X0630125Y0104346D01*
X0630433Y0104421D01*
X0630742Y0104488D01*
X0631053Y0104548D01*
X0631366Y0104600D01*
X0631679Y0104644D01*
X0631994Y0104681D01*
X0632309Y0104709D01*
X0632625Y0104731D01*
X0632941Y0104744D01*
X0633258Y0104750D01*
X0633575Y0104748D01*
X0633891Y0104738D01*
X0634207Y0104720D01*
X0634523Y0104695D01*
X0634838Y0104662D01*
X0635152Y0104622D01*
X0635465Y0104573D01*
X0635777Y0104517D01*
X0636087Y0104454D01*
X0636395Y0104383D01*
X0636702Y0104304D01*
X0637007Y0104218D01*
X0637309Y0104124D01*
X0637610Y0104023D01*
X0637907Y0103915D01*
X0638202Y0103800D01*
X0638494Y0103677D01*
X0638783Y0103547D01*
X0639068Y0103411D01*
X0639351Y0103267D01*
X0639629Y0103116D01*
X0639904Y0102959D01*
X0640175Y0102795D01*
X0640442Y0102624D01*
X0640704Y0102447D01*
X0640962Y0102264D01*
X0641216Y0102074D01*
X0641465Y0101879D01*
X0641709Y0101677D01*
X0641948Y0101469D01*
X0642182Y0101255D01*
X0642410Y0101036D01*
X0642633Y0100811D01*
X0642851Y0100581D01*
X0643063Y0100346D01*
X0643269Y0100106D01*
X0643469Y0099860D01*
X0643663Y0099610D01*
X0643588Y0099554D01*
X0643395Y0099802D01*
X0643196Y0100046D01*
X0642992Y0100284D01*
X0642782Y0100518D01*
X0642566Y0100746D01*
X0642344Y0100969D01*
X0642117Y0101187D01*
X0641885Y0101399D01*
X0641648Y0101605D01*
X0641406Y0101806D01*
X0641158Y0102000D01*
X0640907Y0102188D01*
X0640650Y0102370D01*
X0640390Y0102546D01*
X0640125Y0102715D01*
X0639856Y0102878D01*
X0639583Y0103034D01*
X0639307Y0103184D01*
X0639027Y0103326D01*
X0638743Y0103462D01*
X0638456Y0103591D01*
X0638166Y0103713D01*
X0637874Y0103827D01*
X0637578Y0103935D01*
X0637280Y0104035D01*
X0636980Y0104128D01*
X0636677Y0104213D01*
X0636373Y0104291D01*
X0636067Y0104362D01*
X0635759Y0104425D01*
X0635449Y0104481D01*
X0635139Y0104529D01*
X0634827Y0104569D01*
X0634514Y0104602D01*
X0634201Y0104627D01*
X0633887Y0104644D01*
X0633573Y0104654D01*
X0633258Y0104656D01*
X0632944Y0104650D01*
X0632630Y0104637D01*
X0632316Y0104616D01*
X0632003Y0104587D01*
X0631691Y0104551D01*
X0631380Y0104507D01*
X0631070Y0104455D01*
X0630761Y0104396D01*
X0630454Y0104329D01*
X0630148Y0104255D01*
X0629845Y0104174D01*
X0629543Y0104085D01*
X0629244Y0103988D01*
X0628947Y0103885D01*
X0628653Y0103774D01*
X0628362Y0103656D01*
X0628073Y0103531D01*
X0627788Y0103399D01*
X0627506Y0103260D01*
X0627228Y0103114D01*
X0626953Y0102961D01*
X0626682Y0102802D01*
X0626415Y0102636D01*
X0626152Y0102463D01*
X0625893Y0102285D01*
X0625639Y0102100D01*
X0625390Y0101908D01*
X0625145Y0101711D01*
X0624905Y0101508D01*
X0624670Y0101299D01*
X0624440Y0101084D01*
X0624216Y0100864D01*
X0623997Y0100639D01*
X0623784Y0100408D01*
X0623576Y0100172D01*
X0623374Y0099930D01*
X0623179Y0099685D01*
X0622989Y0099434D01*
X0622805Y0099179D01*
X0622628Y0098919D01*
X0622457Y0098655D01*
X0622293Y0098387D01*
X0622135Y0098115D01*
X0621984Y0097840D01*
X0621840Y0097560D01*
X0621702Y0097278D01*
X0621572Y0096992D01*
X0621448Y0096703D01*
X0621332Y0096410D01*
X0621223Y0096116D01*
X0621121Y0095818D01*
X0621027Y0095519D01*
X0620939Y0095216D01*
X0620859Y0094912D01*
X0620787Y0094607D01*
X0620722Y0094299D01*
X0620665Y0093990D01*
X0620615Y0093679D01*
X0620573Y0093368D01*
X0620538Y0093055D01*
X0620512Y0092742D01*
X0620492Y0092428D01*
X0620481Y0092114D01*
X0620477Y0091800D01*
X0620481Y0091486D01*
X0620492Y0091172D01*
X0620512Y0090858D01*
X0620538Y0090545D01*
X0620573Y0090232D01*
X0620615Y0089921D01*
X0620665Y0089610D01*
X0620722Y0089301D01*
X0620787Y0088993D01*
X0620859Y0088688D01*
X0620939Y0088384D01*
X0621027Y0088081D01*
X0621121Y0087782D01*
X0621223Y0087484D01*
X0621332Y0087190D01*
X0621448Y0086897D01*
X0621572Y0086608D01*
X0621702Y0086322D01*
X0621840Y0086040D01*
X0621984Y0085760D01*
X0622135Y0085485D01*
X0622293Y0085213D01*
X0622457Y0084945D01*
X0622628Y0084681D01*
X0622805Y0084421D01*
X0622989Y0084166D01*
X0623179Y0083915D01*
X0623374Y0083670D01*
X0623576Y0083428D01*
X0623784Y0083192D01*
X0623997Y0082961D01*
X0624216Y0082736D01*
X0624440Y0082516D01*
X0624670Y0082301D01*
X0624905Y0082092D01*
X0625145Y0081889D01*
X0625390Y0081692D01*
X0625639Y0081500D01*
X0625893Y0081315D01*
X0626152Y0081137D01*
X0626415Y0080964D01*
X0626682Y0080798D01*
X0626953Y0080639D01*
X0627228Y0080486D01*
X0627506Y0080340D01*
X0627788Y0080201D01*
X0628073Y0080069D01*
X0628362Y0079944D01*
X0628653Y0079826D01*
X0628947Y0079715D01*
X0629244Y0079612D01*
X0629543Y0079515D01*
X0629845Y0079426D01*
X0630148Y0079345D01*
X0630454Y0079271D01*
X0630761Y0079204D01*
X0631070Y0079145D01*
X0631380Y0079093D01*
X0631691Y0079049D01*
X0632003Y0079013D01*
X0632316Y0078984D01*
X0632630Y0078963D01*
X0632944Y0078950D01*
X0633258Y0078944D01*
X0633573Y0078946D01*
X0633887Y0078956D01*
X0634201Y0078973D01*
X0634514Y0078998D01*
X0634827Y0079031D01*
X0635139Y0079071D01*
X0635449Y0079119D01*
X0635759Y0079175D01*
X0636067Y0079238D01*
X0636373Y0079309D01*
X0636677Y0079387D01*
X0636980Y0079472D01*
X0637280Y0079565D01*
X0637578Y0079665D01*
X0637874Y0079773D01*
X0638166Y0079887D01*
X0638456Y0080009D01*
X0638743Y0080138D01*
X0639027Y0080274D01*
X0639307Y0080416D01*
X0639583Y0080566D01*
X0639856Y0080722D01*
X0640125Y0080885D01*
X0640390Y0081054D01*
X0640650Y0081230D01*
X0640907Y0081412D01*
X0641158Y0081600D01*
X0641406Y0081794D01*
X0641648Y0081995D01*
X0641885Y0082201D01*
X0642117Y0082413D01*
X0642344Y0082631D01*
X0642566Y0082854D01*
X0642782Y0083082D01*
X0642992Y0083316D01*
X0643196Y0083554D01*
X0643395Y0083798D01*
X0643588Y0084046D01*
X0643513Y0084103D01*
X0643321Y0083856D01*
X0643124Y0083614D01*
X0642921Y0083377D01*
X0642712Y0083146D01*
X0642498Y0082919D01*
X0642278Y0082697D01*
X0642053Y0082481D01*
X0641822Y0082271D01*
X0641587Y0082066D01*
X0641346Y0081867D01*
X0641101Y0081674D01*
X0640851Y0081488D01*
X0640597Y0081307D01*
X0640338Y0081132D01*
X0640075Y0080964D01*
X0639808Y0080803D01*
X0639537Y0080648D01*
X0639263Y0080499D01*
X0638985Y0080358D01*
X0638703Y0080223D01*
X0638419Y0080095D01*
X0638131Y0079974D01*
X0637840Y0079860D01*
X0637547Y0079754D01*
X0637251Y0079654D01*
X0636953Y0079562D01*
X0636653Y0079477D01*
X0636350Y0079400D01*
X0636046Y0079330D01*
X0635741Y0079267D01*
X0635434Y0079212D01*
X0635125Y0079164D01*
X0634816Y0079124D01*
X0634505Y0079092D01*
X0634194Y0079067D01*
X0633883Y0079050D01*
X0633571Y0079040D01*
X0633259Y0079038D01*
X0632947Y0079044D01*
X0632635Y0079057D01*
X0632324Y0079078D01*
X0632013Y0079106D01*
X0631703Y0079143D01*
X0631394Y0079186D01*
X0631086Y0079237D01*
X0630779Y0079296D01*
X0630475Y0079362D01*
X0630171Y0079436D01*
X0629870Y0079517D01*
X0629571Y0079605D01*
X0629274Y0079701D01*
X0628979Y0079804D01*
X0628687Y0079914D01*
X0628398Y0080031D01*
X0628111Y0080155D01*
X0627828Y0080286D01*
X0627548Y0080424D01*
X0627272Y0080569D01*
X0626999Y0080721D01*
X0626730Y0080879D01*
X0626465Y0081044D01*
X0626204Y0081215D01*
X0625948Y0081392D01*
X0625695Y0081576D01*
X0625448Y0081766D01*
X0625205Y0081961D01*
X0624966Y0082163D01*
X0624733Y0082371D01*
X0624505Y0082584D01*
X0624283Y0082802D01*
X0624065Y0083026D01*
X0623854Y0083255D01*
X0623648Y0083490D01*
X0623447Y0083729D01*
X0623253Y0083973D01*
X0623065Y0084222D01*
X0622882Y0084475D01*
X0622706Y0084733D01*
X0622537Y0084995D01*
X0622374Y0085261D01*
X0622217Y0085531D01*
X0622067Y0085805D01*
X0621924Y0086082D01*
X0621787Y0086362D01*
X0621658Y0086646D01*
X0621535Y0086933D01*
X0621420Y0087223D01*
X0621312Y0087516D01*
X0621210Y0087811D01*
X0621116Y0088109D01*
X0621030Y0088409D01*
X0620951Y0088710D01*
X0620879Y0089014D01*
X0620814Y0089319D01*
X0620757Y0089626D01*
X0620708Y0089934D01*
X0620666Y0090244D01*
X0620632Y0090554D01*
X0620605Y0090865D01*
X0620586Y0091176D01*
X0620575Y0091488D01*
X0620571Y0091800D01*
X0620575Y0092112D01*
X0620586Y0092424D01*
X0620605Y0092735D01*
X0620632Y0093046D01*
X0620666Y0093356D01*
X0620708Y0093666D01*
X0620757Y0093974D01*
X0620814Y0094281D01*
X0620879Y0094586D01*
X0620951Y0094890D01*
X0621030Y0095191D01*
X0621116Y0095491D01*
X0621210Y0095789D01*
X0621312Y0096084D01*
X0621420Y0096377D01*
X0621535Y0096667D01*
X0621658Y0096954D01*
X0621787Y0097238D01*
X0621924Y0097518D01*
X0622067Y0097795D01*
X0622217Y0098069D01*
X0622374Y0098339D01*
X0622537Y0098605D01*
X0622706Y0098867D01*
X0622882Y0099125D01*
X0623065Y0099378D01*
X0623253Y0099627D01*
X0623447Y0099871D01*
X0623648Y0100110D01*
X0623854Y0100345D01*
X0624065Y0100574D01*
X0624283Y0100798D01*
X0624505Y0101016D01*
X0624733Y0101229D01*
X0624966Y0101437D01*
X0625205Y0101639D01*
X0625448Y0101834D01*
X0625695Y0102024D01*
X0625948Y0102208D01*
X0626204Y0102385D01*
X0626465Y0102556D01*
X0626730Y0102721D01*
X0626999Y0102879D01*
X0627272Y0103031D01*
X0627548Y0103176D01*
X0627828Y0103314D01*
X0628111Y0103445D01*
X0628398Y0103569D01*
X0628687Y0103686D01*
X0628979Y0103796D01*
X0629274Y0103899D01*
X0629571Y0103995D01*
X0629870Y0104083D01*
X0630171Y0104164D01*
X0630475Y0104238D01*
X0630779Y0104304D01*
X0631086Y0104363D01*
X0631394Y0104414D01*
X0631703Y0104457D01*
X0632013Y0104494D01*
X0632324Y0104522D01*
X0632635Y0104543D01*
X0632947Y0104556D01*
X0633259Y0104562D01*
X0633571Y0104560D01*
X0633883Y0104550D01*
X0634194Y0104533D01*
X0634505Y0104508D01*
X0634816Y0104476D01*
X0635125Y0104436D01*
X0635434Y0104388D01*
X0635741Y0104333D01*
X0636046Y0104270D01*
X0636350Y0104200D01*
X0636653Y0104123D01*
X0636953Y0104038D01*
X0637251Y0103946D01*
X0637547Y0103846D01*
X0637840Y0103740D01*
X0638131Y0103626D01*
X0638419Y0103505D01*
X0638703Y0103377D01*
X0638985Y0103242D01*
X0639263Y0103101D01*
X0639537Y0102952D01*
X0639808Y0102797D01*
X0640075Y0102636D01*
X0640338Y0102468D01*
X0640597Y0102293D01*
X0640851Y0102112D01*
X0641101Y0101926D01*
X0641346Y0101733D01*
X0641587Y0101534D01*
X0641822Y0101329D01*
X0642053Y0101119D01*
X0642278Y0100903D01*
X0642498Y0100681D01*
X0642712Y0100454D01*
X0642921Y0100223D01*
X0643124Y0099986D01*
X0643321Y0099744D01*
X0643513Y0099497D01*
X0643437Y0099441D01*
X0643247Y0099686D01*
X0643052Y0099926D01*
X0642850Y0100161D01*
X0642643Y0100391D01*
X0642430Y0100616D01*
X0642212Y0100836D01*
X0641988Y0101050D01*
X0641759Y0101259D01*
X0641526Y0101462D01*
X0641287Y0101660D01*
X0641044Y0101851D01*
X0640795Y0102037D01*
X0640543Y0102216D01*
X0640286Y0102389D01*
X0640025Y0102556D01*
X0639760Y0102717D01*
X0639491Y0102870D01*
X0639219Y0103018D01*
X0638943Y0103158D01*
X0638663Y0103292D01*
X0638381Y0103419D01*
X0638095Y0103539D01*
X0637807Y0103652D01*
X0637516Y0103758D01*
X0637222Y0103856D01*
X0636926Y0103948D01*
X0636628Y0104032D01*
X0636328Y0104109D01*
X0636026Y0104178D01*
X0635723Y0104241D01*
X0635418Y0104295D01*
X0635112Y0104343D01*
X0634804Y0104382D01*
X0634496Y0104414D01*
X0634188Y0104439D01*
X0633878Y0104456D01*
X0633569Y0104466D01*
X0633259Y0104468D01*
X0632949Y0104462D01*
X0632640Y0104449D01*
X0632331Y0104428D01*
X0632022Y0104400D01*
X0631715Y0104364D01*
X0631408Y0104321D01*
X0631102Y0104270D01*
X0630798Y0104212D01*
X0630495Y0104146D01*
X0630194Y0104073D01*
X0629895Y0103993D01*
X0629598Y0103905D01*
X0629303Y0103810D01*
X0629011Y0103708D01*
X0628721Y0103599D01*
X0628434Y0103482D01*
X0628150Y0103359D01*
X0627869Y0103229D01*
X0627591Y0103092D01*
X0627317Y0102948D01*
X0627046Y0102798D01*
X0626779Y0102641D01*
X0626516Y0102477D01*
X0626257Y0102307D01*
X0626002Y0102131D01*
X0625751Y0101949D01*
X0625506Y0101760D01*
X0625264Y0101566D01*
X0625028Y0101366D01*
X0624797Y0101160D01*
X0624570Y0100948D01*
X0624349Y0100731D01*
X0624134Y0100509D01*
X0623923Y0100282D01*
X0623719Y0100049D01*
X0623520Y0099811D01*
X0623327Y0099569D01*
X0623140Y0099322D01*
X0622959Y0099071D01*
X0622785Y0098815D01*
X0622616Y0098555D01*
X0622454Y0098291D01*
X0622299Y0098023D01*
X0622150Y0097751D01*
X0622008Y0097476D01*
X0621872Y0097197D01*
X0621744Y0096916D01*
X0621622Y0096631D01*
X0621508Y0096343D01*
X0621400Y0096052D01*
X0621300Y0095759D01*
X0621206Y0095464D01*
X0621120Y0095166D01*
X0621042Y0094867D01*
X0620971Y0094565D01*
X0620907Y0094262D01*
X0620850Y0093958D01*
X0620801Y0093652D01*
X0620760Y0093345D01*
X0620726Y0093037D01*
X0620699Y0092728D01*
X0620680Y0092419D01*
X0620669Y0092110D01*
X0620665Y0091800D01*
X0620669Y0091490D01*
X0620680Y0091181D01*
X0620699Y0090872D01*
X0620726Y0090563D01*
X0620760Y0090255D01*
X0620801Y0089948D01*
X0620850Y0089642D01*
X0620907Y0089338D01*
X0620971Y0089035D01*
X0621042Y0088733D01*
X0621120Y0088434D01*
X0621206Y0088136D01*
X0621300Y0087841D01*
X0621400Y0087548D01*
X0621508Y0087257D01*
X0621622Y0086969D01*
X0621744Y0086684D01*
X0621872Y0086403D01*
X0622008Y0086124D01*
X0622150Y0085849D01*
X0622299Y0085577D01*
X0622454Y0085309D01*
X0622616Y0085045D01*
X0622785Y0084785D01*
X0622959Y0084529D01*
X0623140Y0084278D01*
X0623327Y0084031D01*
X0623520Y0083789D01*
X0623719Y0083551D01*
X0623923Y0083318D01*
X0624134Y0083091D01*
X0624349Y0082869D01*
X0624570Y0082652D01*
X0624797Y0082440D01*
X0625028Y0082234D01*
X0625264Y0082034D01*
X0625506Y0081840D01*
X0625751Y0081651D01*
X0626002Y0081469D01*
X0626257Y0081293D01*
X0626516Y0081123D01*
X0626779Y0080959D01*
X0627046Y0080802D01*
X0627317Y0080652D01*
X0627591Y0080508D01*
X0627869Y0080371D01*
X0628150Y0080241D01*
X0628434Y0080118D01*
X0628721Y0080001D01*
X0629011Y0079892D01*
X0629303Y0079790D01*
X0629598Y0079695D01*
X0629895Y0079607D01*
X0630194Y0079527D01*
X0630495Y0079454D01*
X0630798Y0079388D01*
X0631102Y0079330D01*
X0631408Y0079279D01*
X0631715Y0079236D01*
X0632022Y0079200D01*
X0632331Y0079172D01*
X0632640Y0079151D01*
X0632949Y0079138D01*
X0633259Y0079132D01*
X0633569Y0079134D01*
X0633878Y0079144D01*
X0634188Y0079161D01*
X0634496Y0079186D01*
X0634804Y0079218D01*
X0635112Y0079257D01*
X0635418Y0079305D01*
X0635723Y0079359D01*
X0636026Y0079422D01*
X0636328Y0079491D01*
X0636628Y0079568D01*
X0636926Y0079652D01*
X0637222Y0079744D01*
X0637516Y0079842D01*
X0637807Y0079948D01*
X0638095Y0080061D01*
X0638381Y0080181D01*
X0638663Y0080308D01*
X0638943Y0080442D01*
X0639219Y0080582D01*
X0639491Y0080730D01*
X0639760Y0080883D01*
X0640025Y0081044D01*
X0640286Y0081211D01*
X0640543Y0081384D01*
X0640795Y0081563D01*
X0641044Y0081749D01*
X0641287Y0081940D01*
X0641526Y0082138D01*
X0641759Y0082341D01*
X0641988Y0082550D01*
X0642212Y0082764D01*
X0642430Y0082984D01*
X0642643Y0083209D01*
X0642850Y0083439D01*
X0643052Y0083674D01*
X0643247Y0083914D01*
X0643437Y0084159D01*
X0643362Y0084216D01*
X0643174Y0083973D01*
X0642979Y0083734D01*
X0642779Y0083501D01*
X0642574Y0083273D01*
X0642362Y0083049D01*
X0642146Y0082831D01*
X0641924Y0082618D01*
X0641697Y0082411D01*
X0641465Y0082209D01*
X0641228Y0082013D01*
X0640986Y0081823D01*
X0640740Y0081639D01*
X0640489Y0081461D01*
X0640234Y0081289D01*
X0639975Y0081124D01*
X0639712Y0080964D01*
X0639445Y0080812D01*
X0639175Y0080665D01*
X0638901Y0080526D01*
X0638624Y0080393D01*
X0638343Y0080267D01*
X0638060Y0080148D01*
X0637773Y0080036D01*
X0637484Y0079931D01*
X0637193Y0079833D01*
X0636899Y0079742D01*
X0636603Y0079659D01*
X0636306Y0079582D01*
X0636006Y0079513D01*
X0635705Y0079452D01*
X0635402Y0079397D01*
X0635098Y0079351D01*
X0634793Y0079311D01*
X0634488Y0079279D01*
X0634181Y0079255D01*
X0633874Y0079238D01*
X0633567Y0079228D01*
X0633259Y0079226D01*
X0632952Y0079232D01*
X0632645Y0079245D01*
X0632338Y0079265D01*
X0632032Y0079294D01*
X0631726Y0079329D01*
X0631422Y0079372D01*
X0631119Y0079423D01*
X0630817Y0079480D01*
X0630516Y0079546D01*
X0630217Y0079618D01*
X0629921Y0079698D01*
X0629626Y0079785D01*
X0629333Y0079879D01*
X0629043Y0079981D01*
X0628755Y0080089D01*
X0628470Y0080204D01*
X0628188Y0080327D01*
X0627909Y0080456D01*
X0627633Y0080592D01*
X0627361Y0080735D01*
X0627092Y0080884D01*
X0626827Y0081040D01*
X0626566Y0081202D01*
X0626309Y0081371D01*
X0626056Y0081546D01*
X0625808Y0081727D01*
X0625564Y0081914D01*
X0625324Y0082107D01*
X0625090Y0082305D01*
X0624860Y0082510D01*
X0624635Y0082720D01*
X0624416Y0082935D01*
X0624202Y0083156D01*
X0623993Y0083381D01*
X0623790Y0083612D01*
X0623593Y0083848D01*
X0623401Y0084089D01*
X0623216Y0084334D01*
X0623036Y0084583D01*
X0622863Y0084837D01*
X0622696Y0085095D01*
X0622535Y0085357D01*
X0622381Y0085623D01*
X0622233Y0085893D01*
X0622092Y0086166D01*
X0621957Y0086443D01*
X0621830Y0086722D01*
X0621709Y0087005D01*
X0621595Y0087291D01*
X0621489Y0087579D01*
X0621389Y0087870D01*
X0621296Y0088163D01*
X0621211Y0088459D01*
X0621133Y0088756D01*
X0621062Y0089055D01*
X0620999Y0089356D01*
X0620943Y0089658D01*
X0620894Y0089962D01*
X0620853Y0090267D01*
X0620819Y0090572D01*
X0620793Y0090878D01*
X0620774Y0091185D01*
X0620763Y0091493D01*
X0620759Y0091800D01*
X0620763Y0092107D01*
X0620774Y0092415D01*
X0620793Y0092722D01*
X0620819Y0093028D01*
X0620853Y0093333D01*
X0620894Y0093638D01*
X0620943Y0093942D01*
X0620999Y0094244D01*
X0621062Y0094545D01*
X0621133Y0094844D01*
X0621211Y0095141D01*
X0621296Y0095437D01*
X0621389Y0095730D01*
X0621489Y0096021D01*
X0621595Y0096309D01*
X0621709Y0096595D01*
X0621830Y0096878D01*
X0621957Y0097157D01*
X0622092Y0097434D01*
X0622233Y0097707D01*
X0622381Y0097977D01*
X0622535Y0098243D01*
X0622696Y0098505D01*
X0622863Y0098763D01*
X0623036Y0099017D01*
X0623216Y0099266D01*
X0623401Y0099511D01*
X0623593Y0099752D01*
X0623790Y0099988D01*
X0623993Y0100219D01*
X0624202Y0100444D01*
X0624416Y0100665D01*
X0624635Y0100880D01*
X0624860Y0101090D01*
X0625090Y0101295D01*
X0625324Y0101493D01*
X0625564Y0101686D01*
X0625808Y0101873D01*
X0626056Y0102054D01*
X0626309Y0102229D01*
X0626566Y0102398D01*
X0626827Y0102560D01*
X0627092Y0102716D01*
X0627361Y0102865D01*
X0627633Y0103008D01*
X0627909Y0103144D01*
X0628188Y0103273D01*
X0628470Y0103396D01*
X0628755Y0103511D01*
X0629043Y0103619D01*
X0629333Y0103721D01*
X0629626Y0103815D01*
X0629921Y0103902D01*
X0630217Y0103982D01*
X0630516Y0104054D01*
X0630817Y0104120D01*
X0631119Y0104177D01*
X0631422Y0104228D01*
X0631726Y0104271D01*
X0632032Y0104306D01*
X0632338Y0104335D01*
X0632645Y0104355D01*
X0632952Y0104368D01*
X0633259Y0104374D01*
X0633567Y0104372D01*
X0633874Y0104362D01*
X0634181Y0104345D01*
X0634488Y0104321D01*
X0634793Y0104289D01*
X0635098Y0104249D01*
X0635402Y0104203D01*
X0635705Y0104148D01*
X0636006Y0104087D01*
X0636306Y0104018D01*
X0636603Y0103941D01*
X0636899Y0103858D01*
X0637193Y0103767D01*
X0637484Y0103669D01*
X0637773Y0103564D01*
X0638060Y0103452D01*
X0638343Y0103333D01*
X0638624Y0103207D01*
X0638901Y0103074D01*
X0639175Y0102935D01*
X0639445Y0102788D01*
X0639712Y0102636D01*
X0639975Y0102476D01*
X0640234Y0102311D01*
X0640489Y0102139D01*
X0640740Y0101961D01*
X0640986Y0101777D01*
X0641228Y0101587D01*
X0641465Y0101391D01*
X0641697Y0101189D01*
X0641924Y0100982D01*
X0642146Y0100769D01*
X0642362Y0100551D01*
X0642574Y0100327D01*
X0642779Y0100099D01*
X0642979Y0099866D01*
X0643174Y0099627D01*
X0643362Y0099384D01*
X0643287Y0099328D01*
X0643100Y0099569D01*
X0642907Y0099806D01*
X0642708Y0100037D01*
X0642504Y0100264D01*
X0642295Y0100486D01*
X0642080Y0100702D01*
X0641859Y0100913D01*
X0641634Y0101119D01*
X0641404Y0101319D01*
X0641168Y0101514D01*
X0640929Y0101702D01*
X0640684Y0101885D01*
X0640435Y0102062D01*
X0640182Y0102232D01*
X0639925Y0102397D01*
X0639664Y0102555D01*
X0639399Y0102706D01*
X0639131Y0102851D01*
X0638859Y0102990D01*
X0638584Y0103122D01*
X0638305Y0103247D01*
X0638024Y0103365D01*
X0637740Y0103476D01*
X0637453Y0103580D01*
X0637164Y0103678D01*
X0636872Y0103768D01*
X0636579Y0103851D01*
X0636283Y0103926D01*
X0635986Y0103995D01*
X0635687Y0104056D01*
X0635386Y0104110D01*
X0635085Y0104156D01*
X0634782Y0104196D01*
X0634479Y0104227D01*
X0634174Y0104252D01*
X0633870Y0104268D01*
X0633565Y0104278D01*
X0633260Y0104280D01*
X0632955Y0104274D01*
X0632650Y0104261D01*
X0632345Y0104241D01*
X0632041Y0104213D01*
X0631738Y0104178D01*
X0631436Y0104135D01*
X0631135Y0104085D01*
X0630835Y0104028D01*
X0630537Y0103963D01*
X0630241Y0103891D01*
X0629946Y0103812D01*
X0629653Y0103725D01*
X0629363Y0103632D01*
X0629075Y0103531D01*
X0628789Y0103423D01*
X0628506Y0103309D01*
X0628226Y0103187D01*
X0627949Y0103059D01*
X0627676Y0102924D01*
X0627406Y0102783D01*
X0627139Y0102634D01*
X0626876Y0102480D01*
X0626617Y0102319D01*
X0626361Y0102151D01*
X0626110Y0101978D01*
X0625864Y0101798D01*
X0625622Y0101612D01*
X0625384Y0101421D01*
X0625151Y0101224D01*
X0624923Y0101021D01*
X0624700Y0100812D01*
X0624482Y0100599D01*
X0624270Y0100380D01*
X0624063Y0100156D01*
X0623861Y0099926D01*
X0623665Y0099692D01*
X0623475Y0099454D01*
X0623291Y0099210D01*
X0623113Y0098963D01*
X0622941Y0098711D01*
X0622775Y0098454D01*
X0622616Y0098194D01*
X0622462Y0097930D01*
X0622316Y0097663D01*
X0622176Y0097392D01*
X0622042Y0097117D01*
X0621916Y0096840D01*
X0621796Y0096559D01*
X0621683Y0096275D01*
X0621577Y0095989D01*
X0621478Y0095701D01*
X0621386Y0095410D01*
X0621302Y0095116D01*
X0621224Y0094821D01*
X0621154Y0094524D01*
X0621091Y0094226D01*
X0621035Y0093926D01*
X0620987Y0093624D01*
X0620946Y0093322D01*
X0620913Y0093019D01*
X0620887Y0092715D01*
X0620868Y0092410D01*
X0620857Y0092105D01*
X0620853Y0091800D01*
X0620857Y0091495D01*
X0620868Y0091190D01*
X0620887Y0090885D01*
X0620913Y0090581D01*
X0620946Y0090278D01*
X0620987Y0089976D01*
X0621035Y0089674D01*
X0621091Y0089374D01*
X0621154Y0089076D01*
X0621224Y0088779D01*
X0621302Y0088484D01*
X0621386Y0088190D01*
X0621478Y0087899D01*
X0621577Y0087611D01*
X0621683Y0087325D01*
X0621796Y0087041D01*
X0621916Y0086760D01*
X0622042Y0086483D01*
X0622176Y0086208D01*
X0622316Y0085937D01*
X0622462Y0085670D01*
X0622616Y0085406D01*
X0622775Y0085146D01*
X0622941Y0084889D01*
X0623113Y0084637D01*
X0623291Y0084390D01*
X0623475Y0084146D01*
X0623665Y0083908D01*
X0623861Y0083674D01*
X0624063Y0083444D01*
X0624270Y0083220D01*
X0624482Y0083001D01*
X0624700Y0082788D01*
X0624923Y0082579D01*
X0625151Y0082376D01*
X0625384Y0082179D01*
X0625622Y0081988D01*
X0625864Y0081802D01*
X0626110Y0081622D01*
X0626361Y0081449D01*
X0626617Y0081281D01*
X0626876Y0081120D01*
X0627139Y0080966D01*
X0627406Y0080817D01*
X0627676Y0080676D01*
X0627949Y0080541D01*
X0628226Y0080413D01*
X0628506Y0080291D01*
X0628789Y0080177D01*
X0629075Y0080069D01*
X0629363Y0079968D01*
X0629653Y0079875D01*
X0629946Y0079788D01*
X0630241Y0079709D01*
X0630537Y0079637D01*
X0630835Y0079572D01*
X0631135Y0079515D01*
X0631436Y0079465D01*
X0631738Y0079422D01*
X0632041Y0079387D01*
X0632345Y0079359D01*
X0632650Y0079339D01*
X0632955Y0079326D01*
X0633260Y0079320D01*
X0633565Y0079322D01*
X0633870Y0079332D01*
X0634174Y0079348D01*
X0634479Y0079373D01*
X0634782Y0079404D01*
X0635085Y0079444D01*
X0635386Y0079490D01*
X0635687Y0079544D01*
X0635986Y0079605D01*
X0636283Y0079674D01*
X0636579Y0079749D01*
X0636872Y0079832D01*
X0637164Y0079922D01*
X0637453Y0080020D01*
X0637740Y0080124D01*
X0638024Y0080235D01*
X0638305Y0080353D01*
X0638584Y0080478D01*
X0638859Y0080610D01*
X0639131Y0080749D01*
X0639399Y0080894D01*
X0639664Y0081045D01*
X0639925Y0081203D01*
X0640182Y0081368D01*
X0640435Y0081538D01*
X0640684Y0081715D01*
X0640929Y0081898D01*
X0641168Y0082086D01*
X0641404Y0082281D01*
X0641634Y0082481D01*
X0641859Y0082687D01*
X0642080Y0082898D01*
X0642295Y0083114D01*
X0642504Y0083336D01*
X0642708Y0083563D01*
X0642907Y0083794D01*
X0643100Y0084031D01*
X0643287Y0084272D01*
X0643212Y0084328D01*
X0643026Y0084089D01*
X0642835Y0083854D01*
X0642638Y0083625D01*
X0642435Y0083400D01*
X0642227Y0083179D01*
X0642013Y0082965D01*
X0641795Y0082755D01*
X0641571Y0082551D01*
X0641343Y0082352D01*
X0641109Y0082159D01*
X0640871Y0081972D01*
X0640629Y0081791D01*
X0640382Y0081615D01*
X0640131Y0081446D01*
X0639875Y0081283D01*
X0639616Y0081126D01*
X0639353Y0080976D01*
X0639087Y0080832D01*
X0638817Y0080694D01*
X0638544Y0080563D01*
X0638268Y0080439D01*
X0637988Y0080322D01*
X0637706Y0080212D01*
X0637422Y0080108D01*
X0637135Y0080012D01*
X0636845Y0079922D01*
X0636554Y0079840D01*
X0636261Y0079765D01*
X0635965Y0079697D01*
X0635669Y0079636D01*
X0635371Y0079583D01*
X0635071Y0079537D01*
X0634771Y0079498D01*
X0634470Y0079466D01*
X0634168Y0079442D01*
X0633865Y0079425D01*
X0633563Y0079416D01*
X0633260Y0079414D01*
X0632957Y0079420D01*
X0632655Y0079433D01*
X0632352Y0079453D01*
X0632051Y0079481D01*
X0631750Y0079516D01*
X0631450Y0079558D01*
X0631151Y0079608D01*
X0630854Y0079665D01*
X0630558Y0079729D01*
X0630264Y0079800D01*
X0629971Y0079879D01*
X0629681Y0079965D01*
X0629392Y0080058D01*
X0629107Y0080157D01*
X0628823Y0080264D01*
X0628543Y0080378D01*
X0628265Y0080498D01*
X0627990Y0080626D01*
X0627718Y0080760D01*
X0627450Y0080900D01*
X0627185Y0081047D01*
X0626924Y0081201D01*
X0626667Y0081361D01*
X0626414Y0081527D01*
X0626165Y0081699D01*
X0625920Y0081877D01*
X0625679Y0082062D01*
X0625444Y0082252D01*
X0625213Y0082447D01*
X0624986Y0082649D01*
X0624765Y0082855D01*
X0624549Y0083068D01*
X0624338Y0083285D01*
X0624133Y0083507D01*
X0623933Y0083735D01*
X0623738Y0083967D01*
X0623550Y0084204D01*
X0623367Y0084446D01*
X0623190Y0084691D01*
X0623019Y0084942D01*
X0622855Y0085196D01*
X0622696Y0085454D01*
X0622544Y0085716D01*
X0622399Y0085981D01*
X0622260Y0086250D01*
X0622127Y0086523D01*
X0622002Y0086798D01*
X0621883Y0087077D01*
X0621771Y0087358D01*
X0621666Y0087642D01*
X0621567Y0087929D01*
X0621476Y0088218D01*
X0621392Y0088509D01*
X0621315Y0088802D01*
X0621246Y0089096D01*
X0621183Y0089393D01*
X0621128Y0089690D01*
X0621080Y0089989D01*
X0621039Y0090289D01*
X0621006Y0090591D01*
X0620980Y0090892D01*
X0620962Y0091195D01*
X0620951Y0091497D01*
X0620947Y0091800D01*
X0620951Y0092103D01*
X0620962Y0092405D01*
X0620980Y0092708D01*
X0621006Y0093009D01*
X0621039Y0093311D01*
X0621080Y0093611D01*
X0621128Y0093910D01*
X0621183Y0094207D01*
X0621246Y0094504D01*
X0621315Y0094798D01*
X0621392Y0095091D01*
X0621476Y0095382D01*
X0621567Y0095671D01*
X0621666Y0095958D01*
X0621771Y0096242D01*
X0621883Y0096523D01*
X0622002Y0096802D01*
X0622127Y0097077D01*
X0622260Y0097350D01*
X0622399Y0097619D01*
X0622544Y0097884D01*
X0622696Y0098146D01*
X0622855Y0098404D01*
X0623019Y0098658D01*
X0623190Y0098909D01*
X0623367Y0099154D01*
X0623550Y0099396D01*
X0623738Y0099633D01*
X0623933Y0099865D01*
X0624133Y0100093D01*
X0624338Y0100315D01*
X0624549Y0100532D01*
X0624765Y0100745D01*
X0624986Y0100951D01*
X0625213Y0101153D01*
X0625444Y0101348D01*
X0625679Y0101538D01*
X0625920Y0101723D01*
X0626165Y0101901D01*
X0626414Y0102073D01*
X0626667Y0102239D01*
X0626924Y0102399D01*
X0627185Y0102553D01*
X0627450Y0102700D01*
X0627718Y0102840D01*
X0627990Y0102974D01*
X0628265Y0103102D01*
X0628543Y0103222D01*
X0628823Y0103336D01*
X0629107Y0103443D01*
X0629392Y0103542D01*
X0629681Y0103635D01*
X0629971Y0103721D01*
X0630264Y0103800D01*
X0630558Y0103871D01*
X0630854Y0103935D01*
X0631151Y0103992D01*
X0631450Y0104042D01*
X0631750Y0104084D01*
X0632051Y0104119D01*
X0632352Y0104147D01*
X0632655Y0104167D01*
X0632957Y0104180D01*
X0633260Y0104186D01*
X0633563Y0104184D01*
X0633865Y0104175D01*
X0634168Y0104158D01*
X0634470Y0104134D01*
X0634771Y0104102D01*
X0635071Y0104063D01*
X0635371Y0104017D01*
X0635669Y0103964D01*
X0635965Y0103903D01*
X0636261Y0103835D01*
X0636554Y0103760D01*
X0636845Y0103678D01*
X0637135Y0103588D01*
X0637422Y0103492D01*
X0637706Y0103388D01*
X0637988Y0103278D01*
X0638268Y0103161D01*
X0638544Y0103037D01*
X0638817Y0102906D01*
X0639087Y0102768D01*
X0639353Y0102624D01*
X0639616Y0102474D01*
X0639875Y0102317D01*
X0640131Y0102154D01*
X0640382Y0101985D01*
X0640629Y0101809D01*
X0640871Y0101628D01*
X0641109Y0101441D01*
X0641343Y0101248D01*
X0641571Y0101049D01*
X0641795Y0100845D01*
X0642013Y0100635D01*
X0642227Y0100421D01*
X0642435Y0100200D01*
X0642638Y0099975D01*
X0642835Y0099746D01*
X0643026Y0099511D01*
X0643212Y0099272D01*
X0643137Y0099215D01*
X0642952Y0099453D01*
X0642762Y0099685D01*
X0642567Y0099914D01*
X0642366Y0100137D01*
X0642159Y0100355D01*
X0641947Y0100569D01*
X0641730Y0100777D01*
X0641508Y0100979D01*
X0641281Y0101176D01*
X0641050Y0101368D01*
X0640814Y0101554D01*
X0640573Y0101734D01*
X0640328Y0101908D01*
X0640079Y0102076D01*
X0639825Y0102238D01*
X0639568Y0102393D01*
X0639307Y0102542D01*
X0639043Y0102685D01*
X0638775Y0102822D01*
X0638504Y0102951D01*
X0638230Y0103074D01*
X0637953Y0103191D01*
X0637673Y0103300D01*
X0637390Y0103403D01*
X0637106Y0103499D01*
X0636818Y0103587D01*
X0636529Y0103669D01*
X0636238Y0103744D01*
X0635945Y0103811D01*
X0635651Y0103872D01*
X0635355Y0103925D01*
X0635058Y0103970D01*
X0634760Y0104009D01*
X0634461Y0104040D01*
X0634161Y0104064D01*
X0633861Y0104081D01*
X0633561Y0104090D01*
X0633260Y0104092D01*
X0632960Y0104086D01*
X0632659Y0104074D01*
X0632360Y0104053D01*
X0632060Y0104026D01*
X0631762Y0103991D01*
X0631464Y0103949D01*
X0631168Y0103900D01*
X0630873Y0103843D01*
X0630579Y0103779D01*
X0630287Y0103709D01*
X0629997Y0103631D01*
X0629708Y0103545D01*
X0629422Y0103453D01*
X0629138Y0103354D01*
X0628857Y0103248D01*
X0628579Y0103135D01*
X0628303Y0103016D01*
X0628030Y0102889D01*
X0627761Y0102756D01*
X0627495Y0102617D01*
X0627232Y0102471D01*
X0626973Y0102319D01*
X0626717Y0102160D01*
X0626466Y0101995D01*
X0626219Y0101824D01*
X0625976Y0101647D01*
X0625737Y0101464D01*
X0625503Y0101276D01*
X0625274Y0101082D01*
X0625050Y0100882D01*
X0624830Y0100677D01*
X0624616Y0100466D01*
X0624406Y0100250D01*
X0624202Y0100030D01*
X0624004Y0099804D01*
X0623811Y0099573D01*
X0623624Y0099338D01*
X0623442Y0099099D01*
X0623267Y0098855D01*
X0623097Y0098606D01*
X0622934Y0098354D01*
X0622777Y0098098D01*
X0622626Y0097838D01*
X0622482Y0097574D01*
X0622344Y0097307D01*
X0622212Y0097037D01*
X0622088Y0096764D01*
X0621970Y0096487D01*
X0621859Y0096208D01*
X0621754Y0095926D01*
X0621657Y0095642D01*
X0621566Y0095355D01*
X0621483Y0095066D01*
X0621407Y0094776D01*
X0621337Y0094483D01*
X0621275Y0094189D01*
X0621221Y0093894D01*
X0621173Y0093597D01*
X0621133Y0093299D01*
X0621100Y0093000D01*
X0621074Y0092701D01*
X0621056Y0092401D01*
X0621045Y0092101D01*
X0621041Y0091800D01*
X0621045Y0091499D01*
X0621056Y0091199D01*
X0621074Y0090899D01*
X0621100Y0090600D01*
X0621133Y0090301D01*
X0621173Y0090003D01*
X0621221Y0089706D01*
X0621275Y0089411D01*
X0621337Y0089117D01*
X0621407Y0088824D01*
X0621483Y0088534D01*
X0621566Y0088245D01*
X0621657Y0087958D01*
X0621754Y0087674D01*
X0621859Y0087392D01*
X0621970Y0087113D01*
X0622088Y0086836D01*
X0622212Y0086563D01*
X0622344Y0086293D01*
X0622482Y0086026D01*
X0622626Y0085762D01*
X0622777Y0085502D01*
X0622934Y0085246D01*
X0623097Y0084994D01*
X0623267Y0084745D01*
X0623442Y0084501D01*
X0623624Y0084262D01*
X0623811Y0084027D01*
X0624004Y0083796D01*
X0624202Y0083570D01*
X0624406Y0083350D01*
X0624616Y0083134D01*
X0624830Y0082923D01*
X0625050Y0082718D01*
X0625274Y0082518D01*
X0625503Y0082324D01*
X0625737Y0082136D01*
X0625976Y0081953D01*
X0626219Y0081776D01*
X0626466Y0081605D01*
X0626717Y0081440D01*
X0626973Y0081281D01*
X0627232Y0081129D01*
X0627495Y0080983D01*
X0627761Y0080844D01*
X0628030Y0080711D01*
X0628303Y0080584D01*
X0628579Y0080465D01*
X0628857Y0080352D01*
X0629138Y0080246D01*
X0629422Y0080147D01*
X0629708Y0080055D01*
X0629997Y0079969D01*
X0630287Y0079891D01*
X0630579Y0079821D01*
X0630873Y0079757D01*
X0631168Y0079700D01*
X0631464Y0079651D01*
X0631762Y0079609D01*
X0632060Y0079574D01*
X0632360Y0079547D01*
X0632659Y0079526D01*
X0632960Y0079514D01*
X0633260Y0079508D01*
X0633561Y0079510D01*
X0633861Y0079519D01*
X0634161Y0079536D01*
X0634461Y0079560D01*
X0634760Y0079591D01*
X0635058Y0079630D01*
X0635355Y0079675D01*
X0635651Y0079728D01*
X0635945Y0079789D01*
X0636238Y0079856D01*
X0636529Y0079931D01*
X0636818Y0080013D01*
X0637106Y0080101D01*
X0637390Y0080197D01*
X0637673Y0080300D01*
X0637953Y0080409D01*
X0638230Y0080526D01*
X0638504Y0080649D01*
X0638775Y0080778D01*
X0639043Y0080915D01*
X0639307Y0081058D01*
X0639568Y0081207D01*
X0639825Y0081362D01*
X0640079Y0081524D01*
X0640328Y0081692D01*
X0640573Y0081866D01*
X0640814Y0082046D01*
X0641050Y0082232D01*
X0641281Y0082424D01*
X0641508Y0082621D01*
X0641730Y0082823D01*
X0641947Y0083031D01*
X0642159Y0083245D01*
X0642366Y0083463D01*
X0642567Y0083686D01*
X0642762Y0083915D01*
X0642952Y0084147D01*
X0643137Y0084385D01*
X0643061Y0084441D01*
X0642879Y0084206D01*
X0642690Y0083975D01*
X0642496Y0083748D01*
X0642296Y0083526D01*
X0642091Y0083310D01*
X0641881Y0083098D01*
X0641666Y0082892D01*
X0641446Y0082691D01*
X0641220Y0082495D01*
X0640991Y0082305D01*
X0640756Y0082121D01*
X0640517Y0081942D01*
X0640274Y0081769D01*
X0640027Y0081603D01*
X0639775Y0081442D01*
X0639520Y0081288D01*
X0639261Y0081140D01*
X0638999Y0080998D01*
X0638733Y0080863D01*
X0638464Y0080734D01*
X0638192Y0080612D01*
X0637917Y0080496D01*
X0637639Y0080387D01*
X0637359Y0080286D01*
X0637076Y0080191D01*
X0636791Y0080103D01*
X0636504Y0080022D01*
X0636216Y0079947D01*
X0635925Y0079881D01*
X0635633Y0079821D01*
X0635339Y0079768D01*
X0635044Y0079723D01*
X0634749Y0079684D01*
X0634452Y0079653D01*
X0634155Y0079630D01*
X0633857Y0079613D01*
X0633559Y0079604D01*
X0633261Y0079602D01*
X0632962Y0079608D01*
X0632664Y0079620D01*
X0632367Y0079640D01*
X0632070Y0079668D01*
X0631774Y0079702D01*
X0631478Y0079744D01*
X0631184Y0079793D01*
X0630891Y0079849D01*
X0630600Y0079912D01*
X0630310Y0079983D01*
X0630022Y0080060D01*
X0629736Y0080144D01*
X0629452Y0080236D01*
X0629170Y0080334D01*
X0628891Y0080439D01*
X0628615Y0080551D01*
X0628341Y0080670D01*
X0628071Y0080795D01*
X0627803Y0080927D01*
X0627539Y0081066D01*
X0627278Y0081211D01*
X0627021Y0081362D01*
X0626768Y0081519D01*
X0626519Y0081683D01*
X0626273Y0081853D01*
X0626032Y0082028D01*
X0625795Y0082210D01*
X0625563Y0082397D01*
X0625336Y0082589D01*
X0625113Y0082788D01*
X0624895Y0082991D01*
X0624682Y0083200D01*
X0624474Y0083414D01*
X0624272Y0083634D01*
X0624075Y0083857D01*
X0623884Y0084086D01*
X0623698Y0084320D01*
X0623518Y0084557D01*
X0623344Y0084799D01*
X0623176Y0085046D01*
X0623014Y0085296D01*
X0622858Y0085550D01*
X0622708Y0085808D01*
X0622565Y0086070D01*
X0622428Y0086335D01*
X0622297Y0086603D01*
X0622174Y0086874D01*
X0622057Y0087149D01*
X0621946Y0087426D01*
X0621843Y0087706D01*
X0621746Y0087988D01*
X0621656Y0088272D01*
X0621574Y0088559D01*
X0621498Y0088847D01*
X0621429Y0089137D01*
X0621368Y0089429D01*
X0621313Y0089722D01*
X0621266Y0090017D01*
X0621226Y0090312D01*
X0621193Y0090609D01*
X0621168Y0090906D01*
X0621150Y0091204D01*
X0621139Y0091502D01*
X0621135Y0091800D01*
X0621139Y0092098D01*
X0621150Y0092396D01*
X0621168Y0092694D01*
X0621193Y0092991D01*
X0621226Y0093288D01*
X0621266Y0093583D01*
X0621313Y0093878D01*
X0621368Y0094171D01*
X0621429Y0094463D01*
X0621498Y0094753D01*
X0621574Y0095041D01*
X0621656Y0095328D01*
X0621746Y0095612D01*
X0621843Y0095894D01*
X0621946Y0096174D01*
X0622057Y0096451D01*
X0622174Y0096726D01*
X0622297Y0096997D01*
X0622428Y0097265D01*
X0622565Y0097530D01*
X0622708Y0097792D01*
X0622858Y0098050D01*
X0623014Y0098304D01*
X0623176Y0098554D01*
X0623344Y0098801D01*
X0623518Y0099043D01*
X0623698Y0099280D01*
X0623884Y0099514D01*
X0624075Y0099743D01*
X0624272Y0099966D01*
X0624474Y0100186D01*
X0624682Y0100400D01*
X0624895Y0100609D01*
X0625113Y0100812D01*
X0625336Y0101011D01*
X0625563Y0101203D01*
X0625795Y0101390D01*
X0626032Y0101572D01*
X0626273Y0101747D01*
X0626519Y0101917D01*
X0626768Y0102081D01*
X0627021Y0102238D01*
X0627278Y0102389D01*
X0627539Y0102534D01*
X0627803Y0102673D01*
X0628071Y0102805D01*
X0628341Y0102930D01*
X0628615Y0103049D01*
X0628891Y0103161D01*
X0629170Y0103266D01*
X0629452Y0103364D01*
X0629736Y0103456D01*
X0630022Y0103540D01*
X0630310Y0103617D01*
X0630600Y0103688D01*
X0630891Y0103751D01*
X0631184Y0103807D01*
X0631478Y0103856D01*
X0631774Y0103898D01*
X0632070Y0103932D01*
X0632367Y0103960D01*
X0632664Y0103980D01*
X0632962Y0103992D01*
X0633261Y0103998D01*
X0633559Y0103996D01*
X0633857Y0103987D01*
X0634155Y0103970D01*
X0634452Y0103947D01*
X0634749Y0103916D01*
X0635044Y0103877D01*
X0635339Y0103832D01*
X0635633Y0103779D01*
X0635925Y0103719D01*
X0636216Y0103653D01*
X0636504Y0103578D01*
X0636791Y0103497D01*
X0637076Y0103409D01*
X0637359Y0103314D01*
X0637639Y0103213D01*
X0637917Y0103104D01*
X0638192Y0102988D01*
X0638464Y0102866D01*
X0638733Y0102737D01*
X0638999Y0102602D01*
X0639261Y0102460D01*
X0639520Y0102312D01*
X0639775Y0102158D01*
X0640027Y0101997D01*
X0640274Y0101831D01*
X0640517Y0101658D01*
X0640756Y0101479D01*
X0640991Y0101295D01*
X0641220Y0101105D01*
X0641446Y0100909D01*
X0641666Y0100708D01*
X0641881Y0100502D01*
X0642091Y0100290D01*
X0642296Y0100074D01*
X0642496Y0099852D01*
X0642690Y0099625D01*
X0642879Y0099394D01*
X0643061Y0099159D01*
X0642986Y0099102D01*
X0642805Y0099336D01*
X0642618Y0099565D01*
X0642425Y0099790D01*
X0642227Y0100010D01*
X0642024Y0100225D01*
X0641815Y0100435D01*
X0641601Y0100640D01*
X0641383Y0100839D01*
X0641159Y0101033D01*
X0640931Y0101222D01*
X0640699Y0101405D01*
X0640462Y0101582D01*
X0640220Y0101753D01*
X0639975Y0101919D01*
X0639726Y0102078D01*
X0639472Y0102231D01*
X0639216Y0102378D01*
X0638955Y0102519D01*
X0638691Y0102653D01*
X0638424Y0102781D01*
X0638154Y0102902D01*
X0637882Y0103017D01*
X0637606Y0103125D01*
X0637328Y0103226D01*
X0637047Y0103320D01*
X0636765Y0103407D01*
X0636480Y0103488D01*
X0636193Y0103561D01*
X0635905Y0103628D01*
X0635615Y0103687D01*
X0635323Y0103739D01*
X0635031Y0103784D01*
X0634737Y0103822D01*
X0634443Y0103853D01*
X0634148Y0103877D01*
X0633853Y0103893D01*
X0633557Y0103902D01*
X0633261Y0103904D01*
X0632965Y0103898D01*
X0632669Y0103886D01*
X0632374Y0103866D01*
X0632079Y0103839D01*
X0631785Y0103805D01*
X0631492Y0103763D01*
X0631200Y0103715D01*
X0630910Y0103659D01*
X0630621Y0103596D01*
X0630333Y0103526D01*
X0630047Y0103449D01*
X0629763Y0103366D01*
X0629482Y0103275D01*
X0629202Y0103177D01*
X0628925Y0103073D01*
X0628651Y0102962D01*
X0628380Y0102844D01*
X0628111Y0102720D01*
X0627846Y0102589D01*
X0627584Y0102451D01*
X0627325Y0102308D01*
X0627070Y0102158D01*
X0626818Y0102001D01*
X0626571Y0101839D01*
X0626328Y0101671D01*
X0626088Y0101496D01*
X0625853Y0101316D01*
X0625623Y0101131D01*
X0625397Y0100939D01*
X0625176Y0100743D01*
X0624960Y0100541D01*
X0624749Y0100333D01*
X0624543Y0100121D01*
X0624342Y0099903D01*
X0624146Y0099681D01*
X0623956Y0099454D01*
X0623772Y0099223D01*
X0623594Y0098987D01*
X0623421Y0098747D01*
X0623254Y0098502D01*
X0623093Y0098254D01*
X0622938Y0098001D01*
X0622790Y0097745D01*
X0622648Y0097486D01*
X0622512Y0097223D01*
X0622382Y0096957D01*
X0622260Y0096688D01*
X0622143Y0096415D01*
X0622034Y0096140D01*
X0621931Y0095863D01*
X0621835Y0095583D01*
X0621746Y0095301D01*
X0621664Y0095016D01*
X0621589Y0094730D01*
X0621521Y0094442D01*
X0621460Y0094153D01*
X0621406Y0093862D01*
X0621359Y0093569D01*
X0621319Y0093276D01*
X0621287Y0092982D01*
X0621262Y0092687D01*
X0621243Y0092392D01*
X0621233Y0092096D01*
X0621229Y0091800D01*
X0621233Y0091504D01*
X0621243Y0091208D01*
X0621262Y0090913D01*
X0621287Y0090618D01*
X0621319Y0090324D01*
X0621359Y0090031D01*
X0621406Y0089738D01*
X0621460Y0089447D01*
X0621521Y0089158D01*
X0621589Y0088870D01*
X0621664Y0088584D01*
X0621746Y0088299D01*
X0621835Y0088017D01*
X0621931Y0087737D01*
X0622034Y0087460D01*
X0622143Y0087185D01*
X0622260Y0086912D01*
X0622382Y0086643D01*
X0622512Y0086377D01*
X0622648Y0086114D01*
X0622790Y0085855D01*
X0622938Y0085599D01*
X0623093Y0085346D01*
X0623254Y0085098D01*
X0623421Y0084853D01*
X0623594Y0084613D01*
X0623772Y0084377D01*
X0623956Y0084146D01*
X0624146Y0083919D01*
X0624342Y0083697D01*
X0624543Y0083479D01*
X0624749Y0083267D01*
X0624960Y0083059D01*
X0625176Y0082857D01*
X0625397Y0082661D01*
X0625623Y0082469D01*
X0625853Y0082284D01*
X0626088Y0082104D01*
X0626328Y0081929D01*
X0626571Y0081761D01*
X0626818Y0081599D01*
X0627070Y0081442D01*
X0627325Y0081292D01*
X0627584Y0081149D01*
X0627846Y0081011D01*
X0628111Y0080880D01*
X0628380Y0080756D01*
X0628651Y0080638D01*
X0628925Y0080527D01*
X0629202Y0080423D01*
X0629482Y0080325D01*
X0629763Y0080234D01*
X0630047Y0080151D01*
X0630333Y0080074D01*
X0630621Y0080004D01*
X0630910Y0079941D01*
X0631200Y0079885D01*
X0631492Y0079837D01*
X0631785Y0079795D01*
X0632079Y0079761D01*
X0632374Y0079734D01*
X0632669Y0079714D01*
X0632965Y0079702D01*
X0633261Y0079696D01*
X0633557Y0079698D01*
X0633853Y0079707D01*
X0634148Y0079723D01*
X0634443Y0079747D01*
X0634737Y0079778D01*
X0635031Y0079816D01*
X0635323Y0079861D01*
X0635615Y0079913D01*
X0635905Y0079972D01*
X0636193Y0080039D01*
X0636480Y0080112D01*
X0636765Y0080193D01*
X0637047Y0080280D01*
X0637328Y0080374D01*
X0637606Y0080475D01*
X0637882Y0080583D01*
X0638154Y0080698D01*
X0638424Y0080819D01*
X0638691Y0080947D01*
X0638955Y0081081D01*
X0639216Y0081222D01*
X0639472Y0081369D01*
X0639726Y0081522D01*
X0639975Y0081681D01*
X0640220Y0081847D01*
X0640462Y0082018D01*
X0640699Y0082195D01*
X0640931Y0082378D01*
X0641159Y0082567D01*
X0641383Y0082761D01*
X0641601Y0082960D01*
X0641815Y0083165D01*
X0642024Y0083375D01*
X0642227Y0083590D01*
X0642425Y0083810D01*
X0642618Y0084035D01*
X0642805Y0084264D01*
X0642986Y0084498D01*
X0643662Y0059609D02*
X0642942Y0059069D01*
X0642943Y0059070D02*
X0642762Y0059303D01*
X0642576Y0059531D01*
X0642384Y0059755D01*
X0642187Y0059974D01*
X0641985Y0060188D01*
X0641777Y0060397D01*
X0641564Y0060600D01*
X0641347Y0060799D01*
X0641124Y0060992D01*
X0640897Y0061180D01*
X0640666Y0061362D01*
X0640430Y0061539D01*
X0640189Y0061709D01*
X0639945Y0061874D01*
X0639697Y0062032D01*
X0639445Y0062185D01*
X0639189Y0062331D01*
X0638930Y0062471D01*
X0638667Y0062605D01*
X0638402Y0062732D01*
X0638133Y0062853D01*
X0637861Y0062967D01*
X0637587Y0063074D01*
X0637310Y0063175D01*
X0637031Y0063269D01*
X0636749Y0063356D01*
X0636466Y0063436D01*
X0636180Y0063509D01*
X0635893Y0063575D01*
X0635604Y0063634D01*
X0635314Y0063686D01*
X0635023Y0063731D01*
X0634731Y0063769D01*
X0634438Y0063799D01*
X0634144Y0063823D01*
X0633850Y0063839D01*
X0633556Y0063848D01*
X0633261Y0063850D01*
X0632966Y0063844D01*
X0632672Y0063832D01*
X0632378Y0063812D01*
X0632085Y0063785D01*
X0631792Y0063751D01*
X0631500Y0063710D01*
X0631210Y0063661D01*
X0630920Y0063606D01*
X0630633Y0063544D01*
X0630346Y0063474D01*
X0630062Y0063397D01*
X0629779Y0063314D01*
X0629499Y0063224D01*
X0629221Y0063127D01*
X0628945Y0063023D01*
X0628672Y0062912D01*
X0628402Y0062795D01*
X0628134Y0062671D01*
X0627870Y0062541D01*
X0627609Y0062404D01*
X0627352Y0062261D01*
X0627098Y0062111D01*
X0626847Y0061956D01*
X0626601Y0061794D01*
X0626359Y0061627D01*
X0626121Y0061453D01*
X0625887Y0061274D01*
X0625657Y0061089D01*
X0625433Y0060899D01*
X0625212Y0060703D01*
X0624997Y0060502D01*
X0624787Y0060295D01*
X0624582Y0060084D01*
X0624382Y0059867D01*
X0624187Y0059646D01*
X0623998Y0059420D01*
X0623815Y0059190D01*
X0623637Y0058955D01*
X0623465Y0058715D01*
X0623299Y0058472D01*
X0623139Y0058225D01*
X0622985Y0057974D01*
X0622837Y0057719D01*
X0622695Y0057460D01*
X0622560Y0057199D01*
X0622431Y0056934D01*
X0622309Y0056666D01*
X0622193Y0056395D01*
X0622084Y0056121D01*
X0621982Y0055845D01*
X0621887Y0055566D01*
X0621798Y0055285D01*
X0621716Y0055002D01*
X0621641Y0054717D01*
X0621574Y0054430D01*
X0621513Y0054142D01*
X0621459Y0053852D01*
X0621412Y0053561D01*
X0621373Y0053269D01*
X0621341Y0052977D01*
X0621315Y0052683D01*
X0621297Y0052389D01*
X0621287Y0052095D01*
X0621283Y0051800D01*
X0621287Y0051505D01*
X0621297Y0051211D01*
X0621315Y0050917D01*
X0621341Y0050623D01*
X0621373Y0050331D01*
X0621412Y0050039D01*
X0621459Y0049748D01*
X0621513Y0049458D01*
X0621574Y0049170D01*
X0621641Y0048883D01*
X0621716Y0048598D01*
X0621798Y0048315D01*
X0621887Y0048034D01*
X0621982Y0047755D01*
X0622084Y0047479D01*
X0622193Y0047205D01*
X0622309Y0046934D01*
X0622431Y0046666D01*
X0622560Y0046401D01*
X0622695Y0046140D01*
X0622837Y0045881D01*
X0622985Y0045626D01*
X0623139Y0045375D01*
X0623299Y0045128D01*
X0623465Y0044885D01*
X0623637Y0044645D01*
X0623815Y0044410D01*
X0623998Y0044180D01*
X0624187Y0043954D01*
X0624382Y0043733D01*
X0624582Y0043516D01*
X0624787Y0043305D01*
X0624997Y0043098D01*
X0625212Y0042897D01*
X0625433Y0042701D01*
X0625657Y0042511D01*
X0625887Y0042326D01*
X0626121Y0042147D01*
X0626359Y0041973D01*
X0626601Y0041806D01*
X0626847Y0041644D01*
X0627098Y0041489D01*
X0627352Y0041339D01*
X0627609Y0041196D01*
X0627870Y0041059D01*
X0628134Y0040929D01*
X0628402Y0040805D01*
X0628672Y0040688D01*
X0628945Y0040577D01*
X0629221Y0040473D01*
X0629499Y0040376D01*
X0629779Y0040286D01*
X0630062Y0040203D01*
X0630346Y0040126D01*
X0630633Y0040056D01*
X0630920Y0039994D01*
X0631210Y0039939D01*
X0631500Y0039890D01*
X0631792Y0039849D01*
X0632085Y0039815D01*
X0632378Y0039788D01*
X0632672Y0039768D01*
X0632966Y0039756D01*
X0633261Y0039750D01*
X0633556Y0039752D01*
X0633850Y0039761D01*
X0634144Y0039777D01*
X0634438Y0039801D01*
X0634731Y0039831D01*
X0635023Y0039869D01*
X0635314Y0039914D01*
X0635604Y0039966D01*
X0635893Y0040025D01*
X0636180Y0040091D01*
X0636466Y0040164D01*
X0636749Y0040244D01*
X0637031Y0040331D01*
X0637310Y0040425D01*
X0637587Y0040526D01*
X0637861Y0040633D01*
X0638133Y0040747D01*
X0638402Y0040868D01*
X0638667Y0040995D01*
X0638930Y0041129D01*
X0639189Y0041269D01*
X0639445Y0041415D01*
X0639697Y0041568D01*
X0639945Y0041726D01*
X0640189Y0041891D01*
X0640430Y0042061D01*
X0640666Y0042238D01*
X0640897Y0042420D01*
X0641124Y0042608D01*
X0641347Y0042801D01*
X0641564Y0043000D01*
X0641777Y0043203D01*
X0641985Y0043412D01*
X0642187Y0043626D01*
X0642384Y0043845D01*
X0642576Y0044069D01*
X0642762Y0044297D01*
X0642943Y0044530D01*
X0643662Y0043991D01*
X0643663Y0043990D01*
X0643469Y0043740D01*
X0643269Y0043494D01*
X0643063Y0043254D01*
X0642851Y0043019D01*
X0642633Y0042789D01*
X0642410Y0042564D01*
X0642182Y0042345D01*
X0641948Y0042131D01*
X0641709Y0041923D01*
X0641465Y0041721D01*
X0641216Y0041526D01*
X0640962Y0041336D01*
X0640704Y0041153D01*
X0640442Y0040976D01*
X0640175Y0040805D01*
X0639904Y0040641D01*
X0639629Y0040484D01*
X0639351Y0040333D01*
X0639068Y0040189D01*
X0638783Y0040053D01*
X0638494Y0039923D01*
X0638202Y0039800D01*
X0637907Y0039685D01*
X0637610Y0039577D01*
X0637309Y0039476D01*
X0637007Y0039382D01*
X0636702Y0039296D01*
X0636395Y0039217D01*
X0636087Y0039146D01*
X0635777Y0039083D01*
X0635465Y0039027D01*
X0635152Y0038978D01*
X0634838Y0038938D01*
X0634523Y0038905D01*
X0634207Y0038880D01*
X0633891Y0038862D01*
X0633575Y0038852D01*
X0633258Y0038850D01*
X0632941Y0038856D01*
X0632625Y0038869D01*
X0632309Y0038891D01*
X0631994Y0038919D01*
X0631679Y0038956D01*
X0631366Y0039000D01*
X0631053Y0039052D01*
X0630742Y0039112D01*
X0630433Y0039179D01*
X0630125Y0039254D01*
X0629819Y0039336D01*
X0629516Y0039425D01*
X0629214Y0039522D01*
X0628915Y0039627D01*
X0628619Y0039739D01*
X0628325Y0039857D01*
X0628035Y0039983D01*
X0627748Y0040116D01*
X0627463Y0040257D01*
X0627183Y0040404D01*
X0626906Y0040557D01*
X0626633Y0040718D01*
X0626364Y0040885D01*
X0626099Y0041059D01*
X0625839Y0041239D01*
X0625583Y0041425D01*
X0625332Y0041618D01*
X0625085Y0041816D01*
X0624843Y0042021D01*
X0624607Y0042231D01*
X0624375Y0042448D01*
X0624150Y0042670D01*
X0623929Y0042897D01*
X0623714Y0043129D01*
X0623505Y0043367D01*
X0623302Y0043610D01*
X0623104Y0043858D01*
X0622913Y0044110D01*
X0622728Y0044367D01*
X0622550Y0044629D01*
X0622378Y0044895D01*
X0622212Y0045164D01*
X0622053Y0045438D01*
X0621901Y0045716D01*
X0621756Y0045997D01*
X0621617Y0046282D01*
X0621486Y0046570D01*
X0621362Y0046862D01*
X0621244Y0047156D01*
X0621134Y0047453D01*
X0621032Y0047752D01*
X0620937Y0048054D01*
X0620849Y0048358D01*
X0620768Y0048665D01*
X0620695Y0048973D01*
X0620630Y0049283D01*
X0620572Y0049594D01*
X0620522Y0049907D01*
X0620480Y0050221D01*
X0620445Y0050535D01*
X0620418Y0050851D01*
X0620398Y0051167D01*
X0620387Y0051483D01*
X0620383Y0051800D01*
X0620387Y0052117D01*
X0620398Y0052433D01*
X0620418Y0052749D01*
X0620445Y0053065D01*
X0620480Y0053379D01*
X0620522Y0053693D01*
X0620572Y0054006D01*
X0620630Y0054317D01*
X0620695Y0054627D01*
X0620768Y0054935D01*
X0620849Y0055242D01*
X0620937Y0055546D01*
X0621032Y0055848D01*
X0621134Y0056147D01*
X0621244Y0056444D01*
X0621362Y0056738D01*
X0621486Y0057030D01*
X0621617Y0057318D01*
X0621756Y0057603D01*
X0621901Y0057884D01*
X0622053Y0058162D01*
X0622212Y0058436D01*
X0622378Y0058705D01*
X0622550Y0058971D01*
X0622728Y0059233D01*
X0622913Y0059490D01*
X0623104Y0059742D01*
X0623302Y0059990D01*
X0623505Y0060233D01*
X0623714Y0060471D01*
X0623929Y0060703D01*
X0624150Y0060930D01*
X0624375Y0061152D01*
X0624607Y0061369D01*
X0624843Y0061579D01*
X0625085Y0061784D01*
X0625332Y0061982D01*
X0625583Y0062175D01*
X0625839Y0062361D01*
X0626099Y0062541D01*
X0626364Y0062715D01*
X0626633Y0062882D01*
X0626906Y0063043D01*
X0627183Y0063196D01*
X0627463Y0063343D01*
X0627748Y0063484D01*
X0628035Y0063617D01*
X0628325Y0063743D01*
X0628619Y0063861D01*
X0628915Y0063973D01*
X0629214Y0064078D01*
X0629516Y0064175D01*
X0629819Y0064264D01*
X0630125Y0064346D01*
X0630433Y0064421D01*
X0630742Y0064488D01*
X0631053Y0064548D01*
X0631366Y0064600D01*
X0631679Y0064644D01*
X0631994Y0064681D01*
X0632309Y0064709D01*
X0632625Y0064731D01*
X0632941Y0064744D01*
X0633258Y0064750D01*
X0633575Y0064748D01*
X0633891Y0064738D01*
X0634207Y0064720D01*
X0634523Y0064695D01*
X0634838Y0064662D01*
X0635152Y0064622D01*
X0635465Y0064573D01*
X0635777Y0064517D01*
X0636087Y0064454D01*
X0636395Y0064383D01*
X0636702Y0064304D01*
X0637007Y0064218D01*
X0637309Y0064124D01*
X0637610Y0064023D01*
X0637907Y0063915D01*
X0638202Y0063800D01*
X0638494Y0063677D01*
X0638783Y0063547D01*
X0639068Y0063411D01*
X0639351Y0063267D01*
X0639629Y0063116D01*
X0639904Y0062959D01*
X0640175Y0062795D01*
X0640442Y0062624D01*
X0640704Y0062447D01*
X0640962Y0062264D01*
X0641216Y0062074D01*
X0641465Y0061879D01*
X0641709Y0061677D01*
X0641948Y0061469D01*
X0642182Y0061255D01*
X0642410Y0061036D01*
X0642633Y0060811D01*
X0642851Y0060581D01*
X0643063Y0060346D01*
X0643269Y0060106D01*
X0643469Y0059860D01*
X0643663Y0059610D01*
X0643588Y0059554D01*
X0643395Y0059802D01*
X0643196Y0060046D01*
X0642992Y0060284D01*
X0642782Y0060518D01*
X0642566Y0060746D01*
X0642344Y0060969D01*
X0642117Y0061187D01*
X0641885Y0061399D01*
X0641648Y0061605D01*
X0641406Y0061806D01*
X0641158Y0062000D01*
X0640907Y0062188D01*
X0640650Y0062370D01*
X0640390Y0062546D01*
X0640125Y0062715D01*
X0639856Y0062878D01*
X0639583Y0063034D01*
X0639307Y0063184D01*
X0639027Y0063326D01*
X0638743Y0063462D01*
X0638456Y0063591D01*
X0638166Y0063713D01*
X0637874Y0063827D01*
X0637578Y0063935D01*
X0637280Y0064035D01*
X0636980Y0064128D01*
X0636677Y0064213D01*
X0636373Y0064291D01*
X0636067Y0064362D01*
X0635759Y0064425D01*
X0635449Y0064481D01*
X0635139Y0064529D01*
X0634827Y0064569D01*
X0634514Y0064602D01*
X0634201Y0064627D01*
X0633887Y0064644D01*
X0633573Y0064654D01*
X0633258Y0064656D01*
X0632944Y0064650D01*
X0632630Y0064637D01*
X0632316Y0064616D01*
X0632003Y0064587D01*
X0631691Y0064551D01*
X0631380Y0064507D01*
X0631070Y0064455D01*
X0630761Y0064396D01*
X0630454Y0064329D01*
X0630148Y0064255D01*
X0629845Y0064174D01*
X0629543Y0064085D01*
X0629244Y0063988D01*
X0628947Y0063885D01*
X0628653Y0063774D01*
X0628362Y0063656D01*
X0628073Y0063531D01*
X0627788Y0063399D01*
X0627506Y0063260D01*
X0627228Y0063114D01*
X0626953Y0062961D01*
X0626682Y0062802D01*
X0626415Y0062636D01*
X0626152Y0062463D01*
X0625893Y0062285D01*
X0625639Y0062100D01*
X0625390Y0061908D01*
X0625145Y0061711D01*
X0624905Y0061508D01*
X0624670Y0061299D01*
X0624440Y0061084D01*
X0624216Y0060864D01*
X0623997Y0060639D01*
X0623784Y0060408D01*
X0623576Y0060172D01*
X0623374Y0059930D01*
X0623179Y0059685D01*
X0622989Y0059434D01*
X0622805Y0059179D01*
X0622628Y0058919D01*
X0622457Y0058655D01*
X0622293Y0058387D01*
X0622135Y0058115D01*
X0621984Y0057840D01*
X0621840Y0057560D01*
X0621702Y0057278D01*
X0621572Y0056992D01*
X0621448Y0056703D01*
X0621332Y0056410D01*
X0621223Y0056116D01*
X0621121Y0055818D01*
X0621027Y0055519D01*
X0620939Y0055216D01*
X0620859Y0054912D01*
X0620787Y0054607D01*
X0620722Y0054299D01*
X0620665Y0053990D01*
X0620615Y0053679D01*
X0620573Y0053368D01*
X0620538Y0053055D01*
X0620512Y0052742D01*
X0620492Y0052428D01*
X0620481Y0052114D01*
X0620477Y0051800D01*
X0620481Y0051486D01*
X0620492Y0051172D01*
X0620512Y0050858D01*
X0620538Y0050545D01*
X0620573Y0050232D01*
X0620615Y0049921D01*
X0620665Y0049610D01*
X0620722Y0049301D01*
X0620787Y0048993D01*
X0620859Y0048688D01*
X0620939Y0048384D01*
X0621027Y0048081D01*
X0621121Y0047782D01*
X0621223Y0047484D01*
X0621332Y0047190D01*
X0621448Y0046897D01*
X0621572Y0046608D01*
X0621702Y0046322D01*
X0621840Y0046040D01*
X0621984Y0045760D01*
X0622135Y0045485D01*
X0622293Y0045213D01*
X0622457Y0044945D01*
X0622628Y0044681D01*
X0622805Y0044421D01*
X0622989Y0044166D01*
X0623179Y0043915D01*
X0623374Y0043670D01*
X0623576Y0043428D01*
X0623784Y0043192D01*
X0623997Y0042961D01*
X0624216Y0042736D01*
X0624440Y0042516D01*
X0624670Y0042301D01*
X0624905Y0042092D01*
X0625145Y0041889D01*
X0625390Y0041692D01*
X0625639Y0041500D01*
X0625893Y0041315D01*
X0626152Y0041137D01*
X0626415Y0040964D01*
X0626682Y0040798D01*
X0626953Y0040639D01*
X0627228Y0040486D01*
X0627506Y0040340D01*
X0627788Y0040201D01*
X0628073Y0040069D01*
X0628362Y0039944D01*
X0628653Y0039826D01*
X0628947Y0039715D01*
X0629244Y0039612D01*
X0629543Y0039515D01*
X0629845Y0039426D01*
X0630148Y0039345D01*
X0630454Y0039271D01*
X0630761Y0039204D01*
X0631070Y0039145D01*
X0631380Y0039093D01*
X0631691Y0039049D01*
X0632003Y0039013D01*
X0632316Y0038984D01*
X0632630Y0038963D01*
X0632944Y0038950D01*
X0633258Y0038944D01*
X0633573Y0038946D01*
X0633887Y0038956D01*
X0634201Y0038973D01*
X0634514Y0038998D01*
X0634827Y0039031D01*
X0635139Y0039071D01*
X0635449Y0039119D01*
X0635759Y0039175D01*
X0636067Y0039238D01*
X0636373Y0039309D01*
X0636677Y0039387D01*
X0636980Y0039472D01*
X0637280Y0039565D01*
X0637578Y0039665D01*
X0637874Y0039773D01*
X0638166Y0039887D01*
X0638456Y0040009D01*
X0638743Y0040138D01*
X0639027Y0040274D01*
X0639307Y0040416D01*
X0639583Y0040566D01*
X0639856Y0040722D01*
X0640125Y0040885D01*
X0640390Y0041054D01*
X0640650Y0041230D01*
X0640907Y0041412D01*
X0641158Y0041600D01*
X0641406Y0041794D01*
X0641648Y0041995D01*
X0641885Y0042201D01*
X0642117Y0042413D01*
X0642344Y0042631D01*
X0642566Y0042854D01*
X0642782Y0043082D01*
X0642992Y0043316D01*
X0643196Y0043554D01*
X0643395Y0043798D01*
X0643588Y0044046D01*
X0643513Y0044103D01*
X0643321Y0043856D01*
X0643124Y0043614D01*
X0642921Y0043377D01*
X0642712Y0043146D01*
X0642498Y0042919D01*
X0642278Y0042697D01*
X0642053Y0042481D01*
X0641822Y0042271D01*
X0641587Y0042066D01*
X0641346Y0041867D01*
X0641101Y0041674D01*
X0640851Y0041488D01*
X0640597Y0041307D01*
X0640338Y0041132D01*
X0640075Y0040964D01*
X0639808Y0040803D01*
X0639537Y0040648D01*
X0639263Y0040499D01*
X0638985Y0040358D01*
X0638703Y0040223D01*
X0638419Y0040095D01*
X0638131Y0039974D01*
X0637840Y0039860D01*
X0637547Y0039754D01*
X0637251Y0039654D01*
X0636953Y0039562D01*
X0636653Y0039477D01*
X0636350Y0039400D01*
X0636046Y0039330D01*
X0635741Y0039267D01*
X0635434Y0039212D01*
X0635125Y0039164D01*
X0634816Y0039124D01*
X0634505Y0039092D01*
X0634194Y0039067D01*
X0633883Y0039050D01*
X0633571Y0039040D01*
X0633259Y0039038D01*
X0632947Y0039044D01*
X0632635Y0039057D01*
X0632324Y0039078D01*
X0632013Y0039106D01*
X0631703Y0039143D01*
X0631394Y0039186D01*
X0631086Y0039237D01*
X0630779Y0039296D01*
X0630475Y0039362D01*
X0630171Y0039436D01*
X0629870Y0039517D01*
X0629571Y0039605D01*
X0629274Y0039701D01*
X0628979Y0039804D01*
X0628687Y0039914D01*
X0628398Y0040031D01*
X0628111Y0040155D01*
X0627828Y0040286D01*
X0627548Y0040424D01*
X0627272Y0040569D01*
X0626999Y0040721D01*
X0626730Y0040879D01*
X0626465Y0041044D01*
X0626204Y0041215D01*
X0625948Y0041392D01*
X0625695Y0041576D01*
X0625448Y0041766D01*
X0625205Y0041961D01*
X0624966Y0042163D01*
X0624733Y0042371D01*
X0624505Y0042584D01*
X0624283Y0042802D01*
X0624065Y0043026D01*
X0623854Y0043255D01*
X0623648Y0043490D01*
X0623447Y0043729D01*
X0623253Y0043973D01*
X0623065Y0044222D01*
X0622882Y0044475D01*
X0622706Y0044733D01*
X0622537Y0044995D01*
X0622374Y0045261D01*
X0622217Y0045531D01*
X0622067Y0045805D01*
X0621924Y0046082D01*
X0621787Y0046362D01*
X0621658Y0046646D01*
X0621535Y0046933D01*
X0621420Y0047223D01*
X0621312Y0047516D01*
X0621210Y0047811D01*
X0621116Y0048109D01*
X0621030Y0048409D01*
X0620951Y0048710D01*
X0620879Y0049014D01*
X0620814Y0049319D01*
X0620757Y0049626D01*
X0620708Y0049934D01*
X0620666Y0050244D01*
X0620632Y0050554D01*
X0620605Y0050865D01*
X0620586Y0051176D01*
X0620575Y0051488D01*
X0620571Y0051800D01*
X0620575Y0052112D01*
X0620586Y0052424D01*
X0620605Y0052735D01*
X0620632Y0053046D01*
X0620666Y0053356D01*
X0620708Y0053666D01*
X0620757Y0053974D01*
X0620814Y0054281D01*
X0620879Y0054586D01*
X0620951Y0054890D01*
X0621030Y0055191D01*
X0621116Y0055491D01*
X0621210Y0055789D01*
X0621312Y0056084D01*
X0621420Y0056377D01*
X0621535Y0056667D01*
X0621658Y0056954D01*
X0621787Y0057238D01*
X0621924Y0057518D01*
X0622067Y0057795D01*
X0622217Y0058069D01*
X0622374Y0058339D01*
X0622537Y0058605D01*
X0622706Y0058867D01*
X0622882Y0059125D01*
X0623065Y0059378D01*
X0623253Y0059627D01*
X0623447Y0059871D01*
X0623648Y0060110D01*
X0623854Y0060345D01*
X0624065Y0060574D01*
X0624283Y0060798D01*
X0624505Y0061016D01*
X0624733Y0061229D01*
X0624966Y0061437D01*
X0625205Y0061639D01*
X0625448Y0061834D01*
X0625695Y0062024D01*
X0625948Y0062208D01*
X0626204Y0062385D01*
X0626465Y0062556D01*
X0626730Y0062721D01*
X0626999Y0062879D01*
X0627272Y0063031D01*
X0627548Y0063176D01*
X0627828Y0063314D01*
X0628111Y0063445D01*
X0628398Y0063569D01*
X0628687Y0063686D01*
X0628979Y0063796D01*
X0629274Y0063899D01*
X0629571Y0063995D01*
X0629870Y0064083D01*
X0630171Y0064164D01*
X0630475Y0064238D01*
X0630779Y0064304D01*
X0631086Y0064363D01*
X0631394Y0064414D01*
X0631703Y0064457D01*
X0632013Y0064494D01*
X0632324Y0064522D01*
X0632635Y0064543D01*
X0632947Y0064556D01*
X0633259Y0064562D01*
X0633571Y0064560D01*
X0633883Y0064550D01*
X0634194Y0064533D01*
X0634505Y0064508D01*
X0634816Y0064476D01*
X0635125Y0064436D01*
X0635434Y0064388D01*
X0635741Y0064333D01*
X0636046Y0064270D01*
X0636350Y0064200D01*
X0636653Y0064123D01*
X0636953Y0064038D01*
X0637251Y0063946D01*
X0637547Y0063846D01*
X0637840Y0063740D01*
X0638131Y0063626D01*
X0638419Y0063505D01*
X0638703Y0063377D01*
X0638985Y0063242D01*
X0639263Y0063101D01*
X0639537Y0062952D01*
X0639808Y0062797D01*
X0640075Y0062636D01*
X0640338Y0062468D01*
X0640597Y0062293D01*
X0640851Y0062112D01*
X0641101Y0061926D01*
X0641346Y0061733D01*
X0641587Y0061534D01*
X0641822Y0061329D01*
X0642053Y0061119D01*
X0642278Y0060903D01*
X0642498Y0060681D01*
X0642712Y0060454D01*
X0642921Y0060223D01*
X0643124Y0059986D01*
X0643321Y0059744D01*
X0643513Y0059497D01*
X0643437Y0059441D01*
X0643247Y0059686D01*
X0643052Y0059926D01*
X0642850Y0060161D01*
X0642643Y0060391D01*
X0642430Y0060616D01*
X0642212Y0060836D01*
X0641988Y0061050D01*
X0641759Y0061259D01*
X0641526Y0061462D01*
X0641287Y0061660D01*
X0641044Y0061851D01*
X0640795Y0062037D01*
X0640543Y0062216D01*
X0640286Y0062389D01*
X0640025Y0062556D01*
X0639760Y0062717D01*
X0639491Y0062870D01*
X0639219Y0063018D01*
X0638943Y0063158D01*
X0638663Y0063292D01*
X0638381Y0063419D01*
X0638095Y0063539D01*
X0637807Y0063652D01*
X0637516Y0063758D01*
X0637222Y0063856D01*
X0636926Y0063948D01*
X0636628Y0064032D01*
X0636328Y0064109D01*
X0636026Y0064178D01*
X0635723Y0064241D01*
X0635418Y0064295D01*
X0635112Y0064343D01*
X0634804Y0064382D01*
X0634496Y0064414D01*
X0634188Y0064439D01*
X0633878Y0064456D01*
X0633569Y0064466D01*
X0633259Y0064468D01*
X0632949Y0064462D01*
X0632640Y0064449D01*
X0632331Y0064428D01*
X0632022Y0064400D01*
X0631715Y0064364D01*
X0631408Y0064321D01*
X0631102Y0064270D01*
X0630798Y0064212D01*
X0630495Y0064146D01*
X0630194Y0064073D01*
X0629895Y0063993D01*
X0629598Y0063905D01*
X0629303Y0063810D01*
X0629011Y0063708D01*
X0628721Y0063599D01*
X0628434Y0063482D01*
X0628150Y0063359D01*
X0627869Y0063229D01*
X0627591Y0063092D01*
X0627317Y0062948D01*
X0627046Y0062798D01*
X0626779Y0062641D01*
X0626516Y0062477D01*
X0626257Y0062307D01*
X0626002Y0062131D01*
X0625751Y0061949D01*
X0625506Y0061760D01*
X0625264Y0061566D01*
X0625028Y0061366D01*
X0624797Y0061160D01*
X0624570Y0060948D01*
X0624349Y0060731D01*
X0624134Y0060509D01*
X0623923Y0060282D01*
X0623719Y0060049D01*
X0623520Y0059811D01*
X0623327Y0059569D01*
X0623140Y0059322D01*
X0622959Y0059071D01*
X0622785Y0058815D01*
X0622616Y0058555D01*
X0622454Y0058291D01*
X0622299Y0058023D01*
X0622150Y0057751D01*
X0622008Y0057476D01*
X0621872Y0057197D01*
X0621744Y0056916D01*
X0621622Y0056631D01*
X0621508Y0056343D01*
X0621400Y0056052D01*
X0621300Y0055759D01*
X0621206Y0055464D01*
X0621120Y0055166D01*
X0621042Y0054867D01*
X0620971Y0054565D01*
X0620907Y0054262D01*
X0620850Y0053958D01*
X0620801Y0053652D01*
X0620760Y0053345D01*
X0620726Y0053037D01*
X0620699Y0052728D01*
X0620680Y0052419D01*
X0620669Y0052110D01*
X0620665Y0051800D01*
X0620669Y0051490D01*
X0620680Y0051181D01*
X0620699Y0050872D01*
X0620726Y0050563D01*
X0620760Y0050255D01*
X0620801Y0049948D01*
X0620850Y0049642D01*
X0620907Y0049338D01*
X0620971Y0049035D01*
X0621042Y0048733D01*
X0621120Y0048434D01*
X0621206Y0048136D01*
X0621300Y0047841D01*
X0621400Y0047548D01*
X0621508Y0047257D01*
X0621622Y0046969D01*
X0621744Y0046684D01*
X0621872Y0046403D01*
X0622008Y0046124D01*
X0622150Y0045849D01*
X0622299Y0045577D01*
X0622454Y0045309D01*
X0622616Y0045045D01*
X0622785Y0044785D01*
X0622959Y0044529D01*
X0623140Y0044278D01*
X0623327Y0044031D01*
X0623520Y0043789D01*
X0623719Y0043551D01*
X0623923Y0043318D01*
X0624134Y0043091D01*
X0624349Y0042869D01*
X0624570Y0042652D01*
X0624797Y0042440D01*
X0625028Y0042234D01*
X0625264Y0042034D01*
X0625506Y0041840D01*
X0625751Y0041651D01*
X0626002Y0041469D01*
X0626257Y0041293D01*
X0626516Y0041123D01*
X0626779Y0040959D01*
X0627046Y0040802D01*
X0627317Y0040652D01*
X0627591Y0040508D01*
X0627869Y0040371D01*
X0628150Y0040241D01*
X0628434Y0040118D01*
X0628721Y0040001D01*
X0629011Y0039892D01*
X0629303Y0039790D01*
X0629598Y0039695D01*
X0629895Y0039607D01*
X0630194Y0039527D01*
X0630495Y0039454D01*
X0630798Y0039388D01*
X0631102Y0039330D01*
X0631408Y0039279D01*
X0631715Y0039236D01*
X0632022Y0039200D01*
X0632331Y0039172D01*
X0632640Y0039151D01*
X0632949Y0039138D01*
X0633259Y0039132D01*
X0633569Y0039134D01*
X0633878Y0039144D01*
X0634188Y0039161D01*
X0634496Y0039186D01*
X0634804Y0039218D01*
X0635112Y0039257D01*
X0635418Y0039305D01*
X0635723Y0039359D01*
X0636026Y0039422D01*
X0636328Y0039491D01*
X0636628Y0039568D01*
X0636926Y0039652D01*
X0637222Y0039744D01*
X0637516Y0039842D01*
X0637807Y0039948D01*
X0638095Y0040061D01*
X0638381Y0040181D01*
X0638663Y0040308D01*
X0638943Y0040442D01*
X0639219Y0040582D01*
X0639491Y0040730D01*
X0639760Y0040883D01*
X0640025Y0041044D01*
X0640286Y0041211D01*
X0640543Y0041384D01*
X0640795Y0041563D01*
X0641044Y0041749D01*
X0641287Y0041940D01*
X0641526Y0042138D01*
X0641759Y0042341D01*
X0641988Y0042550D01*
X0642212Y0042764D01*
X0642430Y0042984D01*
X0642643Y0043209D01*
X0642850Y0043439D01*
X0643052Y0043674D01*
X0643247Y0043914D01*
X0643437Y0044159D01*
X0643362Y0044216D01*
X0643174Y0043973D01*
X0642979Y0043734D01*
X0642779Y0043501D01*
X0642574Y0043273D01*
X0642362Y0043049D01*
X0642146Y0042831D01*
X0641924Y0042618D01*
X0641697Y0042411D01*
X0641465Y0042209D01*
X0641228Y0042013D01*
X0640986Y0041823D01*
X0640740Y0041639D01*
X0640489Y0041461D01*
X0640234Y0041289D01*
X0639975Y0041124D01*
X0639712Y0040964D01*
X0639445Y0040812D01*
X0639175Y0040665D01*
X0638901Y0040526D01*
X0638624Y0040393D01*
X0638343Y0040267D01*
X0638060Y0040148D01*
X0637773Y0040036D01*
X0637484Y0039931D01*
X0637193Y0039833D01*
X0636899Y0039742D01*
X0636603Y0039659D01*
X0636306Y0039582D01*
X0636006Y0039513D01*
X0635705Y0039452D01*
X0635402Y0039397D01*
X0635098Y0039351D01*
X0634793Y0039311D01*
X0634488Y0039279D01*
X0634181Y0039255D01*
X0633874Y0039238D01*
X0633567Y0039228D01*
X0633259Y0039226D01*
X0632952Y0039232D01*
X0632645Y0039245D01*
X0632338Y0039265D01*
X0632032Y0039294D01*
X0631726Y0039329D01*
X0631422Y0039372D01*
X0631119Y0039423D01*
X0630817Y0039480D01*
X0630516Y0039546D01*
X0630217Y0039618D01*
X0629921Y0039698D01*
X0629626Y0039785D01*
X0629333Y0039879D01*
X0629043Y0039981D01*
X0628755Y0040089D01*
X0628470Y0040204D01*
X0628188Y0040327D01*
X0627909Y0040456D01*
X0627633Y0040592D01*
X0627361Y0040735D01*
X0627092Y0040884D01*
X0626827Y0041040D01*
X0626566Y0041202D01*
X0626309Y0041371D01*
X0626056Y0041546D01*
X0625808Y0041727D01*
X0625564Y0041914D01*
X0625324Y0042107D01*
X0625090Y0042305D01*
X0624860Y0042510D01*
X0624635Y0042720D01*
X0624416Y0042935D01*
X0624202Y0043156D01*
X0623993Y0043381D01*
X0623790Y0043612D01*
X0623593Y0043848D01*
X0623401Y0044089D01*
X0623216Y0044334D01*
X0623036Y0044583D01*
X0622863Y0044837D01*
X0622696Y0045095D01*
X0622535Y0045357D01*
X0622381Y0045623D01*
X0622233Y0045893D01*
X0622092Y0046166D01*
X0621957Y0046443D01*
X0621830Y0046722D01*
X0621709Y0047005D01*
X0621595Y0047291D01*
X0621489Y0047579D01*
X0621389Y0047870D01*
X0621296Y0048163D01*
X0621211Y0048459D01*
X0621133Y0048756D01*
X0621062Y0049055D01*
X0620999Y0049356D01*
X0620943Y0049658D01*
X0620894Y0049962D01*
X0620853Y0050267D01*
X0620819Y0050572D01*
X0620793Y0050878D01*
X0620774Y0051185D01*
X0620763Y0051493D01*
X0620759Y0051800D01*
X0620763Y0052107D01*
X0620774Y0052415D01*
X0620793Y0052722D01*
X0620819Y0053028D01*
X0620853Y0053333D01*
X0620894Y0053638D01*
X0620943Y0053942D01*
X0620999Y0054244D01*
X0621062Y0054545D01*
X0621133Y0054844D01*
X0621211Y0055141D01*
X0621296Y0055437D01*
X0621389Y0055730D01*
X0621489Y0056021D01*
X0621595Y0056309D01*
X0621709Y0056595D01*
X0621830Y0056878D01*
X0621957Y0057157D01*
X0622092Y0057434D01*
X0622233Y0057707D01*
X0622381Y0057977D01*
X0622535Y0058243D01*
X0622696Y0058505D01*
X0622863Y0058763D01*
X0623036Y0059017D01*
X0623216Y0059266D01*
X0623401Y0059511D01*
X0623593Y0059752D01*
X0623790Y0059988D01*
X0623993Y0060219D01*
X0624202Y0060444D01*
X0624416Y0060665D01*
X0624635Y0060880D01*
X0624860Y0061090D01*
X0625090Y0061295D01*
X0625324Y0061493D01*
X0625564Y0061686D01*
X0625808Y0061873D01*
X0626056Y0062054D01*
X0626309Y0062229D01*
X0626566Y0062398D01*
X0626827Y0062560D01*
X0627092Y0062716D01*
X0627361Y0062865D01*
X0627633Y0063008D01*
X0627909Y0063144D01*
X0628188Y0063273D01*
X0628470Y0063396D01*
X0628755Y0063511D01*
X0629043Y0063619D01*
X0629333Y0063721D01*
X0629626Y0063815D01*
X0629921Y0063902D01*
X0630217Y0063982D01*
X0630516Y0064054D01*
X0630817Y0064120D01*
X0631119Y0064177D01*
X0631422Y0064228D01*
X0631726Y0064271D01*
X0632032Y0064306D01*
X0632338Y0064335D01*
X0632645Y0064355D01*
X0632952Y0064368D01*
X0633259Y0064374D01*
X0633567Y0064372D01*
X0633874Y0064362D01*
X0634181Y0064345D01*
X0634488Y0064321D01*
X0634793Y0064289D01*
X0635098Y0064249D01*
X0635402Y0064203D01*
X0635705Y0064148D01*
X0636006Y0064087D01*
X0636306Y0064018D01*
X0636603Y0063941D01*
X0636899Y0063858D01*
X0637193Y0063767D01*
X0637484Y0063669D01*
X0637773Y0063564D01*
X0638060Y0063452D01*
X0638343Y0063333D01*
X0638624Y0063207D01*
X0638901Y0063074D01*
X0639175Y0062935D01*
X0639445Y0062788D01*
X0639712Y0062636D01*
X0639975Y0062476D01*
X0640234Y0062311D01*
X0640489Y0062139D01*
X0640740Y0061961D01*
X0640986Y0061777D01*
X0641228Y0061587D01*
X0641465Y0061391D01*
X0641697Y0061189D01*
X0641924Y0060982D01*
X0642146Y0060769D01*
X0642362Y0060551D01*
X0642574Y0060327D01*
X0642779Y0060099D01*
X0642979Y0059866D01*
X0643174Y0059627D01*
X0643362Y0059384D01*
X0643287Y0059328D01*
X0643100Y0059569D01*
X0642907Y0059806D01*
X0642708Y0060037D01*
X0642504Y0060264D01*
X0642295Y0060486D01*
X0642080Y0060702D01*
X0641859Y0060913D01*
X0641634Y0061119D01*
X0641404Y0061319D01*
X0641168Y0061514D01*
X0640929Y0061702D01*
X0640684Y0061885D01*
X0640435Y0062062D01*
X0640182Y0062232D01*
X0639925Y0062397D01*
X0639664Y0062555D01*
X0639399Y0062706D01*
X0639131Y0062851D01*
X0638859Y0062990D01*
X0638584Y0063122D01*
X0638305Y0063247D01*
X0638024Y0063365D01*
X0637740Y0063476D01*
X0637453Y0063580D01*
X0637164Y0063678D01*
X0636872Y0063768D01*
X0636579Y0063851D01*
X0636283Y0063926D01*
X0635986Y0063995D01*
X0635687Y0064056D01*
X0635386Y0064110D01*
X0635085Y0064156D01*
X0634782Y0064196D01*
X0634479Y0064227D01*
X0634174Y0064252D01*
X0633870Y0064268D01*
X0633565Y0064278D01*
X0633260Y0064280D01*
X0632955Y0064274D01*
X0632650Y0064261D01*
X0632345Y0064241D01*
X0632041Y0064213D01*
X0631738Y0064178D01*
X0631436Y0064135D01*
X0631135Y0064085D01*
X0630835Y0064028D01*
X0630537Y0063963D01*
X0630241Y0063891D01*
X0629946Y0063812D01*
X0629653Y0063725D01*
X0629363Y0063632D01*
X0629075Y0063531D01*
X0628789Y0063423D01*
X0628506Y0063309D01*
X0628226Y0063187D01*
X0627949Y0063059D01*
X0627676Y0062924D01*
X0627406Y0062783D01*
X0627139Y0062634D01*
X0626876Y0062480D01*
X0626617Y0062319D01*
X0626361Y0062151D01*
X0626110Y0061978D01*
X0625864Y0061798D01*
X0625622Y0061612D01*
X0625384Y0061421D01*
X0625151Y0061224D01*
X0624923Y0061021D01*
X0624700Y0060812D01*
X0624482Y0060599D01*
X0624270Y0060380D01*
X0624063Y0060156D01*
X0623861Y0059926D01*
X0623665Y0059692D01*
X0623475Y0059454D01*
X0623291Y0059210D01*
X0623113Y0058963D01*
X0622941Y0058711D01*
X0622775Y0058454D01*
X0622616Y0058194D01*
X0622462Y0057930D01*
X0622316Y0057663D01*
X0622176Y0057392D01*
X0622042Y0057117D01*
X0621916Y0056840D01*
X0621796Y0056559D01*
X0621683Y0056275D01*
X0621577Y0055989D01*
X0621478Y0055701D01*
X0621386Y0055410D01*
X0621302Y0055116D01*
X0621224Y0054821D01*
X0621154Y0054524D01*
X0621091Y0054226D01*
X0621035Y0053926D01*
X0620987Y0053624D01*
X0620946Y0053322D01*
X0620913Y0053019D01*
X0620887Y0052715D01*
X0620868Y0052410D01*
X0620857Y0052105D01*
X0620853Y0051800D01*
X0620857Y0051495D01*
X0620868Y0051190D01*
X0620887Y0050885D01*
X0620913Y0050581D01*
X0620946Y0050278D01*
X0620987Y0049976D01*
X0621035Y0049674D01*
X0621091Y0049374D01*
X0621154Y0049076D01*
X0621224Y0048779D01*
X0621302Y0048484D01*
X0621386Y0048190D01*
X0621478Y0047899D01*
X0621577Y0047611D01*
X0621683Y0047325D01*
X0621796Y0047041D01*
X0621916Y0046760D01*
X0622042Y0046483D01*
X0622176Y0046208D01*
X0622316Y0045937D01*
X0622462Y0045670D01*
X0622616Y0045406D01*
X0622775Y0045146D01*
X0622941Y0044889D01*
X0623113Y0044637D01*
X0623291Y0044390D01*
X0623475Y0044146D01*
X0623665Y0043908D01*
X0623861Y0043674D01*
X0624063Y0043444D01*
X0624270Y0043220D01*
X0624482Y0043001D01*
X0624700Y0042788D01*
X0624923Y0042579D01*
X0625151Y0042376D01*
X0625384Y0042179D01*
X0625622Y0041988D01*
X0625864Y0041802D01*
X0626110Y0041622D01*
X0626361Y0041449D01*
X0626617Y0041281D01*
X0626876Y0041120D01*
X0627139Y0040966D01*
X0627406Y0040817D01*
X0627676Y0040676D01*
X0627949Y0040541D01*
X0628226Y0040413D01*
X0628506Y0040291D01*
X0628789Y0040177D01*
X0629075Y0040069D01*
X0629363Y0039968D01*
X0629653Y0039875D01*
X0629946Y0039788D01*
X0630241Y0039709D01*
X0630537Y0039637D01*
X0630835Y0039572D01*
X0631135Y0039515D01*
X0631436Y0039465D01*
X0631738Y0039422D01*
X0632041Y0039387D01*
X0632345Y0039359D01*
X0632650Y0039339D01*
X0632955Y0039326D01*
X0633260Y0039320D01*
X0633565Y0039322D01*
X0633870Y0039332D01*
X0634174Y0039348D01*
X0634479Y0039373D01*
X0634782Y0039404D01*
X0635085Y0039444D01*
X0635386Y0039490D01*
X0635687Y0039544D01*
X0635986Y0039605D01*
X0636283Y0039674D01*
X0636579Y0039749D01*
X0636872Y0039832D01*
X0637164Y0039922D01*
X0637453Y0040020D01*
X0637740Y0040124D01*
X0638024Y0040235D01*
X0638305Y0040353D01*
X0638584Y0040478D01*
X0638859Y0040610D01*
X0639131Y0040749D01*
X0639399Y0040894D01*
X0639664Y0041045D01*
X0639925Y0041203D01*
X0640182Y0041368D01*
X0640435Y0041538D01*
X0640684Y0041715D01*
X0640929Y0041898D01*
X0641168Y0042086D01*
X0641404Y0042281D01*
X0641634Y0042481D01*
X0641859Y0042687D01*
X0642080Y0042898D01*
X0642295Y0043114D01*
X0642504Y0043336D01*
X0642708Y0043563D01*
X0642907Y0043794D01*
X0643100Y0044031D01*
X0643287Y0044272D01*
X0643212Y0044328D01*
X0643026Y0044089D01*
X0642835Y0043854D01*
X0642638Y0043625D01*
X0642435Y0043400D01*
X0642227Y0043179D01*
X0642013Y0042965D01*
X0641795Y0042755D01*
X0641571Y0042551D01*
X0641343Y0042352D01*
X0641109Y0042159D01*
X0640871Y0041972D01*
X0640629Y0041791D01*
X0640382Y0041615D01*
X0640131Y0041446D01*
X0639875Y0041283D01*
X0639616Y0041126D01*
X0639353Y0040976D01*
X0639087Y0040832D01*
X0638817Y0040694D01*
X0638544Y0040563D01*
X0638268Y0040439D01*
X0637988Y0040322D01*
X0637706Y0040212D01*
X0637422Y0040108D01*
X0637135Y0040012D01*
X0636845Y0039922D01*
X0636554Y0039840D01*
X0636261Y0039765D01*
X0635965Y0039697D01*
X0635669Y0039636D01*
X0635371Y0039583D01*
X0635071Y0039537D01*
X0634771Y0039498D01*
X0634470Y0039466D01*
X0634168Y0039442D01*
X0633865Y0039425D01*
X0633563Y0039416D01*
X0633260Y0039414D01*
X0632957Y0039420D01*
X0632655Y0039433D01*
X0632352Y0039453D01*
X0632051Y0039481D01*
X0631750Y0039516D01*
X0631450Y0039558D01*
X0631151Y0039608D01*
X0630854Y0039665D01*
X0630558Y0039729D01*
X0630264Y0039800D01*
X0629971Y0039879D01*
X0629681Y0039965D01*
X0629392Y0040058D01*
X0629107Y0040157D01*
X0628823Y0040264D01*
X0628543Y0040378D01*
X0628265Y0040498D01*
X0627990Y0040626D01*
X0627718Y0040760D01*
X0627450Y0040900D01*
X0627185Y0041047D01*
X0626924Y0041201D01*
X0626667Y0041361D01*
X0626414Y0041527D01*
X0626165Y0041699D01*
X0625920Y0041877D01*
X0625679Y0042062D01*
X0625444Y0042252D01*
X0625213Y0042447D01*
X0624986Y0042649D01*
X0624765Y0042855D01*
X0624549Y0043068D01*
X0624338Y0043285D01*
X0624133Y0043507D01*
X0623933Y0043735D01*
X0623738Y0043967D01*
X0623550Y0044204D01*
X0623367Y0044446D01*
X0623190Y0044691D01*
X0623019Y0044942D01*
X0622855Y0045196D01*
X0622696Y0045454D01*
X0622544Y0045716D01*
X0622399Y0045981D01*
X0622260Y0046250D01*
X0622127Y0046523D01*
X0622002Y0046798D01*
X0621883Y0047077D01*
X0621771Y0047358D01*
X0621666Y0047642D01*
X0621567Y0047929D01*
X0621476Y0048218D01*
X0621392Y0048509D01*
X0621315Y0048802D01*
X0621246Y0049096D01*
X0621183Y0049393D01*
X0621128Y0049690D01*
X0621080Y0049989D01*
X0621039Y0050289D01*
X0621006Y0050591D01*
X0620980Y0050892D01*
X0620962Y0051195D01*
X0620951Y0051497D01*
X0620947Y0051800D01*
X0620951Y0052103D01*
X0620962Y0052405D01*
X0620980Y0052708D01*
X0621006Y0053009D01*
X0621039Y0053311D01*
X0621080Y0053611D01*
X0621128Y0053910D01*
X0621183Y0054207D01*
X0621246Y0054504D01*
X0621315Y0054798D01*
X0621392Y0055091D01*
X0621476Y0055382D01*
X0621567Y0055671D01*
X0621666Y0055958D01*
X0621771Y0056242D01*
X0621883Y0056523D01*
X0622002Y0056802D01*
X0622127Y0057077D01*
X0622260Y0057350D01*
X0622399Y0057619D01*
X0622544Y0057884D01*
X0622696Y0058146D01*
X0622855Y0058404D01*
X0623019Y0058658D01*
X0623190Y0058909D01*
X0623367Y0059154D01*
X0623550Y0059396D01*
X0623738Y0059633D01*
X0623933Y0059865D01*
X0624133Y0060093D01*
X0624338Y0060315D01*
X0624549Y0060532D01*
X0624765Y0060745D01*
X0624986Y0060951D01*
X0625213Y0061153D01*
X0625444Y0061348D01*
X0625679Y0061538D01*
X0625920Y0061723D01*
X0626165Y0061901D01*
X0626414Y0062073D01*
X0626667Y0062239D01*
X0626924Y0062399D01*
X0627185Y0062553D01*
X0627450Y0062700D01*
X0627718Y0062840D01*
X0627990Y0062974D01*
X0628265Y0063102D01*
X0628543Y0063222D01*
X0628823Y0063336D01*
X0629107Y0063443D01*
X0629392Y0063542D01*
X0629681Y0063635D01*
X0629971Y0063721D01*
X0630264Y0063800D01*
X0630558Y0063871D01*
X0630854Y0063935D01*
X0631151Y0063992D01*
X0631450Y0064042D01*
X0631750Y0064084D01*
X0632051Y0064119D01*
X0632352Y0064147D01*
X0632655Y0064167D01*
X0632957Y0064180D01*
X0633260Y0064186D01*
X0633563Y0064184D01*
X0633865Y0064175D01*
X0634168Y0064158D01*
X0634470Y0064134D01*
X0634771Y0064102D01*
X0635071Y0064063D01*
X0635371Y0064017D01*
X0635669Y0063964D01*
X0635965Y0063903D01*
X0636261Y0063835D01*
X0636554Y0063760D01*
X0636845Y0063678D01*
X0637135Y0063588D01*
X0637422Y0063492D01*
X0637706Y0063388D01*
X0637988Y0063278D01*
X0638268Y0063161D01*
X0638544Y0063037D01*
X0638817Y0062906D01*
X0639087Y0062768D01*
X0639353Y0062624D01*
X0639616Y0062474D01*
X0639875Y0062317D01*
X0640131Y0062154D01*
X0640382Y0061985D01*
X0640629Y0061809D01*
X0640871Y0061628D01*
X0641109Y0061441D01*
X0641343Y0061248D01*
X0641571Y0061049D01*
X0641795Y0060845D01*
X0642013Y0060635D01*
X0642227Y0060421D01*
X0642435Y0060200D01*
X0642638Y0059975D01*
X0642835Y0059746D01*
X0643026Y0059511D01*
X0643212Y0059272D01*
X0643137Y0059215D01*
X0642952Y0059453D01*
X0642762Y0059685D01*
X0642567Y0059914D01*
X0642366Y0060137D01*
X0642159Y0060355D01*
X0641947Y0060569D01*
X0641730Y0060777D01*
X0641508Y0060979D01*
X0641281Y0061176D01*
X0641050Y0061368D01*
X0640814Y0061554D01*
X0640573Y0061734D01*
X0640328Y0061908D01*
X0640079Y0062076D01*
X0639825Y0062238D01*
X0639568Y0062393D01*
X0639307Y0062542D01*
X0639043Y0062685D01*
X0638775Y0062822D01*
X0638504Y0062951D01*
X0638230Y0063074D01*
X0637953Y0063191D01*
X0637673Y0063300D01*
X0637390Y0063403D01*
X0637106Y0063499D01*
X0636818Y0063587D01*
X0636529Y0063669D01*
X0636238Y0063744D01*
X0635945Y0063811D01*
X0635651Y0063872D01*
X0635355Y0063925D01*
X0635058Y0063970D01*
X0634760Y0064009D01*
X0634461Y0064040D01*
X0634161Y0064064D01*
X0633861Y0064081D01*
X0633561Y0064090D01*
X0633260Y0064092D01*
X0632960Y0064086D01*
X0632659Y0064074D01*
X0632360Y0064053D01*
X0632060Y0064026D01*
X0631762Y0063991D01*
X0631464Y0063949D01*
X0631168Y0063900D01*
X0630873Y0063843D01*
X0630579Y0063779D01*
X0630287Y0063709D01*
X0629997Y0063631D01*
X0629708Y0063545D01*
X0629422Y0063453D01*
X0629138Y0063354D01*
X0628857Y0063248D01*
X0628579Y0063135D01*
X0628303Y0063016D01*
X0628030Y0062889D01*
X0627761Y0062756D01*
X0627495Y0062617D01*
X0627232Y0062471D01*
X0626973Y0062319D01*
X0626717Y0062160D01*
X0626466Y0061995D01*
X0626219Y0061824D01*
X0625976Y0061647D01*
X0625737Y0061464D01*
X0625503Y0061276D01*
X0625274Y0061082D01*
X0625050Y0060882D01*
X0624830Y0060677D01*
X0624616Y0060466D01*
X0624406Y0060250D01*
X0624202Y0060030D01*
X0624004Y0059804D01*
X0623811Y0059573D01*
X0623624Y0059338D01*
X0623442Y0059099D01*
X0623267Y0058855D01*
X0623097Y0058606D01*
X0622934Y0058354D01*
X0622777Y0058098D01*
X0622626Y0057838D01*
X0622482Y0057574D01*
X0622344Y0057307D01*
X0622212Y0057037D01*
X0622088Y0056764D01*
X0621970Y0056487D01*
X0621859Y0056208D01*
X0621754Y0055926D01*
X0621657Y0055642D01*
X0621566Y0055355D01*
X0621483Y0055066D01*
X0621407Y0054776D01*
X0621337Y0054483D01*
X0621275Y0054189D01*
X0621221Y0053894D01*
X0621173Y0053597D01*
X0621133Y0053299D01*
X0621100Y0053000D01*
X0621074Y0052701D01*
X0621056Y0052401D01*
X0621045Y0052101D01*
X0621041Y0051800D01*
X0621045Y0051499D01*
X0621056Y0051199D01*
X0621074Y0050899D01*
X0621100Y0050600D01*
X0621133Y0050301D01*
X0621173Y0050003D01*
X0621221Y0049706D01*
X0621275Y0049411D01*
X0621337Y0049117D01*
X0621407Y0048824D01*
X0621483Y0048534D01*
X0621566Y0048245D01*
X0621657Y0047958D01*
X0621754Y0047674D01*
X0621859Y0047392D01*
X0621970Y0047113D01*
X0622088Y0046836D01*
X0622212Y0046563D01*
X0622344Y0046293D01*
X0622482Y0046026D01*
X0622626Y0045762D01*
X0622777Y0045502D01*
X0622934Y0045246D01*
X0623097Y0044994D01*
X0623267Y0044745D01*
X0623442Y0044501D01*
X0623624Y0044262D01*
X0623811Y0044027D01*
X0624004Y0043796D01*
X0624202Y0043570D01*
X0624406Y0043350D01*
X0624616Y0043134D01*
X0624830Y0042923D01*
X0625050Y0042718D01*
X0625274Y0042518D01*
X0625503Y0042324D01*
X0625737Y0042136D01*
X0625976Y0041953D01*
X0626219Y0041776D01*
X0626466Y0041605D01*
X0626717Y0041440D01*
X0626973Y0041281D01*
X0627232Y0041129D01*
X0627495Y0040983D01*
X0627761Y0040844D01*
X0628030Y0040711D01*
X0628303Y0040584D01*
X0628579Y0040465D01*
X0628857Y0040352D01*
X0629138Y0040246D01*
X0629422Y0040147D01*
X0629708Y0040055D01*
X0629997Y0039969D01*
X0630287Y0039891D01*
X0630579Y0039821D01*
X0630873Y0039757D01*
X0631168Y0039700D01*
X0631464Y0039651D01*
X0631762Y0039609D01*
X0632060Y0039574D01*
X0632360Y0039547D01*
X0632659Y0039526D01*
X0632960Y0039514D01*
X0633260Y0039508D01*
X0633561Y0039510D01*
X0633861Y0039519D01*
X0634161Y0039536D01*
X0634461Y0039560D01*
X0634760Y0039591D01*
X0635058Y0039630D01*
X0635355Y0039675D01*
X0635651Y0039728D01*
X0635945Y0039789D01*
X0636238Y0039856D01*
X0636529Y0039931D01*
X0636818Y0040013D01*
X0637106Y0040101D01*
X0637390Y0040197D01*
X0637673Y0040300D01*
X0637953Y0040409D01*
X0638230Y0040526D01*
X0638504Y0040649D01*
X0638775Y0040778D01*
X0639043Y0040915D01*
X0639307Y0041058D01*
X0639568Y0041207D01*
X0639825Y0041362D01*
X0640079Y0041524D01*
X0640328Y0041692D01*
X0640573Y0041866D01*
X0640814Y0042046D01*
X0641050Y0042232D01*
X0641281Y0042424D01*
X0641508Y0042621D01*
X0641730Y0042823D01*
X0641947Y0043031D01*
X0642159Y0043245D01*
X0642366Y0043463D01*
X0642567Y0043686D01*
X0642762Y0043915D01*
X0642952Y0044147D01*
X0643137Y0044385D01*
X0643061Y0044441D01*
X0642879Y0044206D01*
X0642690Y0043975D01*
X0642496Y0043748D01*
X0642296Y0043526D01*
X0642091Y0043310D01*
X0641881Y0043098D01*
X0641666Y0042892D01*
X0641446Y0042691D01*
X0641220Y0042495D01*
X0640991Y0042305D01*
X0640756Y0042121D01*
X0640517Y0041942D01*
X0640274Y0041769D01*
X0640027Y0041603D01*
X0639775Y0041442D01*
X0639520Y0041288D01*
X0639261Y0041140D01*
X0638999Y0040998D01*
X0638733Y0040863D01*
X0638464Y0040734D01*
X0638192Y0040612D01*
X0637917Y0040496D01*
X0637639Y0040387D01*
X0637359Y0040286D01*
X0637076Y0040191D01*
X0636791Y0040103D01*
X0636504Y0040022D01*
X0636216Y0039947D01*
X0635925Y0039881D01*
X0635633Y0039821D01*
X0635339Y0039768D01*
X0635044Y0039723D01*
X0634749Y0039684D01*
X0634452Y0039653D01*
X0634155Y0039630D01*
X0633857Y0039613D01*
X0633559Y0039604D01*
X0633261Y0039602D01*
X0632962Y0039608D01*
X0632664Y0039620D01*
X0632367Y0039640D01*
X0632070Y0039668D01*
X0631774Y0039702D01*
X0631478Y0039744D01*
X0631184Y0039793D01*
X0630891Y0039849D01*
X0630600Y0039912D01*
X0630310Y0039983D01*
X0630022Y0040060D01*
X0629736Y0040144D01*
X0629452Y0040236D01*
X0629170Y0040334D01*
X0628891Y0040439D01*
X0628615Y0040551D01*
X0628341Y0040670D01*
X0628071Y0040795D01*
X0627803Y0040927D01*
X0627539Y0041066D01*
X0627278Y0041211D01*
X0627021Y0041362D01*
X0626768Y0041519D01*
X0626519Y0041683D01*
X0626273Y0041853D01*
X0626032Y0042028D01*
X0625795Y0042210D01*
X0625563Y0042397D01*
X0625336Y0042589D01*
X0625113Y0042788D01*
X0624895Y0042991D01*
X0624682Y0043200D01*
X0624474Y0043414D01*
X0624272Y0043634D01*
X0624075Y0043857D01*
X0623884Y0044086D01*
X0623698Y0044320D01*
X0623518Y0044557D01*
X0623344Y0044799D01*
X0623176Y0045046D01*
X0623014Y0045296D01*
X0622858Y0045550D01*
X0622708Y0045808D01*
X0622565Y0046070D01*
X0622428Y0046335D01*
X0622297Y0046603D01*
X0622174Y0046874D01*
X0622057Y0047149D01*
X0621946Y0047426D01*
X0621843Y0047706D01*
X0621746Y0047988D01*
X0621656Y0048272D01*
X0621574Y0048559D01*
X0621498Y0048847D01*
X0621429Y0049137D01*
X0621368Y0049429D01*
X0621313Y0049722D01*
X0621266Y0050017D01*
X0621226Y0050312D01*
X0621193Y0050609D01*
X0621168Y0050906D01*
X0621150Y0051204D01*
X0621139Y0051502D01*
X0621135Y0051800D01*
X0621139Y0052098D01*
X0621150Y0052396D01*
X0621168Y0052694D01*
X0621193Y0052991D01*
X0621226Y0053288D01*
X0621266Y0053583D01*
X0621313Y0053878D01*
X0621368Y0054171D01*
X0621429Y0054463D01*
X0621498Y0054753D01*
X0621574Y0055041D01*
X0621656Y0055328D01*
X0621746Y0055612D01*
X0621843Y0055894D01*
X0621946Y0056174D01*
X0622057Y0056451D01*
X0622174Y0056726D01*
X0622297Y0056997D01*
X0622428Y0057265D01*
X0622565Y0057530D01*
X0622708Y0057792D01*
X0622858Y0058050D01*
X0623014Y0058304D01*
X0623176Y0058554D01*
X0623344Y0058801D01*
X0623518Y0059043D01*
X0623698Y0059280D01*
X0623884Y0059514D01*
X0624075Y0059743D01*
X0624272Y0059966D01*
X0624474Y0060186D01*
X0624682Y0060400D01*
X0624895Y0060609D01*
X0625113Y0060812D01*
X0625336Y0061011D01*
X0625563Y0061203D01*
X0625795Y0061390D01*
X0626032Y0061572D01*
X0626273Y0061747D01*
X0626519Y0061917D01*
X0626768Y0062081D01*
X0627021Y0062238D01*
X0627278Y0062389D01*
X0627539Y0062534D01*
X0627803Y0062673D01*
X0628071Y0062805D01*
X0628341Y0062930D01*
X0628615Y0063049D01*
X0628891Y0063161D01*
X0629170Y0063266D01*
X0629452Y0063364D01*
X0629736Y0063456D01*
X0630022Y0063540D01*
X0630310Y0063617D01*
X0630600Y0063688D01*
X0630891Y0063751D01*
X0631184Y0063807D01*
X0631478Y0063856D01*
X0631774Y0063898D01*
X0632070Y0063932D01*
X0632367Y0063960D01*
X0632664Y0063980D01*
X0632962Y0063992D01*
X0633261Y0063998D01*
X0633559Y0063996D01*
X0633857Y0063987D01*
X0634155Y0063970D01*
X0634452Y0063947D01*
X0634749Y0063916D01*
X0635044Y0063877D01*
X0635339Y0063832D01*
X0635633Y0063779D01*
X0635925Y0063719D01*
X0636216Y0063653D01*
X0636504Y0063578D01*
X0636791Y0063497D01*
X0637076Y0063409D01*
X0637359Y0063314D01*
X0637639Y0063213D01*
X0637917Y0063104D01*
X0638192Y0062988D01*
X0638464Y0062866D01*
X0638733Y0062737D01*
X0638999Y0062602D01*
X0639261Y0062460D01*
X0639520Y0062312D01*
X0639775Y0062158D01*
X0640027Y0061997D01*
X0640274Y0061831D01*
X0640517Y0061658D01*
X0640756Y0061479D01*
X0640991Y0061295D01*
X0641220Y0061105D01*
X0641446Y0060909D01*
X0641666Y0060708D01*
X0641881Y0060502D01*
X0642091Y0060290D01*
X0642296Y0060074D01*
X0642496Y0059852D01*
X0642690Y0059625D01*
X0642879Y0059394D01*
X0643061Y0059159D01*
X0642986Y0059102D01*
X0642805Y0059336D01*
X0642618Y0059565D01*
X0642425Y0059790D01*
X0642227Y0060010D01*
X0642024Y0060225D01*
X0641815Y0060435D01*
X0641601Y0060640D01*
X0641383Y0060839D01*
X0641159Y0061033D01*
X0640931Y0061222D01*
X0640699Y0061405D01*
X0640462Y0061582D01*
X0640220Y0061753D01*
X0639975Y0061919D01*
X0639726Y0062078D01*
X0639472Y0062231D01*
X0639216Y0062378D01*
X0638955Y0062519D01*
X0638691Y0062653D01*
X0638424Y0062781D01*
X0638154Y0062902D01*
X0637882Y0063017D01*
X0637606Y0063125D01*
X0637328Y0063226D01*
X0637047Y0063320D01*
X0636765Y0063407D01*
X0636480Y0063488D01*
X0636193Y0063561D01*
X0635905Y0063628D01*
X0635615Y0063687D01*
X0635323Y0063739D01*
X0635031Y0063784D01*
X0634737Y0063822D01*
X0634443Y0063853D01*
X0634148Y0063877D01*
X0633853Y0063893D01*
X0633557Y0063902D01*
X0633261Y0063904D01*
X0632965Y0063898D01*
X0632669Y0063886D01*
X0632374Y0063866D01*
X0632079Y0063839D01*
X0631785Y0063805D01*
X0631492Y0063763D01*
X0631200Y0063715D01*
X0630910Y0063659D01*
X0630621Y0063596D01*
X0630333Y0063526D01*
X0630047Y0063449D01*
X0629763Y0063366D01*
X0629482Y0063275D01*
X0629202Y0063177D01*
X0628925Y0063073D01*
X0628651Y0062962D01*
X0628380Y0062844D01*
X0628111Y0062720D01*
X0627846Y0062589D01*
X0627584Y0062451D01*
X0627325Y0062308D01*
X0627070Y0062158D01*
X0626818Y0062001D01*
X0626571Y0061839D01*
X0626328Y0061671D01*
X0626088Y0061496D01*
X0625853Y0061316D01*
X0625623Y0061131D01*
X0625397Y0060939D01*
X0625176Y0060743D01*
X0624960Y0060541D01*
X0624749Y0060333D01*
X0624543Y0060121D01*
X0624342Y0059903D01*
X0624146Y0059681D01*
X0623956Y0059454D01*
X0623772Y0059223D01*
X0623594Y0058987D01*
X0623421Y0058747D01*
X0623254Y0058502D01*
X0623093Y0058254D01*
X0622938Y0058001D01*
X0622790Y0057745D01*
X0622648Y0057486D01*
X0622512Y0057223D01*
X0622382Y0056957D01*
X0622260Y0056688D01*
X0622143Y0056415D01*
X0622034Y0056140D01*
X0621931Y0055863D01*
X0621835Y0055583D01*
X0621746Y0055301D01*
X0621664Y0055016D01*
X0621589Y0054730D01*
X0621521Y0054442D01*
X0621460Y0054153D01*
X0621406Y0053862D01*
X0621359Y0053569D01*
X0621319Y0053276D01*
X0621287Y0052982D01*
X0621262Y0052687D01*
X0621243Y0052392D01*
X0621233Y0052096D01*
X0621229Y0051800D01*
X0621233Y0051504D01*
X0621243Y0051208D01*
X0621262Y0050913D01*
X0621287Y0050618D01*
X0621319Y0050324D01*
X0621359Y0050031D01*
X0621406Y0049738D01*
X0621460Y0049447D01*
X0621521Y0049158D01*
X0621589Y0048870D01*
X0621664Y0048584D01*
X0621746Y0048299D01*
X0621835Y0048017D01*
X0621931Y0047737D01*
X0622034Y0047460D01*
X0622143Y0047185D01*
X0622260Y0046912D01*
X0622382Y0046643D01*
X0622512Y0046377D01*
X0622648Y0046114D01*
X0622790Y0045855D01*
X0622938Y0045599D01*
X0623093Y0045346D01*
X0623254Y0045098D01*
X0623421Y0044853D01*
X0623594Y0044613D01*
X0623772Y0044377D01*
X0623956Y0044146D01*
X0624146Y0043919D01*
X0624342Y0043697D01*
X0624543Y0043479D01*
X0624749Y0043267D01*
X0624960Y0043059D01*
X0625176Y0042857D01*
X0625397Y0042661D01*
X0625623Y0042469D01*
X0625853Y0042284D01*
X0626088Y0042104D01*
X0626328Y0041929D01*
X0626571Y0041761D01*
X0626818Y0041599D01*
X0627070Y0041442D01*
X0627325Y0041292D01*
X0627584Y0041149D01*
X0627846Y0041011D01*
X0628111Y0040880D01*
X0628380Y0040756D01*
X0628651Y0040638D01*
X0628925Y0040527D01*
X0629202Y0040423D01*
X0629482Y0040325D01*
X0629763Y0040234D01*
X0630047Y0040151D01*
X0630333Y0040074D01*
X0630621Y0040004D01*
X0630910Y0039941D01*
X0631200Y0039885D01*
X0631492Y0039837D01*
X0631785Y0039795D01*
X0632079Y0039761D01*
X0632374Y0039734D01*
X0632669Y0039714D01*
X0632965Y0039702D01*
X0633261Y0039696D01*
X0633557Y0039698D01*
X0633853Y0039707D01*
X0634148Y0039723D01*
X0634443Y0039747D01*
X0634737Y0039778D01*
X0635031Y0039816D01*
X0635323Y0039861D01*
X0635615Y0039913D01*
X0635905Y0039972D01*
X0636193Y0040039D01*
X0636480Y0040112D01*
X0636765Y0040193D01*
X0637047Y0040280D01*
X0637328Y0040374D01*
X0637606Y0040475D01*
X0637882Y0040583D01*
X0638154Y0040698D01*
X0638424Y0040819D01*
X0638691Y0040947D01*
X0638955Y0041081D01*
X0639216Y0041222D01*
X0639472Y0041369D01*
X0639726Y0041522D01*
X0639975Y0041681D01*
X0640220Y0041847D01*
X0640462Y0042018D01*
X0640699Y0042195D01*
X0640931Y0042378D01*
X0641159Y0042567D01*
X0641383Y0042761D01*
X0641601Y0042960D01*
X0641815Y0043165D01*
X0642024Y0043375D01*
X0642227Y0043590D01*
X0642425Y0043810D01*
X0642618Y0044035D01*
X0642805Y0044264D01*
X0642986Y0044498D01*
M02*
