G75*
%MOIN*%
%OFA0B0*%
%FSLAX25Y25*%
%IPPOS*%
%LPD*%
%AMOC8*
5,1,8,0,0,1.08239X$1,22.5*
%
%ADD10C,0.07300*%
%ADD11C,0.08200*%
%ADD12C,0.17800*%
%ADD13OC8,0.08200*%
%ADD14C,0.06400*%
%ADD15R,0.05162X0.05162*%
D10*
X0588333Y0031800D03*
X0598333Y0031800D03*
X0628333Y0016800D03*
X0638333Y0016800D03*
D11*
X0653333Y0031800D03*
X0613333Y0031800D03*
X0628333Y0051800D03*
X0638333Y0051800D03*
X0593333Y0051800D03*
X0613333Y0071800D03*
X0653333Y0071800D03*
X0638333Y0091800D03*
X0628333Y0091800D03*
X0593333Y0091800D03*
X0588333Y0111800D03*
X0613333Y0111800D03*
X0588333Y0121800D03*
X0588333Y0131800D03*
X0588333Y0141800D03*
X0588333Y0151800D03*
X0588333Y0161800D03*
X0588333Y0171800D03*
X0588333Y0181800D03*
X0758333Y0181800D03*
X0758333Y0171800D03*
X0758333Y0161800D03*
X0758333Y0151800D03*
X0758333Y0141800D03*
X0758333Y0131800D03*
X0653333Y0111800D03*
X0638333Y0136800D03*
X0628333Y0136800D03*
D12*
X0746207Y0080304D03*
X0734396Y0061800D03*
X0758018Y0061800D03*
D13*
X0703333Y0036800D03*
X0693333Y0036800D03*
X0683333Y0036800D03*
X0683333Y0026800D03*
X0693333Y0026800D03*
X0703333Y0026800D03*
D14*
X0705533Y0061800D02*
X0711133Y0061800D01*
X0681133Y0061800D02*
X0675533Y0061800D01*
X0675533Y0071800D02*
X0681133Y0071800D01*
X0705533Y0071800D02*
X0711133Y0071800D01*
X0711133Y0081800D02*
X0705533Y0081800D01*
X0681133Y0081800D02*
X0675533Y0081800D01*
X0675533Y0091800D02*
X0681133Y0091800D01*
X0705533Y0091800D02*
X0711133Y0091800D01*
X0711133Y0101800D02*
X0705533Y0101800D01*
X0681133Y0101800D02*
X0675533Y0101800D01*
X0675533Y0111800D02*
X0681133Y0111800D01*
X0705533Y0111800D02*
X0711133Y0111800D01*
X0711133Y0121800D02*
X0705533Y0121800D01*
X0681133Y0121800D02*
X0675533Y0121800D01*
X0675533Y0131800D02*
X0681133Y0131800D01*
X0705533Y0131800D02*
X0711133Y0131800D01*
X0711133Y0141800D02*
X0705533Y0141800D01*
X0681133Y0141800D02*
X0675533Y0141800D01*
X0675533Y0151800D02*
X0681133Y0151800D01*
X0705533Y0151800D02*
X0711133Y0151800D01*
X0711133Y0161800D02*
X0705533Y0161800D01*
X0681133Y0161800D02*
X0675533Y0161800D01*
X0675533Y0171800D02*
X0681133Y0171800D01*
X0705533Y0171800D02*
X0711133Y0171800D01*
X0711133Y0181800D02*
X0705533Y0181800D01*
X0681133Y0181800D02*
X0675533Y0181800D01*
X0675533Y0191800D02*
X0681133Y0191800D01*
X0705533Y0191800D02*
X0711133Y0191800D01*
D15*
X0653333Y0131800D03*
M02*
